<svg id="Capa_1" enable-background="new 0 0 512 512" height="512" viewBox="0 0 512 512" width="512" xmlns="http://www.w3.org/2000/svg">
<g>
<g>
<g>
<g>
<path fill="white" d="m290.234 215.685c-2.524 0-5.066-.496-7.497-1.503l-26.737-11.077-26.738 11.077c-6.317 2.619-13.393 1.781-18.926-2.239s-8.515-10.491-7.977-17.31l2.276-28.835-18.793-21.987c-4.445-5.2-5.836-12.188-3.723-18.695 2.114-6.506 7.347-11.342 13.999-12.936l28.138-6.747 15.118-24.671c3.572-5.83 9.787-9.311 16.625-9.313 6.838 0 13.055 3.481 16.629 9.312v.001l15.117 24.671 28.139 6.747c6.651 1.595 11.885 6.432 13.998 12.938 2.114 6.506.723 13.495-3.723 18.695l-18.793 21.986 2.275 28.834c.539 6.818-2.443 13.289-7.977 17.31-3.404 2.473-7.394 3.742-11.43 3.742zm-88.659-84.247 20.956 24.518c1.725 2.018 2.576 4.638 2.367 7.284l-2.538 32.153 29.812-12.351c2.451-1.015 5.205-1.016 7.655 0l29.812 12.351-2.537-32.153c-.209-2.646.643-5.267 2.367-7.284l20.955-24.518-31.373-7.523c-2.58-.619-4.809-2.237-6.194-4.5l-16.857-27.51-16.856 27.509c-1.386 2.263-3.614 3.881-6.194 4.5z"/>
</g>
</g>
</g>
<g>
<g>
<path fill="white" d="m447.001 20.012h-54.001v-10.012c0-5.523-4.478-10-10-10h-254c-5.523 0-10 4.477-10 10v10.012h-54.001c-5.523 0-10 4.478-10 10v95.82c0 37.374 28.624 68.184 65.1 71.668 6.899 54.207 45.599 98.626 96.748 113.905l-14.281 64.955h-97.186c-5.523 0-10 4.477-10 10v115.64c0 5.522 4.477 10 10 10h301.24c5.523 0 10-4.478 10-10v-115.64c0-5.523-4.477-10-10-10h-97.186l-14.281-64.955c51.149-15.279 89.849-59.698 96.749-113.905 36.476-3.484 65.1-34.294 65.1-71.668v-95.82c-.001-5.523-4.479-10-10.001-10zm-372.002 105.82v-85.82h44.001v137.205c-24.889-3.859-44.001-25.432-44.001-51.385zm321.621 308.349h-36.953c-5.522 0-10 4.478-10 10s4.478 10 10 10h36.953v37.819h-281.24v-37.819h147.283c5.522 0 10-4.478 10-10s-4.478-10-10-10h-147.283v-37.82h281.24zm-107.664-57.821h-65.912l13.336-60.659c6.409.923 12.959 1.403 19.62 1.403 6.66 0 13.211-.48 19.619-1.403zm84.044-196.255c0 64.514-52.486 117-117 117s-117-52.486-117-117v-160.105h234zm64.001-54.273c0 25.953-19.112 47.526-44.001 51.385v-137.205h44.001z"/>
</g>
<g>
<g>
<path fill="white" d="m311 454.18c-4.257 0-8.077-2.787-9.463-6.789-1.305-3.767-.128-8.105 2.869-10.727 3.278-2.869 8.171-3.258 11.871-.969 3.452 2.136 5.283 6.286 4.553 10.275-.857 4.687-5.055 8.21-9.83 8.21z"/>
</g>
</g>
</g>
</g>
</svg>