<svg width="1202" height="782" viewBox="0 0 1202 782" fill="none" xmlns="http://www.w3.org/2000/svg">
<path d="M10.3971 781.406L412.789 779.298L520.048 779.266L555.583 779.253L663.047 779.221L1154.01 779.086C1154.01 779.086 1266.31 633.814 1146.35 495.839C1021.98 352.784 961.51 469.289 923.28 267.923C827.051 -238.946 -124.349 56.0626 125.196 487.388C215.049 642.694 -51.672 560.147 10.3971 781.406Z" fill="#EBF3FA"/>
<path d="M475.862 756.982C475.862 756.982 477.39 774.659 473.652 776.499L425.812 776.401C425.812 776.401 425.812 770.882 433.496 769.655C441.18 768.429 454.679 763.932 456.963 753.916C459.248 743.9 475.862 756.982 475.862 756.982Z" fill="#233862"/>
<path d="M613.13 750.14C613.13 750.14 614.569 774.659 610.831 776.499L562.991 776.401C562.991 776.401 562.991 770.882 570.675 769.655C578.359 768.429 591.858 763.932 594.143 753.916C596.427 743.9 613.13 750.14 613.13 750.14Z" fill="#233862"/>
<path d="M614.76 753.157C614.76 753.157 605.262 758.047 601.199 758.937C596.681 759.934 588.198 759.3 588.198 759.3C571.925 715.696 521.464 538.447 521.464 538.447C519.273 587.461 510.421 636.34 501.227 675.633C500.983 676.685 500.733 677.731 500.489 678.767V678.783C500.267 679.727 500.039 680.665 499.817 681.592C499.806 681.636 499.795 681.674 499.79 681.717C488.627 728.086 477.437 759.664 477.437 759.664C477.437 759.664 474.545 763.318 466.501 761.648C457.28 759.734 454.205 755.684 454.205 755.684C460.172 566.82 463.502 460.321 463.502 460.321C463.502 460.321 543.372 417.189 565.069 454.059C586.766 490.928 614.76 753.157 614.76 753.157Z" fill="#2A4E96"/>
<path d="M582.576 479.525C572.221 442.521 570.518 407.386 570.599 378.297C570.708 336.895 574.429 307.735 561.964 302.818C561.964 302.818 523.451 291.627 496.944 286.695C492.723 284.372 488.032 281.938 484.477 280.495C476.108 277.1 443.476 229.684 437.944 218.331C432.412 206.979 423.254 157.518 423.254 157.518L410.538 161.57C410.538 161.57 406.719 217.088 408.55 231.56C410.381 246.031 450.785 308.253 454.138 313.699L454.138 313.699C468.522 366.254 454.138 451.78 460.712 470.85C464.091 480.658 526.805 498.632 561.129 496.371C562.838 496.257 564.481 496.095 566.038 495.877C566.043 495.877 566.048 495.872 566.054 495.872C574.174 494.744 580.081 492.152 582.245 487.603C583.303 485.392 583.471 482.719 582.576 479.525Z" fill="#AEC3FF"/>
<path d="M423.255 157.519C423.255 157.519 430.44 136.65 425.184 136.043C419.928 135.437 406.742 135.502 405.115 139.026C403.488 142.55 410.539 161.57 410.539 161.57L423.255 157.519Z" fill="#FFB27D"/>
<path d="M286.46 209.512L244.044 183.872C245.926 180.762 248.892 178.706 252.167 177.9C255.444 177.096 259.023 177.537 262.138 179.42C264.881 181.078 268.45 180.196 270.109 177.454L281.588 158.481L291.519 164.484L280.04 183.458C279.211 184.828 279.015 186.407 279.37 187.85C279.726 189.293 280.633 190.6 282.004 191.429C285.116 193.31 287.172 196.275 287.979 199.548C288.785 202.821 288.342 206.402 286.46 209.512Z" fill="#ED7D2B"/>
<path d="M286.46 209.512L258.263 192.467C251.733 187.018 254.925 182.353 258.2 181.547C261.478 180.743 265.056 181.184 268.171 183.067C270.914 184.725 274.484 183.843 276.142 181.101L287.621 162.128L291.519 164.484L280.04 183.457C279.211 184.828 279.015 186.407 279.37 187.85C279.726 189.293 280.633 190.6 282.004 191.429C285.116 193.31 287.172 196.275 287.979 199.548C288.785 202.821 288.342 206.402 286.46 209.512Z" fill="#F99746"/>
<path d="M410.536 85.9076L376.209 129.162C364.277 148.885 343.642 158.345 323.871 159.138C323.868 159.136 323.866 159.139 323.862 159.137C317.126 159.408 310.494 158.674 304.339 156.995C299.255 155.608 293.4 158.344 290.181 163.656L289.509 164.767C287.515 168.055 285.846 170.814 285.846 170.814L278.617 166.444C278.617 166.444 280.3 163.654 282.303 160.342C285.83 154.497 285.638 147.368 281.772 143.044C265.252 124.571 259.053 94.0081 274.852 67.8923L298.097 17.9387L410.536 85.9076Z" fill="#F99746"/>
<path d="M266.947 102.996C269.752 86.7893 261.911 77.9601 253.61 68.6121C246.973 61.1375 240.109 53.4085 238.633 41.9045C236.996 29.1439 242.938 16.121 253.42 9.49788C261.393 4.46117 270.197 4.30069 277.595 9.04051C288.096 15.7844 292 28.8352 288.883 46.7812C286.651 59.6351 281.655 70.4902 281.443 70.9461L274.853 67.8909C275.038 67.4902 293.179 27.6789 273.669 15.1496C266.939 10.8228 260.525 13.5991 257.302 15.6362C249.287 20.6994 244.573 31.1221 245.839 40.9808C247.03 50.2631 252.865 56.8343 259.043 63.7916C267.697 73.537 277.506 84.5827 274.105 104.233L266.947 102.996Z" fill="#ED7D2B"/>
<path d="M348.782 152.464C361.837 142.455 373.302 145.295 385.438 148.302C395.143 150.706 405.178 153.192 416.056 149.156C428.121 144.679 436.9 133.37 437.899 121.014C438.658 111.617 434.711 103.748 427.076 99.4011C416.224 93.2368 402.849 95.8422 388.396 106.936C378.045 114.882 370.748 124.347 370.443 124.746L376.21 129.161C376.479 128.811 403.325 94.2615 423.487 105.714C430.445 109.662 430.965 116.629 430.657 120.429C429.894 129.876 422.849 138.889 413.527 142.348C404.751 145.605 396.218 143.491 387.185 141.253C374.532 138.118 360.19 134.565 344.36 146.702L348.782 152.464Z" fill="#F99746"/>
<path d="M323.862 159.137C317.126 159.408 310.494 158.673 304.339 156.994C299.255 155.608 293.4 158.344 290.181 163.656L289.509 164.767C286.983 166.07 285.073 167.717 284.171 169.802L278.617 166.444C278.617 166.444 280.3 163.654 282.303 160.342C285.83 154.497 285.638 147.368 281.772 143.044C265.252 124.571 259.053 94.0081 274.852 67.8923L298.097 17.9387L316.684 29.1751C316.685 29.1751 241.214 131.398 323.862 159.137Z" fill="#ED7D2B"/>
<path d="M290.409 175.21L271.891 164.016C269.377 162.496 268.564 159.197 270.085 156.684C271.605 154.171 274.905 153.358 277.419 154.878L295.937 166.072C298.451 167.592 299.264 170.891 297.743 173.404C296.224 175.917 292.923 176.729 290.409 175.21Z" fill="#F99746"/>
<path d="M405.115 139.026C405.115 139.026 404.437 146.21 406.742 147.565C409.047 148.921 409.861 139.026 409.861 139.026C409.861 139.026 409.997 147.143 411.76 147.692C413.522 148.243 414.607 138.348 414.607 138.348C414.607 138.348 414.795 146.21 415.99 145.938C417.184 145.668 417.998 138.348 417.998 138.348C417.998 138.348 418.54 144.055 420.168 143.031C421.795 142.008 423.341 135.882 423.341 135.882L405.115 139.026Z" fill="#FFB27D"/>
<path d="M423.255 157.519C423.255 157.519 428.167 153.665 429.252 150.141C430.337 146.616 433.525 140.691 431.829 139.974C430.133 139.257 425.184 146.887 425.184 146.887L423.255 157.519Z" fill="#FFB27D"/>
<path d="M508.428 281.018L507.811 284.229C507.811 284.229 504.952 294.087 517.02 297.995C529.087 301.907 539.258 303.717 540.455 295.91C540.528 289.696 540.374 279.999 541.272 275.024C541.607 273.175 542.119 271.244 542.9 269.104L519.05 263.892L511.77 263.65L508.428 281.018Z" fill="#FFB27D"/>
<path d="M511.77 263.65L509.549 275.355C532.208 281.354 542.12 271.244 542.9 269.104L519.05 263.892L511.77 263.65Z" fill="#E2915A"/>
<path d="M546.396 264.247C539.368 278.524 520.063 272.576 511.927 269.272C509.636 268.346 508.233 267.627 508.233 267.627C505.767 266.167 505.458 261.552 506.31 255.859C507.993 244.593 514.21 229.105 517.196 225.535C521.69 220.163 528.77 214.976 547.003 225.266C565.239 235.56 555.406 245.956 546.396 264.247Z" fill="#FFB27D"/>
<path d="M515.212 209.512C515.212 209.512 524.017 211.267 535.422 209.7C544.679 208.429 553.98 215.297 556.859 218.025C556.921 217.455 556.912 216.651 556.606 215.761C556.606 215.761 557.821 217.262 557.622 218.828C557.746 218.987 557.794 219.086 557.746 219.101C557.746 219.101 559.554 219.269 560.52 220.076C560.52 220.076 559.777 219.748 559.361 220.168C559.317 220.212 559.261 220.244 559.199 220.27C570.325 230.096 565.805 250.762 560.343 254.304C553.772 258.567 542.485 270.298 542.485 270.298C542.485 270.298 542.884 266.015 545.189 261.288C547.493 256.562 543.189 255.354 538.389 251.565C533.589 247.777 539.898 242.708 536.223 237.525C532.547 232.342 514.471 229.714 515.524 226.834C509.712 222.662 515.026 210.175 515.212 209.512Z" fill="#233862"/>
<path d="M518.111 258.985C518.111 258.985 516.937 260.752 512.23 258.667C512.23 258.667 508.279 256.917 509.192 254.835C509.192 254.835 513.675 254.776 518.111 258.985Z" fill="white"/>
<path d="M512.813 307.249C512.813 307.249 501.935 379.404 420.574 429.51L412.98 451.56H442.347C442.347 451.56 515.22 390.472 520.106 309.323L512.813 307.249Z" fill="#ED7D2B"/>
<path d="M512.813 307.249V296.31L526.225 300.105L520.107 309.323L512.813 307.249Z" fill="#DB6516"/>
<path d="M508.428 281.018L500.58 287.723C500.58 287.723 498.41 297.088 503.698 307.248L519.519 298.208C519.519 298.208 510.175 293.696 508.428 281.018Z" fill="#9DB0F4"/>
<path d="M519.519 298.208C519.519 298.208 521.088 306.7 525.208 310.902C525.208 310.902 543.03 307.784 547.976 299.244L540.512 287.59C540.512 287.59 538.73 295.544 519.519 298.208Z" fill="#9DB0F4"/>
<path d="M626.299 485.226C626.299 485.226 626.33 501.38 624.843 504.592C623.356 507.804 616.687 518.27 613.613 520.508C610.54 522.746 614.276 507.571 613.311 504.795C612.345 502.019 611.163 510.27 609.74 510.61C608.318 510.95 607.93 503.677 607.602 501.049C607.274 498.421 613.662 491.18 615.566 485.313C617.47 479.445 626.299 485.226 626.299 485.226Z" fill="#FFB27D"/>
<path d="M561.711 302.817C561.711 302.817 577.381 307.084 588.002 330.443C599.138 354.936 628.942 409.345 630.049 416.853C631.156 424.362 628.074 494.491 628.074 494.491C628.074 494.491 615.031 494.996 611.004 488.811C611.004 488.811 606.464 427.247 604.455 423.902C602.446 420.557 551.12 359.37 555.444 343.844C559.767 328.318 561.711 302.817 561.711 302.817Z" fill="#AEC3FF"/>
<path d="M582.245 487.605C578.362 490.934 573.117 493.835 566.055 495.874C566.049 495.874 566.044 495.879 566.038 495.879C564.302 496.378 562.67 496.53 561.129 496.372C532.446 493.417 536.856 382.028 550.753 373.798C565.398 365.123 570.6 378.298 570.6 378.298C570.519 407.387 572.222 442.521 582.576 479.526C583.471 482.719 583.303 485.392 582.245 487.605Z" fill="#9DB0F4"/>
<path d="M499.817 681.592C500.006 680.724 500.229 679.786 500.489 678.783C500.267 679.727 500.039 680.665 499.817 681.592Z" fill="#233862"/>
<path d="M501.227 675.633C510.003 634.111 500.544 522.847 504.769 520.733C509.108 518.564 521.464 538.446 521.464 538.446C519.273 587.461 510.421 636.34 501.227 675.633Z" fill="#233862"/>
<path d="M286.63 760.438L284.101 742.225L294.727 733.349L298.074 757.461L286.63 760.438Z" fill="#FFB27D"/>
<path d="M321.918 776.706H278.596C278.596 776.706 277.558 770.106 279.821 765.099C281.989 760.294 285.363 757.328 285.671 753.647C288.424 756.48 291.811 758.303 298.074 757.461C298.842 758.704 303.028 765.36 305.591 767.2C308.422 769.234 321.046 768.51 321.918 776.706Z" fill="#233862"/>
<path d="M313.213 514.509C310.38 537.291 308.064 558.769 306.176 578.786C296.094 685.441 298.073 750.629 298.073 750.629C298.073 750.629 297.344 752.559 291.094 752.588C287.561 752.607 284.1 751.835 284.1 751.835C284.1 751.835 261.527 682.189 263.269 642.556C263.476 637.789 264.036 633.457 265.031 629.728C270.446 609.45 244.992 531.901 272.661 503.022C300.327 474.147 314.517 504.054 313.213 514.509Z" fill="#F99746"/>
<path d="M313.213 514.509C310.38 537.291 308.064 558.769 306.176 578.786L263.27 642.556C263.477 637.789 264.037 633.457 265.031 629.728C270.446 609.45 244.992 531.901 272.662 503.022C300.327 474.147 314.516 504.054 313.213 514.509Z" fill="#ED7D2B"/>
<path d="M347.309 297.21C347.309 297.21 346.265 292.005 345.089 288.033C344.568 286.275 348.195 274.731 350.704 273.31C353.214 271.89 359.751 279.664 357.901 285.633C356.951 288.7 355.39 298.678 355.39 298.678L347.309 297.21Z" fill="#FFB27D"/>
<path d="M347.309 297.21C347.309 297.21 345.945 294.192 344.712 293.703C343.481 293.214 342.16 288.279 341.256 286.323C341.256 286.323 342.129 285.043 343.658 286.689C344.59 287.694 346.668 290.639 346.668 290.639L347.309 297.21Z" fill="#FFB27D"/>
<path d="M168.472 314.718C168.206 315.266 167.837 316.245 167.509 317.165C167.503 316.914 167.499 316.666 167.497 316.422C167.48 314.589 160.632 304.612 157.816 303.987C155.001 303.363 151.027 312.709 154.543 317.876C156.349 320.53 160.763 329.615 160.763 329.615L168.061 325.847C168.061 325.847 168.482 322.563 169.517 321.734C170.551 320.906 170.369 315.801 170.661 313.665C170.661 313.665 169.451 312.696 168.472 314.718Z" fill="#FFB27D"/>
<path d="M213.977 754.977C213.364 749.139 213.213 733.782 213.213 733.782C213.213 733.782 228.868 728.779 228.292 732.214C225.46 749.1 226.228 757.461 226.228 757.461L219.897 761.241L213.977 754.977Z" fill="#FFB27D"/>
<path d="M300.138 513.424C300.138 513.424 239.658 679.145 227.752 751.03C227.752 751.03 224.994 752.924 219.849 752.296C214.014 751.583 212.415 747.532 212.415 747.532C212.415 747.532 201.489 661.375 223.205 631.463C238.126 610.912 216.77 520.66 251.52 513.424C286.27 506.187 300.138 513.424 300.138 513.424Z" fill="#F99746"/>
<path d="M289.396 354.008C289.395 354.002 289.395 354.002 289.395 354.002C289.384 353.929 289.368 353.858 289.345 353.787C288.992 352.328 288.606 350.893 288.19 349.469C288.189 349.462 288.189 349.462 288.189 349.462C286.923 345.105 285.417 340.955 283.792 337.292C282.857 335.192 281.888 333.245 280.896 331.511C280.745 331.244 280.597 330.994 280.453 330.738L280.446 330.733C278.109 326.806 275.706 324.091 273.539 323.253C269.585 321.725 265.187 322.151 262.158 322.781C262.822 321.855 264.33 321.329 264.33 321.329C262.392 321.327 258.445 323.832 258.445 323.832C230.588 317.605 232.217 356.995 234.113 365.923C236.003 374.851 227.034 379.189 214.386 388.323C190.248 405.754 190.652 424.23 190.652 424.23C190.869 424.321 191.107 424.428 191.353 424.552C192.325 422.162 194.385 417.637 196.544 416.68C196.483 416.892 194.727 422.755 194.228 426.036C197.905 428.062 202.993 431.198 208.518 434.737C208.518 434.737 208.518 434.737 208.525 434.743C215.919 439.472 224.078 444.915 230.616 449.334C230.306 447.536 229.998 444.972 230.455 443.522L232.539 449.973L232.812 450.815C236.985 453.642 240.277 455.904 241.949 457.062C242.12 457.178 242.272 457.285 242.409 457.375C242.897 457.71 243.159 457.893 243.159 457.893C242.603 455.613 245.039 449.669 249.126 442.177C249.406 441.655 249.704 441.123 250.006 440.585C251.326 438.216 252.8 435.721 254.385 433.148C254.957 432.218 255.534 431.287 256.133 430.341C256.132 430.335 256.139 430.334 256.139 430.334C256.618 429.571 257.104 428.814 257.606 428.042L257.611 428.035C258.795 426.206 260.02 424.365 261.27 422.519C264.508 417.738 267.936 412.991 271.324 408.638C276.243 402.3 281.07 396.789 285.112 393.184C285.244 392.912 285.369 392.634 285.482 392.352C286.115 390.882 286.6 389.249 286.977 387.59C287.094 387.091 287.198 386.588 287.29 386.087C288.297 380.787 288.317 375.529 288.303 374.278C288.627 379.4 288.498 383.261 288.155 386.181C288.078 386.821 287.993 387.414 287.896 387.965L287.897 387.971C287.682 389.219 287.434 390.248 287.166 391.102C287.828 390.282 288.41 389.381 288.924 388.398C289.26 387.756 289.567 387.081 289.839 386.375C293.098 378.057 292.22 365.647 289.396 354.008Z" fill="#163560"/>
<path d="M284.162 393.912C284.256 393.938 276.364 399.649 269.67 398.846C263.373 398.097 258.252 390.842 258.333 390.812C260.82 389.922 261.035 386.292 258.729 371.174L259.922 371.23L279.974 372.189C279.974 372.189 280.443 378.383 281.289 384.157C281.997 389.006 282.975 393.559 284.162 393.912Z" fill="#FFB27D"/>
<path d="M279.975 372.189C279.975 372.189 280.443 378.383 281.289 384.157C270.343 385.471 263.103 376.388 259.922 371.23L279.975 372.189Z" fill="#ED975D"/>
<path d="M257.595 369.409C257.595 369.409 250.54 361.236 248.021 353.726C246.223 348.363 245.991 327.531 266.952 327.42C266.952 327.42 273 327.12 279.166 330.07C284.07 332.416 291.467 337.954 286.928 356.838L285.956 363.134L257.595 369.409Z" fill="#163560"/>
<path d="M315.74 510.242C315.74 510.242 289.646 525.743 256.884 517.772C256.498 517.679 229.906 513.437 229.906 513.437C230.363 512.187 233.8 491.653 234.249 490.504C240.062 475.51 250.684 394.138 259.56 390.124C261.826 392.591 268.303 394.28 273.846 393.788C280.229 393.223 282.366 390.467 281.836 387.502C288.9 390.841 294.328 393.944 294.328 393.944C300.784 403.614 315.74 510.242 315.74 510.242Z" fill="white"/>
<path d="M284.428 377.114C284.428 377.114 258.702 381.374 256.295 365.318C253.888 349.263 248.946 339 265.27 335.601C281.593 332.203 285.711 337.85 287.818 343.014C289.925 348.177 291.058 375.592 284.428 377.114Z" fill="#FFB27D"/>
<path d="M276.957 333.461C276.957 333.461 272.699 353.35 262.277 357.748C251.855 362.144 246.723 359.94 246.723 359.94C246.723 359.94 254.052 352.104 254.063 340.325C254.063 340.325 270.296 325.287 276.957 333.461Z" fill="#163560"/>
<path d="M275.434 335.251C275.434 335.251 281.334 338.673 283.227 342.571C285.122 346.469 286.953 354.801 289.365 354.149C289.365 354.149 292.779 340.553 285.723 334.199C278.24 327.46 275.434 335.251 275.434 335.251Z" fill="#163560"/>
<path d="M355.566 297.581C354.519 297.213 352.978 296.341 350.966 296.16C349.175 295.999 346.924 296.583 346.924 296.583C346.924 296.583 339.666 341.684 339.127 344.073C338.588 346.463 307.994 380.912 299.746 380.774C292.298 380.65 283.474 386.397 281.836 387.502C281.836 387.502 299.182 424.165 300.047 431.053C300.988 438.546 309.967 553.949 309.967 553.949C309.967 553.949 309.433 559.318 319.468 556.432C329.503 553.545 332.012 551.156 332.012 551.156C332.012 551.156 322.794 460.305 320.86 432.051C320.601 428.257 319.982 424.747 319.1 421.508C318.25 418.386 318.92 415.047 320.826 412.431C333.514 395.022 353.548 366.817 354.665 360.823C356.306 352.014 355.566 297.581 355.566 297.581Z" fill="#2B478B"/>
<path d="M250.072 776.706H206.751C206.751 776.706 205.712 770.106 207.975 765.099C210.143 760.294 213.518 757.328 213.825 753.647C216.578 756.48 219.965 758.303 226.228 757.461C226.996 758.704 231.182 765.36 233.745 767.2C236.576 769.234 249.2 768.51 250.072 776.706Z" fill="#233862"/>
<path d="M279.832 434.613C278.372 425.632 259.731 389.571 259.731 389.571C259.731 389.571 247.947 386.048 240.19 388.857C232.434 391.665 192.305 369.017 191.019 366.932C189.732 364.847 168.239 324.812 168.239 324.812C168.239 324.812 166.457 323.78 163.601 325.268C160.776 326.74 160.763 329.614 160.763 329.614C160.763 329.614 177.352 380.02 181.765 387.819C184.426 392.521 206.801 408.892 224.147 421.149C227.46 423.49 229.199 427.476 228.655 431.494C226.323 448.731 225.729 458.437 223.046 488.014C220.821 512.551 219.969 560.053 219.969 560.053C219.969 560.053 239.381 566.768 252.778 567.659C266.175 568.55 269.095 554.433 269.095 554.433C269.095 554.433 281.332 443.847 279.832 434.613Z" fill="#2B478B"/>
<path d="M275.998 369.176C275.998 369.176 279.123 371.01 282.813 370.458C285.342 370.078 285.916 367.081 285.916 367.081C285.916 367.081 284.159 366.528 281.354 367.091C278.55 367.653 275.998 369.176 275.998 369.176Z" fill="white"/>
<path d="M777.127 365.811C777.127 365.811 785.118 378.975 770.093 387.264C770.093 387.264 781.642 391.428 785.664 389.857C785.664 389.857 784.667 390.893 783.91 391.273C783.91 391.273 794.763 394.718 800.174 392.837C805.585 390.956 817.236 338.422 785.198 335.65C785.198 335.65 759.927 326.605 754.584 354.796C749.241 382.986 739.508 380.25 739.508 380.25C739.508 380.25 741.868 382.241 743.175 382.609C743.175 382.609 745.274 382.474 745.925 381.606C745.925 381.606 745.117 383.03 744.49 383.379C744.49 383.379 754.737 387.251 761.012 385.069C767.287 382.886 777.027 371.908 777.127 365.811Z" fill="#163560"/>
<path d="M744.964 780.545H785.837C785.837 780.545 786.817 774.318 784.682 769.594C782.637 765.061 779.453 762.262 779.163 758.789C776.566 761.462 773.369 763.182 767.46 762.388C766.737 763.56 762.787 769.84 760.368 771.577C757.697 773.496 745.786 772.812 744.964 780.545Z" fill="#233862"/>
<path d="M778.739 764.94C778.739 764.94 775.251 766.069 771.613 766.392C765.173 766.965 764.236 765.049 764.236 765.049C764.236 765.049 757.837 708.119 737.128 599.298C734.141 583.581 732.961 574.882 731.882 560.913C731.559 556.73 731.244 552.077 730.899 546.62C729.961 531.954 732.187 507.27 743.198 500.783C748.203 497.829 755.024 498.64 764.195 505.859C764.914 506.427 765.657 507.037 766.408 507.688C793.243 530.894 782.241 597.533 783.325 628.863C783.507 634.057 784.022 638.281 785.092 641.176C786.476 644.917 789.449 650.107 790.123 654.995C795.756 695.629 778.739 764.94 778.739 764.94Z" fill="#2B478B"/>
<path d="M783.324 628.862L731.882 560.913C731.558 556.73 731.244 552.077 730.898 546.62C729.96 531.954 732.187 507.27 743.198 500.783L764.194 505.859C764.913 506.428 765.656 507.037 766.407 507.688C793.242 530.893 782.24 597.532 783.324 628.862Z" fill="#233862"/>
<path d="M928.733 694.559L911.722 657.409C911.722 657.409 905.65 659.11 902.242 663.016C898.969 666.763 896.6 666.096 889.146 660.926C891.952 665.258 892.331 667.81 894.068 673.512C895.436 673.681 903.229 681.219 911.213 683.296C914.395 684.125 921.357 697.03 928.733 694.559Z" fill="#233862"/>
<path d="M750.377 517.088C750.377 517.088 787.003 644.361 800.423 652.555C813.843 660.747 884.401 672.014 898.744 678.159C898.744 678.159 900.489 675.655 899.465 670.307C899.238 669.119 897.213 664.845 897.213 664.845C897.213 664.845 853.397 631.92 824.557 628.597C817.401 627.772 839.129 518.522 790.767 514.158C746.588 510.173 750.377 517.088 750.377 517.088Z" fill="#2B478B"/>
<path d="M698.124 308.275C698.124 308.275 699.109 303.364 700.218 299.616C700.709 297.958 697.287 287.066 694.92 285.726C692.552 284.386 686.385 291.72 688.13 297.353C689.026 300.246 690.499 309.66 690.499 309.66L698.124 308.275Z" fill="#FFB27D"/>
<path d="M698.123 308.275C698.123 308.275 699.411 305.427 700.573 304.966C701.736 304.504 702.982 299.848 703.835 298.003C703.835 298.003 703.011 296.795 701.569 298.349C700.688 299.296 698.727 302.075 698.727 302.075L698.123 308.275Z" fill="#FFB27D"/>
<path d="M866.854 324.793C867.104 325.31 867.453 326.234 867.763 327.102C867.768 326.866 867.772 326.631 867.774 326.401C867.79 324.671 874.25 315.258 876.907 314.669C879.563 314.079 883.313 322.897 879.995 327.772C878.291 330.276 874.126 338.847 874.126 338.847L867.241 335.293C867.241 335.293 866.844 332.193 865.868 331.412C864.892 330.631 865.064 325.814 864.788 323.799C864.788 323.799 865.93 322.885 866.854 324.793Z" fill="#FFB27D"/>
<path d="M757.701 399.511C757.613 399.536 765.059 404.924 771.375 404.167C777.316 403.46 782.147 396.615 782.071 396.587C779.725 395.747 779.522 392.322 781.696 378.059L780.572 378.111L761.652 379.016C761.652 379.016 761.21 384.86 760.412 390.308C759.744 394.883 758.821 399.179 757.701 399.511Z" fill="#FFB27D"/>
<path d="M761.652 379.016C761.652 379.016 761.21 384.86 760.412 390.308C770.739 391.547 777.571 382.978 780.572 378.111L761.652 379.016Z" fill="#ED975D"/>
<path d="M782.767 376.393C782.767 376.393 789.424 368.683 791.8 361.596C793.497 356.537 793.716 336.882 773.939 336.777C773.939 336.777 768.233 336.495 762.415 339.278C757.789 341.491 750.81 346.716 755.093 364.533L756.009 370.473L782.767 376.393Z" fill="#163560"/>
<path d="M733.971 512.185C733.971 512.185 752.528 523.892 783.438 516.372C783.802 516.283 801.013 513.54 801.013 513.54C800.582 512.36 782.496 482.49 782.072 481.406C776.589 467.26 789.287 399.725 780.914 395.937C778.776 398.265 772.665 399.858 767.435 399.394C761.412 398.862 759.396 396.261 759.896 393.464C753.231 396.613 748.11 399.541 748.11 399.541C742.019 408.665 733.971 512.185 733.971 512.185Z" fill="#FFB27D"/>
<path d="M757.451 383.663C757.451 383.663 781.723 387.682 783.994 372.533C786.266 357.386 790.928 347.702 775.526 344.496C760.126 341.289 756.241 346.617 754.252 351.489C752.264 356.361 751.196 382.227 757.451 383.663Z" fill="#FFB27D"/>
<path d="M764.499 342.477C764.499 342.477 768.517 361.242 778.35 365.391C788.182 369.539 793.025 367.46 793.025 367.46C793.025 367.46 786.109 360.066 786.1 348.954C786.1 348.954 770.784 334.764 764.499 342.477Z" fill="#163560"/>
<path d="M765.936 344.166C765.936 344.166 760.37 347.394 758.583 351.072C756.796 354.75 755.069 362.611 752.793 361.996C752.793 361.996 749.572 349.169 756.229 343.173C763.289 336.815 765.936 344.166 765.936 344.166Z" fill="#163560"/>
<path d="M872.548 338.847C872.548 338.847 856.897 386.405 852.73 393.76C850.222 398.198 822.026 415.746 805.659 427.312C805.481 427.435 805.272 427.689 805.031 428.063C805.026 428.072 805.022 428.077 805.013 428.086C800.928 434.399 788.232 473.481 791.265 480.495C804.029 509.978 812.777 521.38 815.96 529.651C817.549 533.775 815.427 538.395 811.261 539.879C806.015 541.745 798.291 544.094 789.175 545.655C787.436 545.956 785.646 546.224 783.816 546.456C758.662 549.647 741.631 543.748 732.983 539.387C728.895 537.325 726.426 533.033 726.681 528.462C727.2 519.136 731.867 509.905 733.971 487.473C735.565 470.454 720.875 444.554 721.494 435.495C721.74 431.913 724.559 427.625 726.085 424.849C726.085 424.849 726.085 424.844 726.089 424.839C728.79 419.923 730.274 415.481 728.475 413.014C716.503 396.59 690.657 373.945 689.601 368.292C688.057 359.98 688.754 308.622 688.754 308.622C689.742 308.276 691.195 307.452 693.093 307.284C694.783 307.134 696.905 307.68 696.905 307.68C696.905 307.68 703.753 350.235 704.263 352.488C704.773 354.741 733.634 387.246 741.416 387.114C748.443 386.995 758.352 392.422 759.896 393.464C759.896 393.464 753.589 404.638 752.013 419.728C750.916 430.284 757.969 425.591 762.4 418.362C768.397 408.576 780.469 394.643 780.469 394.643C780.469 394.643 790.292 392.089 797.609 394.743C804.927 397.392 842.79 376.021 844.002 374.055C845.217 372.088 865.495 334.317 865.495 334.317C865.495 334.317 867.176 333.344 869.871 334.745C872.534 336.134 872.548 338.847 872.548 338.847Z" fill="#F99746"/>
<path d="M764.499 375.438C764.499 375.438 763.461 377.531 762.065 377.569C760.67 377.607 757.121 377.272 756.88 376.91C756.638 376.548 756.05 374.361 756.05 374.361C756.05 374.361 761.916 374.126 764.499 375.438Z" fill="white"/>
<path d="M811.261 539.879C806.015 541.745 798.292 544.094 789.176 545.655C780.497 533.693 765.808 518.644 769.588 490.965C773.495 462.352 801.635 432.237 805.014 428.086C800.929 434.399 788.234 473.481 791.266 480.495C804.03 509.978 812.778 521.38 815.961 529.651C817.549 533.775 815.427 538.395 811.261 539.879Z" fill="#ED7D2B"/>
<path d="M726.09 424.84C728.79 419.924 730.274 415.482 728.476 413.015C716.504 396.591 690.658 373.946 689.602 368.292C692.166 374.437 723.467 392.795 732.269 400.688C740.971 408.481 726.445 424.458 726.09 424.84Z" fill="#ED7D2B"/>
<path d="M200.668 198.364C200.668 198.364 206.534 206.396 205.905 215.558C205.438 222.359 199.374 229.239 198.966 229.511L208.537 234.614C208.537 234.614 215.636 222.017 213.243 211.493C212.51 208.267 209.116 203.108 206.623 200.809C203.876 198.276 200.668 198.364 200.668 198.364Z" fill="#6BB7BF"/>
<path d="M181.1 199.214L175.038 185.82C175.038 185.82 203.326 186.776 212.699 209.816C212.699 209.817 192.905 195.706 181.1 199.214Z" fill="#86D1CD"/>
<path d="M74.2473 539.976C74.2473 539.976 67.5044 534.886 65.7644 527.283C64.473 521.64 67.7127 514.557 67.9776 514.236L58.9427 512.437C58.9427 512.437 56.2668 524.422 60.7979 532.389C62.1866 534.832 66.213 538.193 68.8053 539.45C71.6606 540.836 74.2473 539.976 74.2473 539.976Z" fill="#6BB7BF"/>
<path d="M89.9465 534.481L98.1658 543.882C98.1658 543.882 74.9328 550.049 61.6516 533.619C61.6521 533.619 81.2115 540.231 89.9465 534.481Z" fill="#86D1CD"/>
<path d="M1108.22 583.749C1108.22 583.749 1107.63 574.917 1124.22 570.644C1131.65 568.728 1148.2 572.133 1137.71 588.412C1126.79 605.346 1117.06 599.233 1117.06 599.233C1117.06 599.233 1139.83 581.422 1130.72 573.277C1120.67 564.288 1116.8 582.1 1116.8 582.1C1116.8 582.1 1112.75 581.886 1108.22 583.749Z" fill="#F1A34F"/>
<path d="M1114.11 600.253C1114.11 600.253 1107.9 596.894 1110.36 589.444L1119.28 590.99C1119.28 590.99 1115.85 599.057 1124.24 600.033C1124.24 600.033 1116.16 601.949 1114.11 600.253Z" fill="#DB7714"/>
<path d="M532.409 126.537C532.409 126.537 541.676 113.195 555.89 122.643L564.546 114.369C564.546 114.369 556.459 108.231 537.805 119.238C525.6 126.44 532.409 126.537 532.409 126.537Z" fill="#5685D8"/>
<path d="M523.262 139.617C523.262 139.617 521.429 124.302 547.074 114.747C547.074 114.747 537.805 119.238 534.945 134.504L523.262 139.617Z" fill="#739AF0"/>
<path d="M626.299 58.3905C626.299 58.3905 633.878 53.6058 634.675 47.8238C634.675 47.8238 642.055 48.2226 643.65 50.6152C643.65 50.6152 640.26 60.185 636.271 61.9795C636.271 61.9791 627.296 62.5776 626.299 58.3905Z" fill="#F99746"/>
<path d="M382.401 604.325C382.401 604.325 374.316 599.22 373.465 593.052C373.465 593.052 365.593 593.478 363.89 596.03C363.89 596.03 367.508 606.239 371.763 608.154C371.763 608.153 381.337 608.791 382.401 604.325Z" fill="#F99746"/>
<path d="M714.276 209.141C714.276 209.141 722.397 204.014 723.252 197.818C723.252 197.818 731.159 198.246 732.869 200.809C732.869 200.809 729.236 211.063 724.962 212.986C724.962 212.986 715.345 213.627 714.276 209.141Z" fill="#86D1CD"/>
<path d="M872.324 444.19C872.324 444.19 867.629 438.495 865.104 437.695C862.58 436.895 857.694 433.115 857.056 434.674C856.419 436.232 860.34 438.634 860.133 440.414C859.927 442.195 847.667 445.053 847.742 446.938C847.818 448.822 850.626 453.376 855.303 452.853C859.978 452.33 871.838 449.517 874.274 450.732C876.709 451.948 872.324 444.19 872.324 444.19Z" fill="#FFB27D"/>
<path d="M998.763 416.486C991.842 425.782 983.736 433.124 975.409 438.911C948.94 457.318 920.229 460.06 920.229 460.06C913.348 457.858 892.211 455.559 879.721 453.547H879.715C874.271 452.672 870.472 451.849 870.215 451.119L870.529 440.243C870.529 440.243 916.374 437.82 923.965 434.301C935.935 423.991 946.512 410.606 953.403 400.148C959.223 391.315 965.738 384.792 976.479 380.964C992.011 375.429 1020.26 387.626 998.763 416.486Z" fill="#AEC3FF"/>
<path d="M977.746 432.069L975.409 438.911C948.941 457.317 920.229 460.059 920.229 460.059C914.702 460.059 892.211 455.558 879.721 453.546C880.215 453.588 913.729 456.206 921.135 455.44C928.597 454.668 963.336 424.573 963.336 424.573L977.746 432.069Z" fill="#9DB0F4"/>
<path d="M947.817 776.706H998.48C1002.11 774.245 997.501 750.188 997.501 750.188C997.501 750.188 983.674 744.943 981.285 755.608C978.89 766.265 963.673 769.654 955.62 770.955C950.109 771.851 948.368 774.877 947.817 776.706Z" fill="#233862"/>
<path d="M1022.95 776.706H1073.62C1077.25 774.245 1072.64 750.188 1072.64 750.188C1072.64 750.188 1058.81 744.943 1056.42 755.608C1054.03 766.265 1038.81 769.654 1030.76 770.955C1025.25 771.851 1023.51 774.877 1022.95 776.706Z" fill="#233862"/>
<path d="M961.448 531.28C961.448 531.28 963.725 559.68 966.401 593.818C970.039 640.192 979.85 755.171 979.85 755.171C979.85 755.171 986.283 760.657 1000.53 757.656C1000.53 757.656 1012.66 717.99 1016.28 672.718C1016.34 671.976 1016.4 671.229 1016.45 670.482C1019.83 624.394 1025.07 527.347 1025.07 527.347L961.448 531.28Z" fill="#2B478B"/>
<path d="M960.67 521.467C960.67 521.467 963.725 559.68 966.401 593.818L1016.29 672.717C1016.34 671.976 1016.4 671.228 1016.45 670.481C1019.83 624.394 1025.07 527.346 1025.07 527.346L960.67 521.467Z" fill="#233862"/>
<path d="M975.21 521.467C975.21 521.467 1011.39 611.489 1022.95 645.612C1031.19 669.919 1054.43 755.188 1054.43 755.188C1054.43 755.188 1064.53 758.262 1073.02 752.321C1073.02 752.321 1081.67 665.204 1064.21 640.64C1054.94 627.607 1061.9 505.165 1024.34 504.116C986.784 503.067 975.21 521.467 975.21 521.467Z" fill="#2B478B"/>
<path d="M991.37 388.76C996.893 391.668 1002.28 391.849 1006.96 390.857C1011.23 389.958 1014.9 388.072 1017.52 386.402C1020.2 384.688 1021.78 383.195 1021.78 383.195C1021.78 383.195 1021.59 382.925 1021.27 382.394C1019.64 379.604 1014.7 369.574 1016.9 353.459C1016.93 353.248 1015.33 353.548 1012.92 354.117C1005.74 355.817 991.306 359.909 990.667 360.09C990.653 360.09 990.642 360.09 990.642 360.09C990.642 360.09 990.466 363.479 989.871 369.555C989.822 370.09 989.768 370.651 989.709 371.23C989.635 371.942 989.561 372.699 989.473 373.475C988.805 379.791 991.37 388.76 991.37 388.76Z" fill="#FFB27D"/>
<path d="M989.872 369.555C1000.59 372.01 1016.58 356.195 1016.58 356.195C1015.41 355.325 1014.18 354.637 1012.92 354.117C1005.74 355.817 991.306 359.908 990.667 360.09C990.653 360.09 990.642 360.09 990.642 360.09C990.642 360.09 990.466 363.479 989.872 369.555Z" fill="#ED975D"/>
<path d="M986.231 359.233C986.231 359.233 990.637 360.814 996.255 361.569C1004.47 362.678 1015.27 362.024 1018.67 352.087C1024.39 335.362 1031.69 325.334 1014.86 318.504C1005.86 314.848 1000.1 314.654 996.185 316.05C992.786 317.253 990.781 319.659 989.264 322.039C985.997 327.159 979.426 356.305 986.231 359.233Z" fill="#FFB27D"/>
<path d="M976.023 323.36C985.764 330.358 999.238 323.478 1003.43 325.34C1007.61 327.199 1008.36 334.214 1008.44 336.44C1008.51 338.671 1008.81 340.551 1014.49 339.217C1015.42 338.999 1016.09 339.063 1016.55 339.34C1018.91 340.738 1015.9 347.513 1014.99 348.979C1014.99 348.979 1013.68 353.832 1016.58 356.195C1016.93 356.477 1022.63 358.968 1036.37 337.957C1038.52 334.66 1040.59 327.23 1037.25 320.077C1033.92 312.924 1020 306.009 1008.2 302.345C1003.78 300.971 1000.5 301.022 997.93 301.962C993.651 303.526 991.368 307.568 989.105 311.629C985.308 318.451 976.023 323.36 976.023 323.36Z" fill="#A9453D"/>
<path d="M1038.7 527.76C1038.7 527.76 1033.98 528.779 1028.02 529.787C1022.19 530.764 1015.16 531.727 1010.19 531.69C984.791 531.49 963.531 524.015 963.531 524.015C958.756 524.015 956.574 516.622 955.791 506.308C955.261 499.322 955.374 490.993 955.755 482.71C955.879 480.025 956.033 477.34 956.198 474.711C956.532 469.494 956.923 464.489 957.279 460.059C957.613 455.903 957.917 452.261 958.097 449.436C958.097 449.431 957.418 429.671 957.685 412.283C957.875 399.803 964.88 388.444 966.634 386.592C971.719 381.216 986.454 377.816 989.403 377.347C989.629 377.317 989.748 377.296 989.748 377.296C1001.86 384.097 1018.18 374.909 1018.18 374.909C1018.55 374.97 1018.91 375.058 1019.27 375.135C1020.47 374.877 1032.71 376.694 1035.56 378.247C1042.61 382.085 1046.7 424.671 1046.7 424.671C1047.87 453.597 1046.39 499.923 1048.68 517.604C1049.44 523.428 1043.8 526.582 1038.7 527.76Z" fill="#AEC3FF"/>
<path d="M1019.18 375.153C1019.18 375.153 1001.13 393.765 988.227 389.952C988.227 389.952 986.508 387.439 992.32 386.633C998.133 385.827 1004.41 386.157 1019.18 375.153Z" fill="#9DB0F4"/>
<path d="M986.103 348.435C986.103 348.435 985.751 350.6 990.787 352.328C990.787 352.328 995.015 353.779 995.787 351.559C995.787 351.559 992.428 348.362 986.103 348.435Z" fill="white"/>
<path d="M1029.08 445.563C1029.08 445.563 1002.87 489.393 987.992 497.11C977.936 502.326 963.855 505.073 955.79 506.308C955.26 499.322 955.373 490.993 955.754 482.711C966.408 481.419 982.635 479.361 982.635 479.361L1029.08 445.563Z" fill="#9DB0F4"/>
<path d="M994.55 423.541L980.576 473.96C980.576 473.96 964.133 474.999 956.197 474.711C956.531 469.494 956.541 469.32 956.896 464.891C956.897 464.891 975.774 455.054 994.55 423.541Z" fill="#9DB0F4"/>
<path d="M910.408 477.692C910.408 477.692 905.713 471.997 903.188 471.198C900.664 470.398 895.777 466.618 895.14 468.177C894.503 469.735 898.423 472.136 898.217 473.917C898.01 475.698 885.751 478.556 885.826 480.441C885.901 482.325 888.71 486.879 893.386 486.356C898.062 485.833 909.922 483.02 912.358 484.235C914.792 485.45 910.408 477.692 910.408 477.692Z" fill="#FFB27D"/>
<path d="M1048.16 407.742C1048.16 407.742 1048.98 434.446 988.091 488.025L975.862 466.131C973.61 464.821 1015.2 375.406 1027.15 376.119C1050.31 377.502 1048.16 407.742 1048.16 407.742Z" fill="#AEC3FF"/>
<path d="M983.144 463.52C983.144 463.52 913.897 471.435 911.334 472.81C908.77 474.185 903.268 479.541 905.102 486.258C905.102 486.258 940.948 490.762 960.671 490.679C977.684 490.607 988.688 487.88 988.688 487.88L983.144 463.52Z" fill="#AEC3FF"/>
</svg>
