<svg width="551" height="409" viewBox="0 0 551 409" fill="none" xmlns="http://www.w3.org/2000/svg">
<path d="M64.665 77C64.665 77 114.854 33.084 176.546 53.997C238.237 74.909 286.336 170.06 345.935 173.197C405.536 176.334 460.954 143.92 508.006 172.151C555.058 200.382 563.423 322.719 473.5 335.267C383.577 347.814 333.388 302.853 294.7 304.944C256.012 307.036 161.907 354.089 87.668 333.175C13.43 312.263 -53.49 167.968 64.665 77Z" fill="#E8F4FF"/>
<g opacity="0.46">
<path opacity="0.46" d="M400 84.178H185.458C183.203 84.178 181.555 82.047 182.124 79.865L202.152 2.915C202.548 1.397 203.918 0.337006 205.486 0.337006H420.028C422.284 0.337006 423.93 2.46801 423.363 4.65001L403.335 81.6C402.938 83.119 401.568 84.178 400 84.178Z" fill="#BFD9FF"/>
<g opacity="0.46">
<path opacity="0.46" d="M214.881 16.799H289.534" stroke="#A9C2FF" stroke-width="3.4455" stroke-miterlimit="10" stroke-linecap="round" stroke-linejoin="round"/>
<path opacity="0.46" d="M209.139 51.254H283.792" stroke="#A9C2FF" stroke-width="3.4455" stroke-miterlimit="10" stroke-linecap="round" stroke-linejoin="round"/>
<path opacity="0.46" d="M240.531 38.238H315.184" stroke="#A9C2FF" stroke-width="3.4455" stroke-miterlimit="10" stroke-linecap="round" stroke-linejoin="round"/>
<path opacity="0.46" d="M212.967 28.284H235.363" stroke="#A9C2FF" stroke-width="3.4455" stroke-miterlimit="10" stroke-linecap="round" stroke-linejoin="round"/>
<path opacity="0.46" d="M209.904 38.238H232.3" stroke="#A9C2FF" stroke-width="3.4455" stroke-miterlimit="10" stroke-linecap="round" stroke-linejoin="round"/>
<path opacity="0.46" d="M301.403 16.799H328.009" stroke="#A9C2FF" stroke-width="3.4455" stroke-miterlimit="10" stroke-linecap="round" stroke-linejoin="round"/>
<path opacity="0.46" d="M314.44 67.418H274.709C274.509 67.418 274.362 67.229 274.413 67.035L276.191 60.203C276.226 60.068 276.348 59.974 276.487 59.974H316.218C316.418 59.974 316.565 60.163 316.514 60.357L314.736 67.189C314.701 67.324 314.58 67.418 314.44 67.418Z" stroke="#84AEE5" stroke-width="1.1485" stroke-miterlimit="10"/>
<path opacity="0.46" d="M265.054 67.418H225.323C225.122 67.418 224.976 67.229 225.027 67.035L226.805 60.203C226.84 60.068 226.962 59.974 227.101 59.974H266.833C267.033 59.974 267.179 60.163 267.129 60.357L265.351 67.189C265.315 67.324 265.193 67.418 265.054 67.418Z" stroke="#84AEE5" stroke-width="1.1485" stroke-miterlimit="10"/>
</g>
<path opacity="0.46" d="M384.272 57.512C382.236 54.799 373.973 52.826 371.691 50.114C370.524 48.728 370.524 46.153 370.803 43.964C371.616 43.446 372.29 42.926 372.693 42.443C373.379 41.441 374.152 40.04 374.927 38.504C375.161 38.733 375.474 38.912 375.877 38.9C376.962 38.867 381.092 33.246 380.026 31.943C379.418 31.198 378.434 31.844 377.704 32.534C378.797 30.032 379.565 28.113 379.565 28.113H379.524C379.628 27.798 379.723 27.48 379.803 27.157C381.442 20.586 377.443 15.259 370.871 15.259C364.299 15.259 357.644 20.586 356.006 27.157C355.926 27.479 355.862 27.797 355.81 28.113H355.768C355.768 28.113 355.58 30.032 355.425 32.534C355.038 31.844 354.376 31.198 353.397 31.943C351.682 33.246 353.009 38.867 354.078 38.9C354.475 38.912 354.878 38.733 355.225 38.504C355.234 40.041 355.31 41.442 355.496 42.443C355.693 43.033 356.269 43.679 357.017 44.31C356.2 46.419 354.954 48.801 353.194 50.114C349.559 52.826 340.312 54.799 336.923 57.512C333.874 59.952 331.154 67.078 330.639 68.486H385.083C385.27 67.078 386.104 59.953 384.272 57.512Z" fill="#8DBCF8"/>
</g>
<path d="M362.672 145.432H148.131C145.876 145.432 144.229 143.302 144.797 141.119L164.825 64.169C165.22 62.651 166.591 61.591 168.159 61.591H382.701C384.956 61.591 386.603 63.722 386.035 65.904L366.008 142.854C365.612 144.372 364.241 145.432 362.672 145.432Z" stroke="#7094D8" stroke-width="1.1485" stroke-miterlimit="10"/>
<path d="M358.653 139.689H144.111C141.856 139.689 140.209 137.558 140.777 135.376L160.805 58.426C161.2 56.908 162.571 55.848 164.139 55.848H378.681C380.936 55.848 382.583 57.979 382.015 60.161L361.987 137.111C361.592 138.63 360.221 139.689 358.653 139.689Z" fill="#A5C5FF"/>
<path d="M211.436 139.689H318.822" stroke="#7094D8" stroke-width="1.1485" stroke-miterlimit="10"/>
<path d="M181.575 55.848H272.307" stroke="#7094D8" stroke-width="1.1485" stroke-miterlimit="10"/>
<path d="M341.333 128.204H293.095C290.875 128.204 289.524 126.404 290.078 124.184L302.248 75.372C302.801 73.152 305.05 71.352 307.269 71.352H355.506C357.727 71.352 359.077 73.152 358.524 75.372L346.354 124.184C345.8 126.404 343.552 128.204 341.333 128.204Z" fill="#B7DEFF"/>
<path d="M317.659 128.396L321.88 111.465L314.96 108.535C314.96 108.535 302.062 113.256 300.963 114.395C300.043 115.351 295.411 125.226 293.938 128.395H317.659V128.396Z" fill="#023F61"/>
<path d="M341.542 128.396C341.648 125.227 341.942 115.351 341.498 114.396C340.968 113.257 330.424 108.536 330.424 108.536L322.042 111.466L317.821 128.397H341.542V128.396Z" fill="#023F61"/>
<path d="M322.024 128.396L328.637 113.744L314.434 114.558L313.044 128.396H322.024Z" fill="#BEBECF"/>
<path d="M317.521 105.441L314.429 107.395L312.398 112.279L311.873 118.954L316.226 117.163L319.607 121.233L324.123 117.488L326.891 120.093L331.078 111.139L330.341 105.604L328.59 104.791L317.521 105.441Z" fill="#DEE0E8"/>
<path d="M318.472 92.625C318.472 92.625 317.433 90.265 315.303 91.835C313.173 93.405 315.666 99.47 317.208 97.645C318.751 95.82 318.472 92.625 318.472 92.625Z" fill="#FB8E74"/>
<path d="M333.651 92.5C333.651 92.5 335.675 89.998 337.203 91.4C338.731 92.802 333.709 99.212 332.884 97.497C332.059 95.782 333.651 92.5 333.651 92.5Z" fill="#FB8E74"/>
<path d="M328.906 110.169L331.085 98.611L318.474 99.704L315.69 110.558C315.69 110.558 317.895 115.696 320.257 117.975C320.256 117.977 327.59 111.641 328.906 110.169Z" fill="#FB8877"/>
<path d="M339.133 87.833C338.663 89.239 337.504 89.59 337.419 90.41C337.333 91.23 336.808 93.339 336.008 94.159C335.209 94.979 334.793 95.213 334.793 95.213C334.793 95.213 323.974 98.258 318.48 94.042C318.48 94.042 318.121 92.441 318.497 90.528C318.87 88.634 317.951 88.302 319.018 87.365C320.084 86.428 320.408 85.608 320.433 84.554C320.457 83.499 320.54 82.211 321.637 81.157C322.733 80.103 323.716 80.454 324.783 79.517C324.783 79.517 326.361 76.868 328.445 76.567C330.529 76.265 334.923 75.161 337.537 78.375C340.15 81.589 338.947 84.402 339.701 85.406C340.455 86.41 339.133 87.833 339.133 87.833Z" fill="#713336"/>
<path d="M318.386 90.635C318.386 90.635 313.282 104.698 322.897 105.752C331.393 105.949 334.41 95.581 335.626 90.264C336.843 84.947 336.091 79.38 329.29 79.562C322.489 79.744 319.135 87.485 318.386 90.635Z" fill="#FBA990"/>
<path d="M321.057 85.591C321.057 85.591 321.686 86.718 321.103 87.855C320.52 88.992 318.938 89.429 318.701 90.929C318.465 92.429 317.77 95.549 317.345 95.685C316.92 95.822 317.221 92.639 317.292 91.548C317.364 90.457 318.177 85.946 320.445 83.081C322.713 80.216 324.114 79.006 328.152 78.349C332.189 77.692 335.25 79.391 336.373 81.854C337.497 84.318 335.699 90.593 335.699 90.593C335.699 90.593 335.969 87.61 334.97 86.911C333.971 86.211 333.145 85.693 333.311 85.284C333.476 84.875 330.115 86.359 326.755 85.278C323.395 84.197 322.31 84.689 321.75 85.035C321.191 85.381 321.057 85.591 321.057 85.591Z" fill="#713336"/>
<path d="M311.543 112.442C311.461 112.767 306.85 123.756 306.85 123.756L310.901 125.791L309.763 128.07" stroke="#022755" stroke-width="0.4884" stroke-miterlimit="10"/>
<path d="M331.485 112.442C331.404 112.767 330.537 123.756 330.537 123.756L325.472 125.791L325.473 128.07" stroke="#022755" stroke-width="0.4884" stroke-miterlimit="10"/>
<path d="M341.333 128.204H293.095C290.875 128.204 289.524 126.404 290.078 124.184L302.248 75.372C302.801 73.152 305.05 71.352 307.269 71.352H355.506C357.727 71.352 359.077 73.152 358.524 75.372L346.354 124.184C345.8 126.404 343.552 128.204 341.333 128.204Z" stroke="white" stroke-width="1.1485" stroke-miterlimit="10"/>
<path d="M173.535 74.224H248.188" stroke="#73A5FF" stroke-width="3.4455" stroke-miterlimit="10" stroke-linecap="round" stroke-linejoin="round"/>
<path d="M167.792 108.68H242.446" stroke="#73A5FF" stroke-width="3.4455" stroke-miterlimit="10" stroke-linecap="round" stroke-linejoin="round"/>
<path d="M199.185 95.663H273.838" stroke="#73A5FF" stroke-width="3.4455" stroke-miterlimit="10" stroke-linecap="round" stroke-linejoin="round"/>
<path d="M171.621 85.709H194.017" stroke="#73A5FF" stroke-width="3.4455" stroke-miterlimit="10" stroke-linecap="round" stroke-linejoin="round"/>
<path d="M168.558 95.663H190.954" stroke="#73A5FF" stroke-width="3.4455" stroke-miterlimit="10" stroke-linecap="round" stroke-linejoin="round"/>
<path d="M260.056 74.224H286.663" stroke="#73A5FF" stroke-width="3.4455" stroke-miterlimit="10" stroke-linecap="round" stroke-linejoin="round"/>
<path d="M273.094 124.844H233.362C233.162 124.844 233.016 124.655 233.066 124.461L234.844 117.628C234.879 117.493 235.001 117.399 235.14 117.399H274.872C275.072 117.399 275.218 117.588 275.168 117.782L273.39 124.614C273.354 124.75 273.233 124.844 273.094 124.844Z" stroke="#7094D8" stroke-width="1.1485" stroke-miterlimit="10"/>
<path d="M223.708 124.844H183.976C183.776 124.844 183.63 124.655 183.68 124.461L185.458 117.628C185.493 117.493 185.615 117.399 185.754 117.399H225.485C225.686 117.399 225.832 117.588 225.781 117.782L224.003 124.614C223.969 124.75 223.847 124.844 223.708 124.844Z" stroke="#7094D8" stroke-width="1.1485" stroke-miterlimit="10"/>
<path d="M269.436 47.234H315.95" stroke="#7094D8" stroke-width="1.1485" stroke-miterlimit="10"/>
<path d="M360.95 249.563H146.408C144.153 249.563 142.505 247.432 143.074 245.25L163.102 168.3C163.498 166.782 164.868 165.722 166.436 165.722H380.978C383.233 165.722 384.88 167.853 384.312 170.035L364.284 246.985C363.889 248.503 362.518 249.563 360.95 249.563Z" fill="#BFD9FF"/>
<path d="M175.832 182.184H250.485" stroke="#A9C2FF" stroke-width="3.4455" stroke-miterlimit="10" stroke-linecap="round" stroke-linejoin="round"/>
<path d="M170.089 216.639H244.743" stroke="#A9C2FF" stroke-width="3.4455" stroke-miterlimit="10" stroke-linecap="round" stroke-linejoin="round"/>
<path d="M201.482 203.623H276.135" stroke="#A9C2FF" stroke-width="3.4455" stroke-miterlimit="10" stroke-linecap="round" stroke-linejoin="round"/>
<path d="M173.918 193.669H196.314" stroke="#A9C2FF" stroke-width="3.4455" stroke-miterlimit="10" stroke-linecap="round" stroke-linejoin="round"/>
<path d="M170.855 203.623H193.251" stroke="#A9C2FF" stroke-width="3.4455" stroke-miterlimit="10" stroke-linecap="round" stroke-linejoin="round"/>
<path d="M262.353 182.184H288.96" stroke="#A9C2FF" stroke-width="3.4455" stroke-miterlimit="10" stroke-linecap="round" stroke-linejoin="round"/>
<path d="M275.391 232.803H235.66C235.46 232.803 235.313 232.615 235.364 232.42L237.142 225.588C237.177 225.453 237.299 225.359 237.438 225.359H277.169C277.369 225.359 277.516 225.547 277.465 225.742L275.687 232.574C275.652 232.709 275.53 232.803 275.391 232.803Z" stroke="#84AEE5" stroke-width="1.1485" stroke-miterlimit="10"/>
<path d="M226.005 232.803H186.274C186.073 232.803 185.927 232.615 185.978 232.42L187.756 225.588C187.791 225.453 187.913 225.359 188.052 225.359H227.784C227.984 225.359 228.13 225.547 228.08 225.742L226.302 232.574C226.266 232.709 226.144 232.803 226.005 232.803Z" stroke="#84AEE5" stroke-width="1.1485" stroke-miterlimit="10"/>
<path d="M345.223 222.898C343.187 220.185 334.924 218.212 332.641 215.5C331.475 214.114 331.475 211.539 331.753 209.351C332.566 208.832 333.241 208.313 333.643 207.83C334.329 206.828 335.103 205.428 335.878 203.891C336.111 204.12 336.424 204.299 336.828 204.287C337.912 204.254 342.042 198.633 340.977 197.33C340.369 196.585 339.385 197.231 338.654 197.922C339.747 195.419 340.516 193.5 340.516 193.5H340.474C340.578 193.185 340.673 192.867 340.753 192.544C342.392 185.973 338.393 180.646 331.821 180.646C325.249 180.646 318.594 185.973 316.956 192.544C316.876 192.866 316.813 193.184 316.76 193.5H316.718C316.718 193.5 316.53 195.419 316.375 197.922C315.988 197.232 315.327 196.586 314.347 197.33C312.633 198.633 313.96 204.254 315.028 204.287C315.426 204.299 315.828 204.12 316.176 203.891C316.185 205.428 316.26 206.829 316.446 207.83C316.643 208.421 317.219 209.066 317.968 209.697C317.15 211.805 315.905 214.187 314.145 215.501C310.509 218.214 301.263 220.187 297.874 222.899C294.825 225.338 292.105 232.464 291.59 233.873H346.033C346.221 232.463 347.054 225.337 345.223 222.898Z" fill="#8DBCF8"/>
<g opacity="0.46">
<path opacity="0.46" d="M338.746 352.164H124.204C121.949 352.164 120.302 350.033 120.87 347.851L140.898 270.901C141.293 269.383 142.664 268.324 144.232 268.324H358.774C361.03 268.324 362.677 270.455 362.109 272.637L342.081 349.586C341.684 351.104 340.314 352.164 338.746 352.164Z" fill="#BFD9FF"/>
<g opacity="0.46">
<path opacity="0.46" d="M153.627 284.785H228.281" stroke="#A9C2FF" stroke-width="3.4455" stroke-miterlimit="10" stroke-linecap="round" stroke-linejoin="round"/>
<path opacity="0.46" d="M147.885 319.24H222.538" stroke="#A9C2FF" stroke-width="3.4455" stroke-miterlimit="10" stroke-linecap="round" stroke-linejoin="round"/>
<path opacity="0.46" d="M179.277 306.223H253.931" stroke="#A9C2FF" stroke-width="3.4455" stroke-miterlimit="10" stroke-linecap="round" stroke-linejoin="round"/>
<path opacity="0.46" d="M151.713 296.269H174.109" stroke="#A9C2FF" stroke-width="3.4455" stroke-miterlimit="10" stroke-linecap="round" stroke-linejoin="round"/>
<path opacity="0.46" d="M148.651 306.223H171.046" stroke="#A9C2FF" stroke-width="3.4455" stroke-miterlimit="10" stroke-linecap="round" stroke-linejoin="round"/>
<path opacity="0.46" d="M240.148 284.785H266.756" stroke="#A9C2FF" stroke-width="3.4455" stroke-miterlimit="10" stroke-linecap="round" stroke-linejoin="round"/>
<path opacity="0.46" d="M253.186 335.404H213.455C213.255 335.404 213.108 335.215 213.159 335.021L214.937 328.189C214.972 328.054 215.094 327.96 215.233 327.96H254.964C255.164 327.96 255.311 328.149 255.26 328.343L253.482 335.176C253.447 335.31 253.326 335.404 253.186 335.404Z" stroke="#84AEE5" stroke-width="1.1485" stroke-miterlimit="10"/>
<path opacity="0.46" d="M203.8 335.404H164.069C163.869 335.404 163.722 335.215 163.773 335.021L165.551 328.189C165.586 328.054 165.708 327.96 165.847 327.96H205.578C205.778 327.96 205.925 328.149 205.874 328.343L204.096 335.176C204.062 335.31 203.939 335.404 203.8 335.404Z" stroke="#84AEE5" stroke-width="1.1485" stroke-miterlimit="10"/>
</g>
<path opacity="0.46" d="M323.018 325.498C320.982 322.785 312.719 320.812 310.437 318.101C309.27 316.715 309.271 314.14 309.549 311.951C310.362 311.432 311.036 310.913 311.439 310.43C312.125 309.428 312.899 308.027 313.673 306.49C313.907 306.719 314.22 306.898 314.623 306.886C315.708 306.854 319.838 301.233 318.773 299.93C318.164 299.185 317.18 299.831 316.45 300.521C317.543 298.019 318.311 296.1 318.311 296.1H318.27C318.374 295.785 318.469 295.466 318.549 295.144C320.188 288.573 316.189 283.246 309.617 283.246C303.045 283.246 296.39 288.573 294.752 295.144C294.672 295.466 294.608 295.785 294.556 296.1H294.514C294.514 296.1 294.326 298.019 294.171 300.521C293.784 299.832 293.123 299.185 292.143 299.93C290.428 301.233 291.755 306.854 292.824 306.886C293.221 306.898 293.624 306.719 293.971 306.49C293.98 308.027 294.056 309.428 294.242 310.43C294.439 311.02 295.015 311.665 295.763 312.296C294.946 314.405 293.7 316.787 291.94 318.101C288.305 320.813 279.059 322.786 275.669 325.498C272.621 327.938 269.901 335.064 269.385 336.472H323.829C324.016 335.064 324.85 327.938 323.018 325.498Z" fill="#8DBCF8"/>
</g>
<path d="M295.851 352.546H334.135" stroke="#7094D8" stroke-width="1.1485" stroke-miterlimit="10"/>
<path d="M165.687 249.946H256.802" stroke="#7094D8" stroke-width="1.1485" stroke-miterlimit="10"/>
<path d="M277.667 249.946H299.871" stroke="#7094D8" stroke-width="1.1485" stroke-miterlimit="10"/>
<path d="M373.567 166.105H381.263C383.527 166.105 385.144 168.295 384.478 170.458L381.224 181.036" stroke="#7094D8" stroke-width="1.1485" stroke-miterlimit="10"/>
<path d="M129.81 30.802H125.884C124.898 30.802 124.299 30.003 124.544 29.018L125.523 25.092C125.769 24.106 126.767 23.307 127.752 23.307H131.678C132.663 23.307 133.263 24.106 133.017 25.092L132.038 29.018C131.794 30.003 130.796 30.802 129.81 30.802Z" fill="#BFD9FF"/>
<path d="M126.94 42.313H123.014C122.029 42.313 121.429 41.514 121.674 40.528L122.653 36.602C122.899 35.616 123.897 34.817 124.882 34.817H128.808C129.794 34.817 130.393 35.616 130.148 36.602L129.169 40.528C128.924 41.514 127.926 42.313 126.94 42.313Z" fill="#EDF4FF"/>
<path d="M139.433 42.313H135.507C134.522 42.313 133.922 41.514 134.168 40.528L135.147 36.602C135.393 35.616 136.391 34.817 137.376 34.817H141.302C142.287 34.817 142.887 35.616 142.641 36.602L141.662 40.528C141.417 41.514 140.418 42.313 139.433 42.313Z" fill="#BFD9FF"/>
<path d="M151.925 42.313H147.999C147.013 42.313 146.414 41.514 146.659 40.528L147.638 36.602C147.884 35.616 148.882 34.817 149.867 34.817H153.793C154.779 34.817 155.378 35.616 155.133 36.602L154.154 40.528C153.909 41.514 152.911 42.313 151.925 42.313Z" fill="#EDF4FF"/>
<path d="M124.003 54.092H120.077C119.091 54.092 118.492 53.293 118.737 52.307L119.716 48.381C119.962 47.396 120.96 46.596 121.945 46.596H125.871C126.856 46.596 127.456 47.395 127.21 48.381L126.231 52.307C125.987 53.293 124.989 54.092 124.003 54.092Z" fill="#EDF4FF"/>
<path d="M120.867 66.673H116.941C115.956 66.673 115.356 65.874 115.602 64.888L116.581 60.962C116.827 59.976 117.825 59.177 118.81 59.177H122.736C123.722 59.177 124.321 59.976 124.076 60.962L123.097 64.888C122.851 65.875 121.852 66.673 120.867 66.673Z" fill="#EDF4FF"/>
<path d="M136.496 54.092H132.57C131.584 54.092 130.985 53.293 131.23 52.307L132.209 48.381C132.455 47.396 133.453 46.596 134.438 46.596H138.364C139.35 46.596 139.949 47.395 139.704 48.381L138.725 52.307C138.48 53.293 137.481 54.092 136.496 54.092Z" fill="#EDF4FF"/>
<path d="M131.023 76.043H127.097C126.112 76.043 125.512 75.244 125.758 74.258L126.737 70.332C126.983 69.346 127.981 68.547 128.967 68.547H132.893C133.878 68.547 134.478 69.346 134.232 70.332L133.253 74.258C133.007 75.244 132.009 76.043 131.023 76.043Z" fill="#BFD9FF"/>
<path d="M192.783 7.94598V7.94498C192.763 7.94398 192.743 7.94298 192.724 7.94198C192.664 7.93798 192.606 7.92998 192.545 7.92698L192.544 7.93198C192.14 7.90698 191.732 7.88898 191.315 7.88898C179.674 7.88898 167.891 17.222 164.79 28.813L164.652 29.368H164.647C164.633 29.426 164.623 29.483 164.609 29.541L164.521 29.895H164.533C161.978 41.644 169.516 50.995 181.585 50.506C192.59 50.061 203.689 41.277 206.991 30.391C210.573 18.583 204.053 8.73398 192.783 7.94598ZM200.812 29.989C198.489 37.728 190.556 43.976 182.749 44.224C174.355 44.49 169.118 37.976 170.849 29.784L171.091 28.811H171.082C173.315 20.695 181.581 14.178 189.748 14.178C190.171 14.178 190.583 14.2 190.989 14.235C198.79 14.894 203.281 21.762 200.812 29.989Z" fill="#EBEDFC"/>
<path d="M191.636 11.573C191.275 13.02 191.95 14.276 193.268 14.625C199.633 16.309 203.029 22.601 200.811 29.989C198.488 37.728 190.556 43.976 182.748 44.224C175.092 44.467 170.058 39.071 170.545 31.904C170.646 30.425 169.596 29.365 168.093 29.365C166.145 29.365 164.204 31.122 164.073 33.04C163.381 43.265 170.614 50.948 181.584 50.504C192.589 50.059 203.688 41.275 206.99 30.389C210.178 19.88 205.365 10.919 196.322 8.51998C194.453 8.02398 192.148 9.51998 191.636 11.573Z" fill="#A5C5FF"/>
<path d="M245.807 5.79799V5.79699C245.788 5.79599 245.769 5.79499 245.751 5.79399C245.677 5.78899 245.602 5.78599 245.528 5.78099C245.137 5.75799 244.743 5.73999 244.34 5.73999C232.567 5.73999 220.643 15.284 217.707 27.058C214.771 38.831 221.936 48.375 233.709 48.375C234.111 48.375 234.513 48.358 234.915 48.334C234.991 48.33 235.066 48.327 235.143 48.322C235.164 48.321 235.185 48.32 235.206 48.319V48.317C246.415 47.559 257.406 38.433 260.291 27.243C260.307 27.181 260.327 27.12 260.342 27.058C263.154 15.782 256.698 6.55999 245.807 5.79799ZM236.336 42.042C236.316 42.043 236.297 42.045 236.277 42.046C236.029 42.062 235.781 42.072 235.533 42.076C235.448 42.077 235.363 42.083 235.277 42.083C226.978 42.083 221.928 35.355 223.997 27.056C226.066 18.757 234.471 12.029 242.77 12.029C242.855 12.029 242.937 12.034 243.022 12.035C243.27 12.039 243.513 12.05 243.754 12.066C243.775 12.067 243.796 12.069 243.816 12.071C251.486 12.614 256.03 19.113 254.049 27.056C254.034 27.118 254.014 27.179 253.998 27.241C251.945 35.104 244.218 41.508 236.336 42.042Z" fill="white"/>
<path d="M253.085 29.867C250.442 35.893 244.52 40.645 238.211 41.807C236.636 42.097 235.21 43.375 234.828 44.906C234.334 46.887 235.773 48.364 237.811 47.994C246.803 46.361 255.252 39.582 258.997 30.986C259.844 29.043 258.817 27.242 256.84 27.242C255.305 27.242 253.747 28.357 253.085 29.867Z" fill="#BFD9FF"/>
<path d="M189.252 80.817H149.521C149.321 80.817 149.174 80.628 149.225 80.434L151.003 73.602C151.038 73.467 151.16 73.373 151.299 73.373H191.03C191.23 73.373 191.377 73.562 191.326 73.756L189.548 80.589C189.514 80.724 189.392 80.817 189.252 80.817Z" fill="#EDF4FF"/>
<path d="M380.871 100.832C378.442 110.574 368.575 118.472 358.833 118.472C349.09 118.472 343.161 110.574 345.591 100.832C348.02 91.089 357.887 83.191 367.629 83.191C377.372 83.191 383.3 91.089 380.871 100.832Z" fill="#73A5FF"/>
<path d="M389.306 119.782C388.641 122.449 385.941 124.61 383.274 124.61C380.608 124.61 378.985 122.448 379.65 119.782C380.315 117.116 383.015 114.954 385.681 114.954C388.348 114.954 389.97 117.116 389.306 119.782Z" fill="#73A5FF"/>
<path d="M358.682 109.796C358.126 109.796 357.624 109.584 357.307 109.16L352.747 103.087C352.111 102.24 352.454 100.867 353.512 100.02C354.571 99.173 355.944 99.173 356.579 100.02L359.986 104.559L372.161 94.814C373.22 93.967 374.592 93.967 375.228 94.814C375.864 95.661 375.521 97.034 374.463 97.881L360.372 109.159C359.844 109.584 359.237 109.796 358.682 109.796Z" fill="white"/>
<path d="M475.21 408.44C516.757 408.44 550.437 405.612 550.437 402.124C550.437 398.636 516.757 395.808 475.21 395.808C433.663 395.808 399.983 398.636 399.983 402.124C399.983 405.612 433.663 408.44 475.21 408.44Z" fill="#BFD9FF"/>
<path d="M478.082 65.802C478.082 65.802 476.168 69.631 475.019 78.053C473.87 86.475 476.933 135.095 476.933 135.095L509.857 131.65L494.926 68.099L478.082 65.802Z" fill="#024470"/>
<path d="M458.557 271.194L447.072 328.045L469.468 328.619C469.468 328.619 475.211 278.085 472.913 278.085C470.616 278.084 458.557 271.194 458.557 271.194Z" fill="#45242C"/>
<path d="M510.623 393.893C510.623 393.893 502.2 402.698 498.755 404.612C499.521 406.143 511.772 406.143 516.365 403.846C520.958 401.549 524.405 396.19 524.405 396.19L524.022 401.932H526.319C526.319 401.932 528.616 393.893 528.616 391.978C528.616 390.064 526.319 387.384 526.319 387.384L510.623 393.893Z" fill="#713336"/>
<path d="M507.177 280.573L515.599 383.939L525.553 383.173C525.553 383.173 537.038 307.371 532.444 281.338C527.85 255.306 507.177 280.573 507.177 280.573Z" fill="#FF8D68"/>
<path d="M515.599 383.939C515.599 383.939 512.536 391.978 508.326 395.807C504.114 399.635 514.834 399.635 519.428 395.807C524.023 391.978 524.406 389.681 525.937 388.915C527.468 388.149 525.554 383.173 525.554 383.173L515.599 383.939Z" fill="#FF8D68"/>
<path d="M441.495 392.158C441.495 392.158 431.709 399.417 427.989 400.723C428.486 402.362 440.561 404.426 445.477 402.936C450.392 401.447 454.692 396.745 454.692 396.745L453.346 402.341L455.611 402.728C455.611 402.728 459.23 395.191 459.553 393.304C459.875 391.417 458.063 388.389 458.063 388.389L441.495 392.158Z" fill="#713336"/>
<path d="M457.199 279.878L448.078 383.185L458.018 384.108C458.018 384.108 482.116 311.327 481.975 284.892C481.835 258.458 457.199 279.878 457.199 279.878Z" fill="#FF8D68"/>
<path d="M448.078 383.185C448.078 383.185 443.704 390.593 438.908 393.657C434.111 396.72 444.678 398.528 449.851 395.528C455.025 392.529 455.789 390.33 457.427 389.833C459.066 389.337 458.018 384.108 458.018 384.108L448.078 383.185Z" fill="#FF8D68"/>
<path d="M421.926 115.644L402.135 111.746C402.135 111.746 401.834 114.445 403.634 115.044C405.433 115.644 405.433 115.644 405.433 115.644C405.433 115.644 409.931 126.439 412.031 127.639C414.13 128.838 426.729 134.037 426.729 134.037L430.023 121.342L421.926 115.644Z" fill="#FF7759"/>
<path d="M436.161 131.65C436.161 131.65 435.97 130.31 433.321 124.94C430.385 118.987 429.723 116.544 429.723 116.544C429.723 116.544 420.427 112.945 418.927 111.146C417.428 109.347 416.529 109.047 416.529 109.047C416.529 109.047 414.729 112.346 417.428 114.745C420.127 117.144 422.526 118.943 422.526 118.943C422.526 118.943 422.226 125.84 423.126 129.138C424.025 132.437 426.73 134.037 426.73 134.037L436.161 131.65Z" fill="#FF8D68"/>
<path d="M466.979 142.752C466.979 142.752 453.58 164.191 453.197 162.277C452.814 160.362 435.969 130.884 435.969 130.884L426.729 134.037C426.729 134.037 440.563 177.207 449.369 184.098C449.369 184.098 450.135 185.247 452.814 184.864C455.494 184.481 476.168 163.043 476.168 163.043L466.979 142.752Z" fill="#FF8D68"/>
<path d="M479.517 117.293C479.517 117.293 472.338 120.164 468.893 125.141C465.448 130.118 455.494 152.705 455.494 152.705C455.494 152.705 460.854 162.276 473.104 165.722L489.95 134.712L479.517 117.293Z" fill="#F1A34F"/>
<path d="M470.616 190.798C470.616 190.798 471.19 199.986 471.19 203.431C471.19 203.431 457.408 270.045 456.834 285.55C456.26 301.055 467.745 332.639 467.745 332.639C467.745 332.639 517.131 331.491 533.21 328.044L534.933 294.737C534.933 294.737 537.231 236.738 534.933 220.084C532.636 203.431 522.874 194.817 522.874 194.817L520.003 186.777L470.616 190.798Z" fill="#713336"/>
<path d="M512.824 113.273C512.824 113.273 525.745 119.303 529.764 125.62C533.783 131.937 545.843 166.105 545.843 166.105C545.843 166.105 532.348 170.986 520.576 170.986C520.576 170.986 521.724 181.897 522.873 185.342C524.021 188.787 520.002 190.223 520.002 190.223C520.002 190.223 491.863 197.975 470.902 193.382C470.902 193.382 468.318 192.808 468.318 191.659C468.318 190.511 468.605 187.639 468.605 187.639C468.605 187.639 466.595 168.114 466.021 164.669C465.447 161.224 459.13 151.844 459.705 148.111C460.279 144.378 470.041 127.055 470.041 127.055C470.041 127.055 476.645 119.303 479.517 117.293C482.389 115.283 489.567 115.283 489.567 115.283L512.824 113.273Z" fill="#F1A34F"/>
<path d="M488.337 102.941C488.348 103.39 489.986 113.136 484.588 120.033C479.191 127.08 500.482 126.78 505.429 119.583C509.928 113.136 509.478 112.086 509.478 112.086C509.478 112.086 505.879 100.391 506.929 92.745C506.629 85.848 488.038 90.046 488.337 102.941Z" fill="#FF8D68"/>
<path d="M488.202 62.263C488.202 62.263 481.994 63.851 478.477 73.383C474.961 82.914 477.305 103.168 479.65 105.55C481.994 107.933 489.115 107.022 498.989 103.763C509.423 100.32 512.948 89.472 514.813 82.318C518.383 68.617 506.469 54.519 488.202 62.263Z" fill="#FF8D68"/>
<path d="M476.167 73.076C476.167 73.076 481.909 86.858 503.73 87.624L508.803 111.982C508.803 111.982 518.093 116.445 521.724 118.442C521.724 118.442 525.935 74.224 515.981 63.505C506.027 52.786 488.417 55.465 481.526 61.591C474.635 67.716 476.167 73.076 476.167 73.076Z" fill="#024470"/>
<path d="M512.824 113.273L507.943 108.679C507.943 108.679 503.635 121.025 488.418 121.887C488.418 121.887 486.408 118.729 487.557 114.135L484.973 116.145C484.973 116.145 479.518 123.897 480.092 126.194C480.666 128.491 487.94 124.471 487.94 124.471C487.94 124.471 496.554 129.639 500 129.926C503.446 130.213 512.25 114.135 512.824 113.273Z" fill="white"/>
<path d="M504.071 87.268C504.071 87.268 506.373 83.472 508.675 84.87C510.977 86.269 507.209 94.861 504.071 95.061C500.931 95.261 502.605 89.466 504.071 87.268Z" fill="#FF7759"/>
<path d="M509.474 138.158L518.279 169.551" stroke="#E2915A" stroke-width="1.1485" stroke-miterlimit="10"/>
<path d="M504.018 139.977C504.018 139.977 506.028 146.006 512.632 150.026" stroke="#E2915A" stroke-width="1.1485" stroke-miterlimit="10"/>
<path d="M514.068 132.511C514.068 132.511 515.216 124.471 524.405 123.897" stroke="#E2915A" stroke-width="1.1485" stroke-miterlimit="10"/>
<path d="M468.989 129.065C468.989 129.065 459.61 144.474 459.706 148.111C459.802 151.748 465.831 162.085 465.831 162.085L473.296 181.609" stroke="#E2915A" stroke-width="1.1485" stroke-miterlimit="10"/>
<path d="M501.434 193.095L511.484 181.61" stroke="#E2915A" stroke-width="1.1485" stroke-miterlimit="10"/>
<path d="M417.21 119.016L405.433 115.644C405.433 115.644 406.491 118.25 407.256 119.016C408.021 119.782 416.253 122.653 416.253 122.653" stroke="#E66657" stroke-width="1.026" stroke-miterlimit="10"/>
<path d="M407.256 119.016C407.256 119.016 408.404 122.461 408.979 123.036C409.553 123.61 416.828 125.716 416.828 125.716" stroke="#E66657" stroke-width="1.026" stroke-miterlimit="10"/>
<path d="M418.933 116.145L422.526 118.943L425.25 118.25" stroke="#E66657" stroke-width="1.026" stroke-miterlimit="10"/>
<path d="M489.567 106.191C489.567 106.191 496.84 104.66 500.669 97.769" stroke="#E66657" stroke-width="1.026" stroke-miterlimit="10"/>
<path d="M483.25 89.346L481.91 96.62L484.398 97.194" stroke="#E66657" stroke-width="1.026" stroke-miterlimit="10"/>
<path d="M482.867 100.449C482.867 100.449 486.504 101.215 490.333 99.109" stroke="#E66657" stroke-width="1.026" stroke-miterlimit="10"/>
<path d="M492.916 96.621C494.872 96.621 496.458 95.0352 496.458 93.079C496.458 91.1228 494.872 89.537 492.916 89.537C490.96 89.537 489.374 91.1228 489.374 93.079C489.374 95.0352 490.96 96.621 492.916 96.621Z" fill="#FA6157"/>
<path d="M488.705 89.155C489.181 89.155 489.567 88.7691 489.567 88.293C489.567 87.8169 489.181 87.431 488.705 87.431C488.229 87.431 487.843 87.8169 487.843 88.293C487.843 88.7691 488.229 89.155 488.705 89.155Z" fill="#024470"/>
<path d="M479.421 89.154C479.897 89.154 480.282 88.7685 480.282 88.293C480.282 87.8175 479.897 87.432 479.421 87.432C478.946 87.432 478.56 87.8175 478.56 88.293C478.56 88.7685 478.946 89.154 479.421 89.154Z" fill="#024470"/>
<path d="M474.158 201.421C474.158 201.421 489.95 206.303 504.88 199.985" stroke="#562525" stroke-width="1.1485" stroke-miterlimit="10"/>
<path d="M478.847 207.069C478.847 207.069 486.886 209.749 499.903 204.771" stroke="#562525" stroke-width="1.1485" stroke-miterlimit="10"/>
<path d="M475.386 202.969L445.05 220.484L468.307 260.766L498.643 243.251L475.386 202.969Z" fill="white"/>
<path d="M504.114 218.553C504.114 218.553 499.329 223.818 497.893 224.966C496.457 226.114 486.695 226.976 486.695 226.976C486.695 226.976 482.388 234.154 481.24 233.867C480.092 233.58 480.379 232.719 480.379 232.719C480.379 232.719 480.092 219.798 480.953 218.363C481.814 216.928 495.884 212.908 495.884 212.908L497.607 210.898L504.114 218.553Z" fill="#FF8D68"/>
<path d="M541.632 167.445C542.015 168.593 545.077 177.59 546.609 182.184C548.141 186.778 513.685 210.897 508.326 215.108L504.114 218.553L497.606 210.897L527.85 180.653L523.448 170.699L541.632 167.445Z" fill="#FF8D68"/>
<path d="M481.24 233.867L483.058 225.828" stroke="#E66657" stroke-width="1.026" stroke-miterlimit="10"/>
<path d="M480.187 226.593L482.292 222" stroke="#E66657" stroke-width="1.026" stroke-miterlimit="10"/>
<path d="M480.953 218.362L480.187 233.867H482.675L486.695 226.976" stroke="#E66657" stroke-width="1.026" stroke-miterlimit="10"/>
<path d="M90.842 408.44C132.389 408.44 166.07 405.612 166.07 402.124C166.07 398.636 132.389 395.808 90.842 395.808C49.2947 395.808 15.614 398.636 15.614 402.124C15.614 405.612 49.2947 408.44 90.842 408.44Z" fill="#BFD9FF"/>
<path d="M60.557 381.802C60.557 381.802 62.153 378.382 68.081 379.294C74.009 380.206 74.693 381.346 75.377 384.31C76.061 387.274 78.113 390.466 79.481 391.15C80.849 391.835 85.865 395.254 89.969 395.938C94.073 396.622 94.529 399.129 93.617 400.27C92.705 401.41 77.201 402.322 73.782 401.866C73.782 401.866 62.155 401.637 59.419 400.726C56.681 399.814 60.329 382.942 60.557 381.802Z" fill="#2D2737"/>
<path d="M53.973 301.66C53.973 301.66 52.239 292.219 62.21 289.049C72.181 285.88 74.068 290.488 77.087 299.1C80.106 307.712 74.493 381.279 74.493 381.279C74.493 381.279 63.012 383.24 60.066 381.502C60.066 381.502 51.319 333.611 51.928 320.469C52.537 307.327 53.973 301.66 53.973 301.66Z" fill="#3D4776"/>
<path d="M58.847 378.61C58.847 378.61 71.8431 377.47 75.9471 376.787L75.719 382.715C75.719 382.715 65.459 384.539 59.075 383.627L58.847 378.61Z" fill="#51598D"/>
<path d="M55.655 117.331C55.655 117.331 47.447 117.787 42.431 136.482C37.415 155.177 34.223 177.977 36.047 183.904C37.871 189.832 57.479 205.791 64.774 205.791C72.07 205.791 72.526 200.319 71.158 195.759C69.79 191.199 55.655 178.888 55.655 178.888C55.655 178.888 67.055 142.409 66.599 132.833C66.143 123.257 60.671 117.331 55.655 117.331Z" fill="#7E78C7"/>
<path d="M158.428 111.753L157.067 111.892L160.118 105.851C160.118 105.851 167.873 105.362 169.117 108.637L165.56 116.526L158.428 111.753Z" fill="#FF8D68"/>
<path d="M162.788 94.589C162.788 94.589 162.486 88.416 164.682 87.539C166.878 86.662 169.338 88.371 169.338 88.371C169.338 88.371 172.893 88.009 174.027 89.526C175.161 91.043 175.069 93.338 175.069 93.338C175.069 93.338 177.074 93.786 177.594 95.692C178.115 97.598 177.185 101.285 177.185 101.285C177.185 101.285 174.863 104.134 172.179 103.428C169.495 102.722 162.788 94.589 162.788 94.589Z" fill="#FF7759"/>
<path d="M158.725 99.574C158.725 99.574 157.902 91.495 158.772 90.427C159.643 89.359 168.543 77.046 168.543 77.046C168.543 77.046 170.39 79.144 169.327 81.537C168.265 83.931 164.074 91.193 164.074 91.193L164.053 97.399C164.054 97.398 161.311 99.311 158.725 99.574Z" fill="#FF7759"/>
<path d="M159.384 106.038C159.384 106.038 157.257 93.063 158.708 91.283C160.159 89.503 167.273 90.541 168.632 91.055C169.991 91.569 173.749 96.41 174.27 98.317C174.791 100.223 171.249 107.114 169.118 108.638C166.987 110.16 160.617 108.524 159.384 106.038Z" fill="#FF8D68"/>
<path d="M154.376 114.594L157.112 109.578C157.112 109.578 163.496 108.438 166.688 113.454C167.6 115.278 167.144 115.278 167.144 115.278L165.092 119.382L154.376 114.594Z" fill="#DEE0E8"/>
<path d="M89.425 59.703C89.425 59.703 96.171 61.43 99.992 71.787C103.813 82.145 101.266 104.155 98.718 106.744C96.171 109.333 88.432 108.344 77.701 104.802C66.363 101.06 62.532 89.272 60.506 81.497C56.625 66.608 69.573 51.287 89.425 59.703Z" fill="#FF8D68"/>
<path d="M65.231 116.875L70.703 97.268C70.703 97.268 81.647 94.076 88.487 101.372L90.767 104.564V117.332C90.766 117.331 79.367 119.61 65.231 116.875Z" fill="#FF8D68"/>
<path d="M49.956 222.435C49.956 222.435 45.852 246.374 49.956 273.734C54.06 301.092 62.268 303.829 69.791 303.829C77.314 303.829 79.367 281.941 80.734 272.366C82.102 262.79 87.574 229.959 77.314 222.435C67.055 214.912 55.427 214.227 49.956 222.435Z" fill="#3D4776"/>
<path d="M78.683 254.583C78.683 254.583 70.475 232.695 84.8391 223.12C99.2031 213.544 110.146 214.912 113.566 230.643C116.986 246.374 117.67 300.409 112.882 311.352C108.094 322.296 90.994 305.197 78.683 254.583Z" fill="#3D4776"/>
<path d="M102.588 60.639C102.588 60.639 105.824 64.847 103.882 69.702C101.94 74.557 94.819 76.499 94.819 76.499C94.819 76.499 97.085 79.736 94.819 84.267L93.201 86.856C93.201 86.856 95.467 92.035 94.819 93.33C94.171 94.625 91.906 94.301 91.906 94.301C91.906 94.301 89.317 87.18 88.345 87.827C87.374 88.474 84.785 91.711 84.785 94.624C84.785 97.537 85.756 99.803 85.109 101.745C84.462 103.687 74.427 103.687 70.22 103.039C66.012 102.392 59.538 89.445 57.92 83.619C57.92 83.619 55.654 75.527 58.891 68.73C58.891 68.73 58.244 62.904 63.746 57.078C69.248 51.252 86.727 53.194 89.64 55.46C89.64 55.46 89.316 52.223 92.553 52.871C95.79 53.519 100.646 56.432 102.588 60.639Z" fill="#C53A45"/>
<path d="M92.877 90.094C92.877 90.094 91.906 85.886 88.345 87.828C84.785 89.77 88.992 99.804 91.906 99.157C94.82 98.51 93.525 91.712 92.877 90.094Z" fill="#FF7759"/>
<path d="M62.336 116.771C62.336 116.771 63.863 111.402 65.231 110.947C66.599 110.491 83.47 108.667 92.59 114.139C96.694 117.331 96.238 119.611 96.238 119.611C96.238 119.611 69.016 114.387 62.336 116.771Z" fill="#DEE0E8"/>
<path d="M58.847 115.506C58.847 115.506 87.118 113.682 107.181 122.346C116.301 126.906 137.162 147.539 137.162 147.539L153.577 113.34C153.577 113.34 162.811 110.034 166.459 118.698C166.459 118.698 156.085 159.053 147.421 171.821C141.949 176.381 115.844 161.561 115.844 161.561C115.844 161.561 119.948 214.456 118.58 238.166C116.756 242.727 81.189 245.006 74.805 244.55C68.421 244.094 46.078 236.798 45.622 235.431C45.166 234.063 48.814 179.345 47.902 172.96C46.99 166.576 44.255 135.113 45.166 130.554C46.08 125.994 50.184 117.331 58.847 115.506Z" fill="#7E78C7"/>
<path d="M88.942 383.17C88.942 383.17 90.538 379.75 96.465 380.662C102.393 381.574 103.077 382.714 103.761 385.678C104.445 388.642 106.497 391.834 107.865 392.518C109.233 393.202 114.249 396.622 118.353 397.306C122.457 397.99 122.913 400.497 122.001 401.637C121.089 402.778 105.585 403.69 102.166 403.234C102.166 403.234 90.538 403.005 87.802 402.093C85.066 401.182 88.714 384.31 88.942 383.17Z" fill="#3E3343"/>
<path d="M91.678 303.145C91.678 303.145 90.994 293.569 101.254 291.517C111.514 289.465 112.881 294.253 114.934 303.145C116.986 312.037 103.306 384.539 103.306 384.539C103.306 384.539 91.679 385.223 88.943 383.171C88.943 383.171 85.523 334.608 87.575 321.612C89.626 308.617 91.678 303.145 91.678 303.145Z" fill="#3D4776"/>
<path d="M88.03 384.31C88.03 384.31 96.922 386.818 104.446 385.45L105.13 380.207L87.802 379.066L88.03 384.31Z" fill="#51598D"/>
<path d="M75.947 249.453C75.947 249.453 85.523 280.231 92.704 295.279" stroke="#2A2E59" stroke-width="1.026" stroke-miterlimit="10"/>
<path d="M95.44 301.435C95.44 301.435 101.254 298.015 107.068 301.435" stroke="#2A2E59" stroke-width="1.026" stroke-miterlimit="10"/>
<path d="M94.414 305.197C94.414 305.197 99.202 302.461 107.41 308.275" stroke="#2A2E59" stroke-width="1.026" stroke-miterlimit="10"/>
<path d="M58.505 297.331C58.505 297.331 62.267 293.911 70.817 297.673" stroke="#2A2E59" stroke-width="1.026" stroke-miterlimit="10"/>
<path d="M61.241 300.75C61.241 300.75 66.713 298.015 71.843 302.118" stroke="#2A2E59" stroke-width="1.026" stroke-miterlimit="10"/>
<path d="M73.895 306.222L71.843 375.989" stroke="#2A2E59" stroke-width="1.026" stroke-miterlimit="10"/>
<path d="M102.166 247.743C102.166 247.743 109.917 252.303 113.109 245.007" stroke="#2A2E59" stroke-width="1.026" stroke-miterlimit="10"/>
<path d="M109.917 248.655C109.917 248.655 113.565 276.926 112.653 295.621" stroke="#2A2E59" stroke-width="1.026" stroke-miterlimit="10"/>
<path d="M45.1671 142.41L48.815 181.625" stroke="#524B81" stroke-width="1.026" stroke-miterlimit="10"/>
<path d="M107.752 156.089C107.752 156.089 134.769 175.582 147.422 171.82" stroke="#524B81" stroke-width="1.026" stroke-miterlimit="10"/>
<path d="M139.899 151.301C139.899 151.301 145.371 154.379 145.029 161.561" stroke="#524B81" stroke-width="1.026" stroke-miterlimit="10"/>
<path d="M138.531 148.565C138.531 148.565 144.345 146.855 147.765 152.669" stroke="#524B81" stroke-width="1.026" stroke-miterlimit="10"/>
<path d="M106.726 124.968C106.726 124.968 92.363 132.492 101.938 149.933" stroke="#524B81" stroke-width="1.026" stroke-miterlimit="10"/>
<path d="M86.377 102.226C86.377 102.226 88.771 108.382 96.808 107.356" stroke="#E66657" stroke-width="1.026" stroke-miterlimit="10"/>
<path d="M163.781 89.572L166.46 87.178C166.46 87.178 168.34 87.169 169.338 88.37" stroke="#E66657" stroke-width="1.026" stroke-miterlimit="10"/>
<path d="M166.973 89.971C166.973 89.8 170.792 87.748 170.792 87.748C170.792 87.748 174.269 88.602 174.782 90.427C175.295 92.251 174.896 93.22 174.896 93.22" stroke="#E66657" stroke-width="1.026" stroke-miterlimit="10"/>
<path d="M171.476 93.277C171.647 93.22 176.321 93.505 176.321 93.505C176.321 93.505 178.031 94.645 177.974 96.868C177.917 99.091 177.185 101.285 177.185 101.285C177.185 101.285 175.523 103.651 172.673 103.594" stroke="#E66657" stroke-width="1.026" stroke-miterlimit="10"/>
<path d="M174.155 98.065C174.155 98.065 174.725 98.977 173.984 100.63C173.243 102.283 172.346 106.612 169.118 108.637" stroke="#E66657" stroke-width="1.026" stroke-miterlimit="10"/>
<path d="M77.144 68.369C70.476 65.12 61.926 69.053 61.926 69.053C61.926 69.053 62.952 64.607 67.739 63.068" stroke="#A03A45" stroke-width="1.368" stroke-miterlimit="10"/>
<path d="M62.267 71.789C62.267 71.789 63.977 71.618 66.2 75.038" stroke="#A03A45" stroke-width="1.368" stroke-miterlimit="10"/>
<path d="M91.678 56.456C91.678 56.456 100.114 57.824 100.342 66.26" stroke="#A03A45" stroke-width="1.368" stroke-miterlimit="10"/>
</svg>
