<svg width="1056" height="558" viewBox="0 0 1056 558" fill="none" xmlns="http://www.w3.org/2000/svg">
<path d="M164.413 554.736C164.413 554.736 49.3798 575.871 12.7617 495.915C-34.7459 392.184 62.8576 313.532 137.715 328.185C300.831 360.116 261.552 7.84819 523.333 79.7422C596.941 99.9578 795.823 -20.1322 851.291 172.422C864.48 218.21 911.212 223.253 979.051 252.307C1111.82 309.167 1051.11 555.695 956.244 556.663C861.378 557.631 164.413 554.736 164.413 554.736Z" fill="#EBF2F9"/>
<path d="M802.622 303.551H734.873V556.114H802.622V303.551Z" fill="#82B479"/>
<path d="M753.022 303.551H703.24V556.114H753.022V303.551Z" fill="#A8D29F"/>
<path d="M728.967 540.474C735.105 540.474 740.08 535.497 740.08 529.357C740.08 523.217 735.105 518.24 728.967 518.24C722.83 518.24 717.855 523.217 717.855 529.357C717.855 535.497 722.83 540.474 728.967 540.474Z" fill="#82B479"/>
<path d="M902.004 303.551H834.254V556.114H902.004V303.551Z" fill="#699DEE"/>
<path d="M852.404 303.551H802.622V556.114H852.404V303.551Z" fill="#AFCDFB"/>
<path d="M828.349 540.474C834.486 540.474 839.461 535.497 839.461 529.357C839.461 523.217 834.486 518.24 828.349 518.24C822.212 518.24 817.237 523.217 817.237 529.357C817.237 535.497 822.212 540.474 828.349 540.474Z" fill="#699DEE"/>
<path d="M839.461 329.255H817.237V461.819H839.461V329.255Z" fill="white"/>
<path d="M1000.22 303.551H932.471V556.114H1000.22V303.551Z" fill="#D86713"/>
<path d="M950.621 303.551H900.839V556.114H950.621V303.551Z" fill="#F1A34F"/>
<path d="M926.566 540.474C932.703 540.474 937.678 535.497 937.678 529.357C937.678 523.217 932.703 518.24 926.566 518.24C920.428 518.24 915.453 523.217 915.453 529.357C915.453 535.497 920.428 540.474 926.566 540.474Z" fill="#D86713"/>
<path d="M937.678 329.255H915.453V461.819H937.678V329.255Z" fill="white"/>
<path d="M739.244 330.949H717.019V463.513H739.244V330.949Z" fill="white"/>
<path d="M572.236 254.611L596.123 538.751C596.123 538.751 598.626 555.975 585.819 556.005C564.763 556.055 481.015 556.005 481.015 556.005C481.015 556.005 496.863 552.42 496.671 544.353C496.444 534.844 468.752 251.922 468.752 251.922L572.236 254.611Z" fill="#D86713"/>
<path d="M474.22 550.849C478.361 550.862 558.351 551.113 578.856 550.849C587.792 550.738 589.359 542.901 589.434 537.828C589.47 535.396 589.162 533.599 589.162 533.599L588.541 526.213L586.958 507.39L585.559 490.76L583.762 469.391L582.248 451.354L565.276 249.453L461.791 246.766C461.791 246.766 473.455 365.168 481.704 451.354C482.626 460.957 483.502 470.164 484.312 478.759C484.575 481.503 484.826 484.186 485.073 486.798C485.838 494.953 486.537 502.441 487.145 509.053C487.466 512.538 487.762 515.775 488.029 518.742C489.082 530.365 489.699 537.787 489.708 539.198C489.711 540.021 489.642 540.787 489.506 541.498C487.808 550.553 475.775 550.849 474.22 550.849Z" fill="#EE9849"/>
<path d="M326.724 99.9932H823.552L765.368 333.805L757.401 365.826L730.302 474.729H226.841L326.724 99.9932Z" fill="#F1A34F"/>
<path d="M823.553 99.9922L831.616 102.682L741.023 482.863L730.302 474.73L823.553 99.9922Z" fill="#EE9849"/>
<path d="M741.022 482.863H240.66L226.843 474.73H730.301L741.022 482.863Z" fill="#D86713"/>
<path d="M565.31 550.963H456.974V556.113H565.31V550.963Z" fill="#F1A34F"/>
<path d="M484.514 482.861L485.074 486.798L586.958 507.39L585.56 490.76L584.893 482.861H484.514Z" fill="#D86713"/>
<path opacity="0.4" d="M474.22 550.849C478.361 550.862 558.351 551.113 578.856 550.849C587.792 550.738 589.359 542.901 589.434 537.828L488.03 518.741C489.083 530.364 489.7 537.786 489.708 539.198C489.712 540.021 489.642 540.786 489.507 541.497C487.808 550.553 475.775 550.849 474.22 550.849Z" fill="#D86713"/>
<path opacity="0.4" d="M515.683 401.11L730.302 474.729L748.63 401.067L515.683 401.11Z" fill="#D86713"/>
<path d="M326.725 99.9922H823.553L748.674 401.067L246.114 401.162L326.725 99.9922Z" fill="#F1A34F"/>
<path d="M465.224 439.234C466.659 431.848 473.808 425.861 481.191 425.861C488.573 425.861 493.395 431.848 491.96 439.234C490.525 446.62 483.377 452.607 475.994 452.607C468.611 452.608 463.79 446.62 465.224 439.234Z" fill="#D86713"/>
<path d="M269.546 388.111H734.728L787.408 178.16L791.447 162.059L794.893 148.326L802.972 116.125H344.495L335.623 148.326L331.838 162.059L327.402 178.16L269.546 388.111Z" fill="#E9F3FE"/>
<path d="M344.495 116.125H802.973L794.893 148.326H335.623L344.495 116.125Z" fill="#A8D29F"/>
<path d="M780.985 126.652C783.207 126.652 784.56 128.454 784.006 130.677C783.452 132.9 781.201 134.702 778.979 134.702C776.757 134.702 775.404 132.9 775.958 130.677C776.512 128.454 778.763 126.652 780.985 126.652Z" fill="#E9F3FE"/>
<path d="M767.616 126.652C769.838 126.652 771.19 128.454 770.636 130.677C770.082 132.9 767.831 134.702 765.609 134.702C763.387 134.702 762.035 132.9 762.588 130.677C763.142 128.454 765.393 126.652 767.616 126.652Z" fill="#E9F3FE"/>
<path d="M748.192 130.678C748.746 128.455 750.997 126.653 753.22 126.653C755.442 126.653 756.794 128.455 756.24 130.678C755.686 132.901 753.435 134.703 751.213 134.703C748.991 134.703 747.639 132.901 748.192 130.678Z" fill="#E9F3FE"/>
<path d="M101.614 527.166C101.614 527.166 95.6923 532.656 96.8479 536.557C98.003 540.458 103.347 543.059 104.069 547.827C104.792 552.596 107.68 555.196 110.28 555.196C112.879 555.196 122.674 555.196 122.674 555.196C122.674 555.196 124.587 551.841 119.965 550.83C115.344 549.818 113.601 544.215 113.89 539.013C114.179 533.812 113.457 526.876 113.457 526.876L103.636 524.565L101.614 527.166Z" fill="#233862"/>
<path d="M208.97 555.187H176.059C175.773 555.127 175.556 555.064 175.417 554.994C173.223 553.897 173.907 545.502 174.172 542.9C174.223 542.418 174.26 542.134 174.26 542.134C174.26 542.134 185.816 532.889 187.404 539.969C187.452 540.19 187.512 540.406 187.576 540.62C189.574 547.244 198.545 550.255 203.725 551.093C207.675 551.735 208.702 554.033 208.97 555.187Z" fill="#233862"/>
<path d="M202.349 365.629C202.349 365.629 200.595 387.532 198.532 413.86C195.729 449.625 192.358 493.556 192.024 501.879C191.448 516.33 189.134 539.447 189.134 539.447C189.134 539.447 183.649 544.939 172.67 542.624C172.67 542.624 162.886 509.624 160.092 474.709C160.049 474.137 160.005 473.561 159.962 472.984C157.362 437.44 153.32 362.594 153.32 362.594L202.349 365.629Z" fill="#699DEE"/>
<path d="M202.349 365.629C202.349 365.629 200.595 387.532 198.532 413.86L160.092 474.709C160.049 474.138 160.005 473.561 159.962 472.985C157.362 437.441 153.32 362.595 153.32 362.595L202.349 365.629Z" fill="#4A75CB"/>
<path d="M194.336 368.229C194.336 368.229 162.706 447.553 141.909 484.831C121.112 522.109 114.613 532.512 114.613 532.512C114.613 532.512 102.697 527.744 101.614 524.493C101.614 524.493 109.567 452.526 123.495 434.983C131.365 425.071 140.609 395.322 141.043 384.918C141.476 374.515 143.859 353.926 143.859 353.926L194.336 368.229Z" fill="#699DEE"/>
<path d="M226.322 346.331L228.13 349.936C228.13 349.936 237.323 351.221 234.793 360.809C234.793 360.809 233.43 364.754 230.895 363.505C228.36 362.257 229.609 362.363 225.975 360.683C222.342 359.003 220.239 355.776 221.051 352.815L220.469 349.676L226.322 346.331Z" fill="#FFB27D"/>
<path d="M178.114 245.786C179.52 237.479 179.563 232.556 179.563 232.556L163.515 219.617C164.111 237.408 152.716 245.963 152.716 245.963C152.716 245.963 174.101 256.494 186.462 252.594C186.462 252.593 183.419 248.702 178.114 245.786Z" fill="#FFB27D"/>
<path d="M183.343 232.262C183.343 232.262 162.927 235.655 161.011 222.903C159.095 210.152 155.169 202.002 168.123 199.296C181.077 196.59 184.347 201.074 186.021 205.175C187.695 209.276 188.604 231.051 183.343 232.262Z" fill="#FFB27D"/>
<path d="M161.146 223.783C161.146 223.783 161.558 206.702 180.16 203.96C192.901 202.083 185.185 191.431 183.728 189.745C183.728 189.745 173.988 191.604 164.019 193.793C143.096 198.387 158.935 221.243 161.146 223.783Z" fill="#163560"/>
<path d="M224.18 351.342C226.909 348.541 228.935 344.893 228.935 344.893C228.935 344.893 205.739 316.062 203.854 313.072C201.969 310.082 187.881 262.125 187.881 262.125L152.256 254.905C152.256 254.905 181.992 316.28 186.918 323.761C195.059 336.125 219.412 354.527 219.412 354.527C219.412 354.527 222.036 353.542 224.18 351.342Z" fill="#82B479"/>
<path d="M203.713 367.453C203.342 367.762 202.909 367.948 202.414 367.948C197.773 367.885 184.238 370.464 172.785 369.288C163.131 368.36 154.586 365.5 145.409 361.384C144.19 360.838 141.385 359.34 141.448 357.977C141.489 356.485 141.638 354.322 141.823 351.596C142.473 342.12 143.605 325.821 142.501 307.017C142.303 303.515 142.199 300.042 142.186 296.623C142.091 271.138 147.056 248.597 157.206 241.01C158.073 240.389 163.482 243.117 168.373 245.531C172.891 247.761 176.051 247.709 180.321 246.845L185.948 250.919C191.148 255.748 196.843 262.312 199.318 272.281C201.424 280.763 202.66 296.059 203.342 311.91C203.65 319.092 203.899 326.338 203.962 333.212V333.458C204.022 334.139 204.022 334.883 204.022 335.565C204.271 353.211 204.022 367.204 203.713 367.453Z" fill="#A8D29F"/>
<path d="M141.823 351.595C142.473 342.12 143.605 325.82 142.501 307.017C142.303 303.515 142.199 300.042 142.186 296.623C146.414 286.361 149.87 278.92 149.87 278.92H160.528C160.528 278.92 168.342 332.312 141.823 351.595Z" fill="#82B479"/>
<path d="M121.089 354.915L119.066 358.403C119.066 358.403 123.029 366.8 113.626 369.938C113.626 369.938 109.581 370.959 109.235 368.153C108.889 365.348 109.485 366.45 108.898 362.489C108.311 358.529 109.858 355 112.778 354.058L115.083 351.851L121.089 354.915Z" fill="#FFB27D"/>
<path d="M115.725 355.868C119.563 356.617 123.723 356.314 123.723 356.314C123.723 356.314 135.117 321.102 136.583 317.886C138.05 314.669 170.426 276.598 170.426 276.598L156.939 242.831C156.939 242.831 121.92 301.35 118.365 309.572C112.489 323.159 110.45 353.624 110.45 353.624C110.45 353.624 112.711 355.281 115.725 355.868Z" fill="#A8D29F"/>
<path d="M524.541 340.665H307.372L381.613 40.1855H598.782L524.541 340.665Z" fill="#AFCDFB"/>
<path d="M492.103 321.917H274.934L349.175 21.4376H566.343L492.103 321.917Z" fill="#C0D8F9"/>
<path d="M456.953 300.491H239.785L314.025 0.0117493H531.194L456.953 300.491Z" fill="#D4E3F4"/>
<path d="M561.92 40.1855L493.209 320.12L312.667 321.917L498.661 326.01L561.92 40.1855Z" fill="#699DEE"/>
<path d="M525.848 21.4376L460.571 298.693L280.028 300.491L463.635 305.03L525.848 21.4376Z" fill="#699DEE"/>
<path d="M366.476 104.143H305.742L324.755 27.8166H385.489L366.476 104.143Z" fill="#E9F3FE"/>
<path d="M505.131 38.3618H396.314L398.991 27.8166H507.808L505.131 38.3618Z" fill="#AFCDFB"/>
<path d="M500.223 60.0111H391.406L394.083 49.4659H502.9L500.223 60.0111Z" fill="#AFCDFB"/>
<path d="M495.092 81.6604H386.275L388.951 71.1151H497.768L495.092 81.6604Z" fill="#AFCDFB"/>
<path d="M489.068 103.31H380.251L382.928 92.7644H491.745L489.068 103.31Z" fill="#AFCDFB"/>
<path d="M489.068 125.852H289.869L292.546 115.306H491.745L489.068 125.852Z" fill="#AFCDFB"/>
<path d="M483.75 148.393H284.551L287.228 137.848H486.427L483.75 148.393Z" fill="#AFCDFB"/>
<path d="M476.388 173.779H277.189L279.866 163.234H479.066L476.388 173.779Z" fill="#AFCDFB"/>
<path d="M469.696 195.698H270.496L273.173 185.152H472.373L469.696 195.698Z" fill="#AFCDFB"/>
<path d="M371.779 111.736C371.779 111.736 375.341 110.111 376.731 110.607C378.121 111.104 381.894 112.732 381.809 114.365C381.724 115.999 375.671 117.808 371.628 115.828C367.585 113.849 371.779 111.736 371.779 111.736Z" fill="#E49963"/>
<path d="M372.836 116.21C372.774 116.41 372.691 116.601 372.583 116.774C371.384 118.706 351.643 118.803 349.387 117.182C348.378 116.457 348.07 106.465 348.039 95.6385C348 82.254 348.382 67.592 348.382 67.592C348.382 67.592 356.107 71.1784 356.483 75.5922C356.86 80.006 353.612 106.533 355.868 108.154C358.124 109.775 368.53 109.986 372.002 111.006C372.002 111.006 373.476 114.182 372.836 116.21Z" fill="#A8D2A0"/>
<path d="M352.862 37.1614C351.511 35.7543 349.303 35.6214 347.883 35.5221C348.295 35.1946 349.026 35.1507 349.026 35.1507C348.169 34.9075 346.106 35.5217 346.106 35.5217C346.106 35.5217 339.208 30.7793 334.531 40.0411C334.531 40.0411 335.214 39.3849 336.132 38.6584C333.431 43.985 334.336 52.6899 340.37 54.9997C344.293 56.5014 366.706 51.5829 352.862 37.1614Z" fill="#163560"/>
<path d="M348.683 69.8044C348.721 69.8278 344.509 71.3659 341.647 70.1687C338.953 69.0451 337.598 65.1866 337.637 65.1838C338.85 65.1019 339.402 63.5207 340.282 56.5322L340.803 56.707L349.56 59.6531C349.56 59.6531 348.988 62.4564 348.637 65.1213C348.341 67.3587 348.202 69.4991 348.683 69.8044Z" fill="#E49963"/>
<path d="M349.56 59.6531C349.56 59.6531 348.989 62.4564 348.637 65.1213C343.626 64.3272 341.562 59.3925 340.803 56.7071L349.56 59.6531Z" fill="#D68D5D"/>
<path d="M340.001 55.6076C340.001 55.6076 337.906 51.0993 337.734 47.4547C337.612 44.8527 340.129 35.5929 349.423 38.1787C349.423 38.1787 352.138 38.8063 354.497 40.8886C356.373 42.5446 358.951 45.9285 354.568 53.7254L353.346 56.3926L340.001 55.6076Z" fill="#163560"/>
<path d="M350.912 62.3948C350.912 62.3948 338.988 61.0481 339.94 53.6313C340.893 46.2149 339.996 41.046 347.649 41.5926C355.303 42.1388 356.416 45.1589 356.7 47.7118C356.984 50.2644 354.039 62.5542 350.912 62.3948Z" fill="#E49963"/>
<path d="M351.696 79.1905C351.597 78.3188 353.46 77.9146 353.8 78.7238C354.434 80.2397 354.366 82.038 354.509 83.4967C354.917 87.6617 353.267 93.0776 353.267 93.0776L351.696 79.1905Z" fill="#82B479"/>
<path d="M356.88 43.5424C355.333 41.0777 353.881 41.3818 353.015 41.9494C350.942 37.7717 342.094 42.2772 342.094 42.2772C340.609 47.4947 336.378 50.0456 336.378 50.0456C336.378 50.0456 338.374 51.6672 343.54 51.0292C347.607 50.5274 351.188 45.2945 352.53 43.0876C353.156 43.8086 354.461 45.4567 354.723 46.9386C355.072 48.9038 354.835 52.8256 355.985 52.8402C355.985 52.8402 359.206 47.2455 356.88 43.5424Z" fill="#163560"/>
<path d="M348.849 57.5566C348.849 57.5566 348.949 58.5272 351.311 58.6858C351.311 58.6858 353.293 58.8194 353.367 57.7761C353.367 57.7761 351.556 56.7925 348.849 57.5566Z" fill="white"/>
<path d="M372.836 116.21C372.774 116.41 372.691 116.601 372.583 116.774C371.384 118.706 351.643 118.803 349.387 117.182C348.378 116.457 348.052 104.041 350.831 93.3311C351.491 99.7477 350.283 112.575 353.64 113.621C357.447 114.81 367.84 114.833 372.836 116.21Z" fill="#82B479"/>
<path d="M353.93 93.6697C346.094 116.303 349.666 120.397 346.865 122.358C346.85 122.368 344.516 123.037 344.499 123.048C341.594 124.975 341.884 122.221 333.214 124.716C329.084 125.905 323.78 127.502 319.229 128.263C317.515 128.548 315.91 128.717 314.512 128.699C311.834 128.666 309.925 127.952 309.514 126.086C308.32 120.665 319.057 108.071 318.035 98.3947C318.026 98.3121 318.018 98.2274 318.012 98.1452C317.956 97.3027 318.048 96.3567 318.266 95.3336C319.363 90.1505 323.655 82.9683 327.922 76.9135C332.633 70.2351 337.311 64.9283 337.637 65.183C346.844 72.3985 348.383 67.592 348.383 67.592C348.383 67.592 356.604 85.9507 353.93 93.6697Z" fill="#A8D2A0"/>
<path d="M345.334 122.824C345.32 122.834 345.351 122.813 345.334 122.824C342.429 124.752 341.884 122.221 333.214 124.716C329.084 125.905 323.78 127.502 319.229 128.263C316.942 128.363 315.231 128.491 314.512 128.699C311.834 128.667 309.925 127.952 309.514 126.087C308.32 120.665 319.057 108.072 318.035 98.3951C318.026 98.3125 318.018 98.2278 318.012 98.1456C317.94 97.1928 318.034 96.2638 318.266 95.334C319.254 91.4161 322.739 87.4785 326.867 81.62C328.78 84.2497 345.777 83.6928 338.841 106.326C336.715 113.263 345.012 117.184 345.334 122.824Z" fill="#82B479"/>
<path d="M344.373 123.901C344.373 123.901 348.155 123.506 349.745 124.408C351.335 125.31 354.468 127.488 354.036 128.381C353.604 129.274 349.56 129.255 348.002 128.104C346.444 126.953 345.046 127.974 343.083 127.024C341.12 126.073 344.373 123.901 344.373 123.901Z" fill="#E49963"/>
<path d="M337.637 65.1834C337.637 65.1834 324.081 63.6093 320.809 69.8274C317.537 76.0454 315.309 99.0987 317.959 106.464C320.608 113.829 339.548 125.774 341.738 126.438C343.929 127.102 345.775 123.83 345.73 123.445C345.685 123.059 326.817 103.248 327.14 101.487C327.463 99.7256 337.637 65.1834 337.637 65.1834Z" fill="#A8D2A0"/>
<path d="M790.51 519.577L785.668 539.98L778.416 539.938L778.15 519.577H790.51Z" fill="#E49963"/>
<path d="M729.501 520.447L715.724 539.98L710.354 533.082L718.646 517.761L729.501 520.447Z" fill="#E49963"/>
<path d="M765.321 251.471C767.825 250.048 770.826 249.892 772.924 250.016C772.384 249.458 771.32 249.255 771.32 249.255C772.622 249.062 775.527 250.353 775.527 250.353C793.63 243.374 796.475 270.041 796.095 276.237C795.718 282.432 802.179 284.455 811.597 289.336C829.568 298.65 831.146 311.122 831.146 311.122C831.006 311.204 830.86 311.298 830.705 311.405C829.813 309.894 827.978 307.057 826.43 306.628C826.488 306.766 828.259 310.535 828.919 312.696C823.618 316.73 813.7 325.67 806.788 332.008C806.819 330.77 806.77 329.011 806.317 328.082L805.463 333.226C801.765 336.628 799.214 339.021 799.214 339.021C799.671 334.015 776.58 307.594 764.534 299.682C761.601 295.363 760.559 287.733 760.481 287.132C760.987 293.182 762.021 296.575 762.946 298.486C752.745 289.093 758.684 255.244 765.321 251.471Z" fill="#163560"/>
<path d="M765.247 300.075C765.187 300.102 771.064 303.155 775.484 301.945C779.643 300.812 782.359 295.418 782.302 295.406C780.541 295.055 780.033 292.635 780.07 282.232L779.274 282.389L765.889 285.041C765.889 285.041 766.194 289.255 766.203 293.225C766.212 296.558 766.01 299.719 765.247 300.075Z" fill="#E49963"/>
<path d="M765.889 285.04C765.889 285.04 766.194 289.254 766.203 293.224C773.693 293.013 777.652 286.177 779.274 282.389L765.889 285.04Z" fill="#D68D5D"/>
<path d="M780.657 280.931C780.657 280.931 784.582 274.726 785.524 269.421C786.197 265.633 784.268 251.593 770.166 253.615C770.166 253.615 766.07 254.019 762.219 256.62C759.157 258.689 754.738 263.156 759.679 275.407L760.962 279.546L780.657 280.931Z" fill="#163560"/>
<path d="M712.54 527.728L719.635 527.945L727.315 528.18C727.315 528.18 745.054 508.422 755.005 476.747C755.237 476.011 755.482 475.266 755.74 474.512C761.186 458.627 772.476 438.687 778.425 420.639C779.372 417.764 780.222 415.058 780.985 412.497C781.229 411.677 781.468 410.871 781.694 410.078C786.078 394.838 787.347 384.832 788.518 374.141L745.558 374.485C745.558 374.485 738.623 447.486 712.54 527.728Z" fill="#2B478B"/>
<path d="M751.572 349.79C751.68 370.241 748.573 379.015 748.573 379.015C748.573 379.015 766.966 388.364 788.828 381.483C789.085 381.401 805.27 378.152 805.27 378.152C804.903 377.325 800.439 363.177 800.083 362.418C795.467 352.502 794.833 347.694 794.286 344.645C793.27 338.954 793.248 333.065 793.753 327.511C795.088 312.808 799.054 300.604 799.054 300.604C793.098 299.248 787.52 296.866 781.321 294.54C779.895 296.316 775.535 298.175 771.753 298.09C767.399 297.994 765.987 296.129 766.213 294.093C761.572 296.677 757.87 299.117 757.87 299.117C753.925 305.97 745.927 312.626 745.347 323.139C745.204 325.724 751.569 349.217 751.572 349.79Z" fill="#E7F1FD"/>
<path d="M726.631 319.407C732.937 312.037 749.277 296.054 766.137 294.093L751.587 322.449C751.587 322.449 750.77 327.309 746.462 330.141C735.908 337.079 722.489 340.147 722.489 340.147C722.489 340.147 713.402 336.181 700.981 327.074C697.081 324.216 690.23 313.315 690.23 313.315L692.078 307.128C692.078 307.128 703.71 313.634 707.866 315.51C710.234 316.58 715.685 319.134 719.527 320.939C721.97 322.087 724.875 321.458 726.631 319.407Z" fill="#699DEE"/>
<path d="M763.388 288.799C763.388 288.799 781.109 289.092 781.121 278.049C781.133 267.005 783.429 259.606 772.115 258.952C760.801 258.298 758.598 262.51 757.698 266.195C756.798 269.88 758.779 288.439 763.388 288.799Z" fill="#E49963"/>
<path d="M764.044 258.681C764.044 258.681 768.896 271.637 776.342 273.553C783.789 275.469 787.018 273.473 787.018 273.473C787.018 273.473 781.307 268.933 780.121 261.009C780.121 261.009 767.704 252.515 764.044 258.681Z" fill="#163560"/>
<path d="M765.246 259.733C765.246 259.733 761.623 262.626 760.739 265.438C759.856 268.25 759.458 274.039 757.772 273.842C757.772 273.842 754.117 265.036 758.225 260.054C762.581 254.772 765.246 259.733 765.246 259.733Z" fill="#163560"/>
<path d="M692.078 307.128C692.078 307.128 689.58 298.121 679.681 299.393C678.546 299.749 675.226 301.073 677.348 304.628C678.912 307.249 679.589 305.897 682.05 309.418C684.509 312.94 687.18 313.735 690.231 313.315L692.078 307.128Z" fill="#E49963"/>
<path d="M785.912 538.839C785.912 538.839 785.328 542.88 786.836 547.204C786.836 547.204 788.023 552.615 782.696 552.715C777.369 552.816 776.062 552.313 776.665 548.995C777.268 545.677 778.416 539.938 778.416 539.938L785.912 538.839Z" fill="#E49963"/>
<path d="M776.162 555.027C776.162 555.027 776.276 555.097 776.497 555.204H786.924C787.125 555.097 787.219 555.027 787.219 555.027C787.821 552.312 786.837 547.203 786.837 547.203C780.803 552.734 777.028 547.065 777.028 547.065C776.048 549.429 776.162 555.027 776.162 555.027Z" fill="#D86713"/>
<path d="M697.518 549.537C697.518 549.537 707.339 538.632 710.354 533.082L717.658 536.825L701.333 552.163L697.513 551.66L697.518 549.537Z" fill="#E49963"/>
<path d="M691.424 555.204H704.863C706.158 554.237 707.366 551.997 708.869 548.99C709.668 547.387 711.469 546.503 713.316 546.018V555.1H716.104L718.744 545.445C720.481 542.248 718.882 539.349 717.657 536.824C716.234 536.821 712.406 537.795 705.151 545.974C702.765 548.659 700.132 549.62 697.518 549.537C697.481 549.56 697.444 549.58 697.411 549.593C693.033 551.562 691.782 554.009 691.424 555.204Z" fill="#D86713"/>
<path d="M766.213 294.093C766.213 294.093 755.96 319.433 755.659 324.561C755.357 329.689 754.452 408.422 754.452 408.422C754.452 408.422 755.055 412.042 748.12 410.534C741.185 409.026 739.376 407.517 739.376 407.517C739.376 407.517 746.009 358.95 744.2 342.057C742.391 325.164 758.071 297.612 758.071 297.612L766.213 294.093Z" fill="#699DEE"/>
<path d="M719.635 527.945L727.315 528.18C727.315 528.18 745.054 508.422 755.005 476.747C755.237 476.011 755.482 475.266 755.74 474.512C761.186 458.627 772.476 438.687 778.425 420.639C779.372 417.764 780.222 415.058 780.985 412.497C781.229 411.677 781.468 410.871 781.694 410.078L775.368 405.275C775.368 405.275 756.374 436.045 750.494 465.001C745.386 490.153 724.93 520.419 719.635 527.945Z" fill="#233862"/>
<path d="M774.707 467.697C774.599 481.779 775.31 514.153 777.143 527.556H783.946C787.706 527.556 789.582 527.502 789.582 527.502C794.18 504.198 797.452 484.916 799.834 468.301C801.788 454.666 803.525 442.977 804.861 432.913C806.205 422.786 807.14 414.306 807.475 407.142C807.526 406.014 807.565 404.916 807.586 403.851C807.607 402.781 807.613 401.739 807.604 400.729L770.486 397.109C770.953 421.782 774.767 459.514 774.707 467.697Z" fill="#2B478B"/>
<path d="M783.946 527.556C787.706 527.556 789.582 527.501 789.582 527.501C794.18 504.197 797.452 484.916 799.834 468.3C801.788 454.665 803.525 442.976 804.861 432.913C806.205 422.786 807.141 414.306 807.475 407.142L793.855 415.157C793.855 415.157 802.548 418.225 799.231 441.453C795.914 464.681 788.563 524.267 783.946 527.556Z" fill="#233862"/>
<path d="M782.193 406.914C782.193 406.914 784.807 416.365 793.853 415.158C802.899 413.951 815.763 408.522 815.763 408.522C815.763 408.522 811.897 396.302 807.09 380.247C801.271 360.811 794.067 335.756 790.672 319.951C789.719 315.523 789.068 311.825 788.827 309.176L781.322 294.609C781.322 294.609 770.132 319.734 769.529 326.069C768.926 332.404 782.193 406.914 782.193 406.914Z" fill="#699DEE"/>
<path d="M782.594 339.342C782.998 349.599 785.411 369.508 806.919 380.166C806.976 380.192 807.033 380.223 807.091 380.247C801.271 360.811 794.068 335.756 790.673 319.952C786.722 325.858 782.374 333.695 782.594 339.342Z" fill="#4A75CB"/>
<path d="M661.634 255.747L654.851 262.533L681.826 289.519L688.609 282.733L661.634 255.747Z" fill="#2B478B"/>
<path d="M830.459 429.044L828.093 431.411C823.438 436.069 815.89 436.069 811.234 431.411L679.227 299.349C674.571 294.692 674.571 287.14 679.227 282.482L681.593 280.115C686.248 275.458 693.797 275.458 698.452 280.115L830.459 412.178C835.116 416.836 835.116 424.387 830.459 429.044Z" fill="#C65447"/>
<path d="M498.496 99.3079C454.437 143.386 454.437 214.85 498.496 258.928C542.555 303.005 613.989 303.005 658.048 258.928C702.107 214.85 702.107 143.386 658.048 99.3084C613.989 55.2299 542.555 55.2303 498.496 99.3079ZM649.26 250.136C610.054 289.358 546.489 289.358 507.284 250.136C468.078 210.914 468.078 147.322 507.284 108.1C546.489 68.8778 610.054 68.8778 649.26 108.1C688.466 147.322 688.466 210.914 649.26 250.136Z" fill="#C65447"/>
<path d="M791.226 325.125L781.321 294.609C781.347 294.622 793.831 298.326 800.11 301.499C800.11 301.499 804.035 306.561 806.463 318.241C806.463 318.241 809.029 346.28 803.3 356.537C803.3 356.537 785.208 360.157 756.261 350.202V343.566C756.261 343.566 787.922 345.225 794.405 345.979L791.226 325.125Z" fill="#E49963"/>
<path d="M781.321 294.609C781.321 294.609 799.682 295.903 804.104 305.757C808.527 315.612 809.934 348.392 804.306 358.045C804.306 358.045 796.556 360.253 782.85 357.689C782.682 357.658 782.513 357.625 782.344 357.593C782.344 357.593 777.972 346.884 781.891 344.772C781.891 344.772 793.45 345.375 792.244 341.555C791.038 337.734 781.321 294.609 781.321 294.609Z" fill="#699DEE"/>
<path d="M759.507 345.33C759.507 345.33 756.985 342.272 756.447 339.15C755.91 336.027 754.241 333.712 749.887 333.14C745.533 332.568 743.661 332.506 743.673 333.733C743.684 334.961 747.229 343.532 753.477 348.651C759.724 353.77 759.507 345.33 759.507 345.33Z" fill="#E49963"/>
<path opacity="0.4" d="M622.729 88.3475L488.276 222.857C490.469 227.3 492.981 231.556 495.782 235.598L635.465 95.8568C631.424 93.0543 627.17 90.5417 622.729 88.3475Z" fill="white"/>
<path opacity="0.4" d="M613.507 84.3549C602.561 80.2587 590.713 78.0135 578.339 78.0135C522.894 78.0135 477.947 122.98 477.947 178.448C477.947 190.828 480.191 202.681 484.286 213.631L613.507 84.3549Z" fill="white"/>
<path opacity="0.4" d="M533.87 268.509C547.274 275.146 562.37 278.883 578.339 278.883C633.784 278.883 678.732 233.917 678.732 178.448C678.732 162.472 674.996 147.37 668.362 133.96L533.87 268.509Z" fill="white"/>
</svg>
