<svg width="20" height="12" viewBox="0 0 20 12" fill="none" xmlns="http://www.w3.org/2000/svg">
<mask id="mask0" mask-type="alpha" maskUnits="userSpaceOnUse" x="0" y="0" width="20" height="12">
<path d="M9.00992 11.5689L0.410147 2.51682C-0.136716 1.93977 -0.136716 1.00597 0.410147 0.430677C0.957009 -0.143559 1.84411 -0.143559 2.39064 0.430677L10.0002 8.44037L17.6084 0.432087C18.1552 -0.143559 19.042 -0.143559 19.5888 0.432087C20.1371 1.00738 20.1371 1.94118 19.5888 2.51682L10.9891 11.5689C10.7158 11.8569 10.3585 12 10.0002 12C9.64184 12 9.28185 11.8569 9.00992 11.5689Z" fill="white"/>
</mask>
<g mask="url(#mask0)">
<path d="M20 -4L0 -4L0 16H20V-4Z" fill="#33475B"/>
</g>
</svg>
