<svg width="939" height="847" viewBox="0 0 939 847" fill="none" xmlns="http://www.w3.org/2000/svg">
<path d="M923 208.162L506.736 624.391L486.253 644.873L442.523 688.599L341.113 790L28 476.913L104.169 400.768L197.392 493.984L286.989 583.573L341.113 637.692L395.238 583.573L725.047 253.774L846.831 132L923 208.162Z" fill="url(#paint0_linear)"/>
<path d="M533.675 526.949V606.046L511.636 628.096L464.584 675.171V526.949H533.675Z" fill="#E3892B"/>
<path d="M797.425 237.366V342.164L511.636 628.096H231.177C214.412 628.096 200.833 614.491 200.833 597.736V237.366C200.833 220.591 214.412 207.006 231.177 207.006H767.081C767.584 207.006 768.066 207.026 768.568 207.045C784.638 207.818 797.425 221.094 797.425 237.366Z" fill="url(#paint1_linear)"/>
<path d="M774.073 162.192V365.528L577.598 562.101H224.185V162.192H774.073Z" fill="white"/>
<path d="M774.068 162.187H224.189V210.49H774.068V162.187Z" fill="#5D96FF"/>
<path d="M319.026 195.465H253.714C250.092 195.465 247.156 192.527 247.156 188.903V183.774C247.156 180.15 250.092 177.212 253.714 177.212H319.026C322.648 177.212 325.584 180.15 325.584 183.774V188.903C325.584 192.527 322.648 195.465 319.026 195.465Z" fill="#F5F7FF"/>
<path d="M797.87 590.212C797.879 590.208 797.887 590.207 797.899 590.209C797.781 590.261 797.764 590.266 797.87 590.212Z" fill="#323657"/>
<path d="M134.467 421.58C134.288 419.423 134.12 417.243 133.968 415.102L135.466 414.995C135.618 417.131 135.785 419.304 135.964 421.455L134.467 421.58ZM911.673 414.744L910.818 413.507C910.845 413.489 913.474 411.658 916.998 408.38L918.021 409.481C914.411 412.84 911.783 414.668 911.673 414.744ZM133.454 406.99C133.303 404.284 133.172 401.552 133.064 398.87L134.566 398.81C134.672 401.484 134.803 404.208 134.953 406.906L133.454 406.99ZM923.73 403.593L922.598 402.604C924.397 400.542 926.056 398.408 927.529 396.263L928.767 397.114C927.262 399.308 925.567 401.487 923.73 403.593ZM132.805 390.744C132.74 388.036 132.698 385.3 132.679 382.616L134.181 382.605C134.2 385.281 134.243 388.008 134.306 390.709L132.805 390.744ZM932.958 390.046L931.615 389.372C932.84 386.93 933.851 384.44 934.621 381.972L936.056 382.42C935.261 384.966 934.22 387.531 932.958 390.046ZM134.192 374.502L132.69 374.487C132.717 371.777 132.769 369.042 132.843 366.359L134.345 366.4C134.271 369.074 134.219 371.801 134.192 374.502ZM937.779 374.36L936.286 374.187C936.464 372.652 936.554 371.096 936.554 369.562C936.554 368.458 936.507 367.34 936.415 366.238L937.912 366.112C938.008 367.256 938.057 368.417 938.057 369.562C938.057 371.154 937.963 372.768 937.779 374.36ZM934.982 358.409C934.28 355.925 933.327 353.415 932.152 350.949L933.508 350.302C934.719 352.844 935.702 355.434 936.428 358L934.982 358.409ZM134.643 358.303L133.142 358.234C133.266 355.527 133.418 352.795 133.591 350.117L135.091 350.215C134.918 352.883 134.767 355.605 134.643 358.303ZM928.195 343.994C926.776 341.852 925.157 339.692 923.381 337.573L924.532 336.607C926.345 338.77 927.998 340.975 929.447 343.164L928.195 343.994ZM135.692 342.137L134.195 342.011C134.422 339.31 134.679 336.587 134.957 333.918L136.452 334.074C136.175 336.733 135.919 339.446 135.692 342.137ZM917.929 331.658C917.714 331.444 917.497 331.229 917.277 331.015C915.603 329.381 913.806 327.826 911.934 326.393L912.848 325.2C914.766 326.669 916.61 328.263 918.326 329.94C918.55 330.158 918.77 330.375 918.989 330.592L917.929 331.658ZM137.374 326.029L135.883 325.842C136.219 323.154 136.588 320.443 136.977 317.787L138.463 318.005C138.076 320.651 137.71 323.351 137.374 326.029ZM905.297 321.961C903.068 320.667 900.666 319.448 898.156 318.34L898.763 316.965C901.322 318.095 903.774 319.339 906.051 320.661L905.297 321.961ZM890.668 315.434C888.239 314.608 885.716 313.846 882.952 313.105L883.342 311.653C886.137 312.403 888.692 313.174 891.151 314.011L890.668 315.434ZM875.1 311.203C872.711 310.679 870.116 310.149 867.167 309.584L867.45 308.108C870.412 308.675 873.02 309.207 875.422 309.736L875.1 311.203ZM139.724 310.007L138.242 309.757C138.693 307.085 139.178 304.392 139.683 301.756L141.159 302.039C140.656 304.665 140.173 307.346 139.724 310.007ZM859.192 308.117L856.77 307.683C854.923 307.353 853.065 307.021 851.2 306.681L851.469 305.202C853.332 305.542 855.188 305.873 857.035 306.203L859.457 306.637L859.192 308.117ZM843.213 305.167C840.344 304.597 837.74 304.044 835.254 303.478L835.587 302.012C838.06 302.576 840.651 303.126 843.505 303.693L843.213 305.167ZM827.352 301.518C824.653 300.788 822.025 300.009 819.542 299.202L820.006 297.773C822.465 298.572 825.069 299.344 827.744 300.066L827.352 301.518ZM811.869 296.456C809.305 295.447 806.789 294.358 804.389 293.218L805.033 291.86C807.402 292.986 809.887 294.061 812.419 295.057L811.869 296.456ZM142.774 294.106L141.305 293.789C141.876 291.139 142.483 288.473 143.11 285.862L144.571 286.213C143.947 288.812 143.342 291.467 142.774 294.106ZM797.162 289.447C794.799 288.097 792.473 286.645 790.248 285.129L791.094 283.886C793.286 285.38 795.578 286.811 797.907 288.142L797.162 289.447ZM783.704 280.272C781.612 278.584 779.548 276.78 777.571 274.91L778.603 273.817C780.552 275.66 782.585 277.438 784.647 279.102L783.704 280.272ZM146.555 278.366L145.103 277.98C145.798 275.364 146.533 272.728 147.287 270.148L148.729 270.57C147.979 273.138 147.247 275.761 146.555 278.366ZM771.872 269.09C770.078 267.115 768.309 265.022 766.615 262.871L767.795 261.94C769.467 264.064 771.213 266.129 772.983 268.078L771.872 269.09ZM151.097 262.83L149.665 262.372C150.49 259.794 151.356 257.199 152.241 254.66L153.66 255.154C152.779 257.681 151.917 260.264 151.097 262.83ZM761.793 256.312C760.289 254.123 758.806 251.821 757.387 249.471L758.673 248.693C760.077 251.019 761.544 253.295 763.031 255.461L761.793 256.312ZM156.421 247.548L155.016 247.016C155.972 244.486 156.974 241.94 157.992 239.449L159.383 240.017C158.369 242.497 157.373 245.03 156.421 247.548ZM753.371 242.395C752.122 240.056 750.893 237.612 749.717 235.129L751.074 234.485C752.241 236.946 753.459 239.369 754.697 241.688L753.371 242.395ZM162.546 232.57L161.171 231.963C162.263 229.488 163.402 227 164.555 224.569L165.912 225.213C164.765 227.632 163.632 230.107 162.546 232.57ZM746.394 227.706C745.363 225.266 744.347 222.726 743.375 220.157L744.78 219.625C745.745 222.176 746.754 224.698 747.778 227.121L746.394 227.706ZM169.481 217.953L168.142 217.27C169.368 214.863 170.644 212.442 171.934 210.076L173.253 210.796C171.97 213.15 170.7 215.558 169.481 217.953ZM740.632 212.504C739.78 209.995 738.942 207.392 738.14 204.767L739.577 204.328C740.374 206.938 741.208 209.526 742.054 212.02L740.632 212.504ZM177.229 203.75L175.931 202.993C177.293 200.657 178.706 198.313 180.13 196.027L181.404 196.822C179.989 199.096 178.584 201.428 177.229 203.75ZM735.877 196.958C735.173 194.4 734.481 191.752 733.821 189.089L735.279 188.727C735.937 191.378 736.625 194.013 737.326 196.559L735.877 196.958ZM185.78 190.018L184.529 189.186C186.021 186.938 187.568 184.68 189.126 182.477L190.353 183.345C188.803 185.536 187.264 187.782 185.78 190.018ZM731.861 181.242C731.147 178.686 730.319 176.114 729.4 173.596L730.812 173.08C731.744 175.635 732.584 178.245 733.308 180.838L731.861 181.242ZM195.118 176.809L193.917 175.905C195.54 173.747 197.217 171.584 198.901 169.477L200.074 170.416C198.4 172.511 196.733 174.662 195.118 176.809ZM726.357 166.145C725.264 163.731 724.059 161.305 722.774 158.934L724.096 158.217C725.397 160.619 726.619 163.078 727.726 165.525L726.357 166.145ZM205.216 164.171L204.071 163.198C205.817 161.14 207.617 159.08 209.423 157.074L210.539 158.08C208.744 160.075 206.953 162.124 205.216 164.171ZM216.039 152.147L214.952 151.109C216.815 149.158 218.733 147.206 220.653 145.308L221.71 146.377C219.799 148.266 217.892 150.207 216.039 152.147ZM718.696 151.984C717.281 149.747 715.758 147.502 714.169 145.314L715.385 144.431C716.992 146.645 718.533 148.916 719.965 151.18L718.696 151.984ZM227.544 140.774L226.52 139.676C228.49 137.837 230.518 135.999 232.546 134.213L233.539 135.341C231.521 137.118 229.504 138.946 227.544 140.774ZM709.239 138.93C707.56 136.884 705.781 134.833 703.949 132.837L705.056 131.82C706.906 133.837 708.704 135.908 710.401 137.976L709.239 138.93ZM239.685 130.08L238.725 128.924C240.795 127.202 242.923 125.482 245.05 123.812L245.977 124.994C243.862 126.656 241.745 128.367 239.685 130.08ZM698.339 127.03C696.452 125.173 694.469 123.315 692.446 121.507L693.448 120.386C695.488 122.21 697.488 124.085 699.393 125.958L698.339 127.03ZM252.388 120.101L251.493 118.893C253.648 117.294 255.862 115.698 258.071 114.15L258.933 115.381C256.735 116.921 254.532 118.51 252.388 120.101ZM686.303 116.26C684.247 114.581 682.105 112.906 679.936 111.28L680.837 110.077C683.022 111.716 685.181 113.404 687.253 115.096L686.303 116.26ZM265.607 110.838L264.779 109.584C267.022 108.1 269.32 106.624 271.609 105.195L272.404 106.471C270.126 107.892 267.84 109.361 265.607 110.838ZM673.372 106.559C671.188 105.051 668.921 103.546 666.633 102.088L667.441 100.82C669.744 102.289 672.027 103.804 674.225 105.321L673.372 106.559ZM279.316 102.281L278.554 100.986C280.867 99.6239 283.239 98.2678 285.608 96.9542L286.336 98.2692C283.979 99.5768 281.617 100.926 279.316 102.281ZM659.739 97.8565C657.451 96.5054 655.085 95.1593 652.707 93.8568L653.428 92.5382C655.821 93.849 658.201 95.2029 660.503 96.5622L659.739 97.8565ZM293.459 94.4343L292.763 93.102C295.149 91.8553 297.589 90.6192 300.014 89.4275L300.676 90.7772C298.263 91.963 295.834 93.1936 293.459 94.4343ZM645.55 90.0797C643.18 88.8747 640.735 87.6761 638.282 86.5178L638.924 85.1585C641.39 86.3232 643.848 87.5282 646.231 88.74L645.55 90.0797ZM307.984 87.296L307.355 85.9311C309.797 84.804 312.294 83.6869 314.778 82.6106L315.375 83.9901C312.902 85.0614 310.415 86.1739 307.984 87.296ZM630.916 83.163C628.475 82.0926 625.967 81.0314 623.46 80.0092L624.027 78.6168C626.546 79.6437 629.067 80.7104 631.519 81.7862L630.916 83.163ZM322.843 80.8592L322.279 79.4664C324.771 78.4552 327.319 77.4558 329.85 76.4958L330.383 77.9014C327.862 78.8568 325.325 79.8521 322.843 80.8592ZM615.924 77.0496C613.424 76.1038 610.864 75.1713 608.315 74.2782L608.813 72.8593C611.373 73.7566 613.944 74.6936 616.455 75.643L615.924 77.0496ZM337.988 75.1154L337.487 73.6979C340.027 72.7998 342.617 71.9163 345.185 71.0713L345.654 72.4993C343.097 73.3407 340.518 74.2205 337.988 75.1154ZM600.643 71.6905C598.097 70.8652 595.496 70.0545 592.911 69.281L593.341 67.8406C595.937 68.6173 598.549 69.4317 601.106 70.2606L600.643 71.6905ZM353.377 70.0518L352.938 68.6137C355.515 67.8282 358.14 67.0578 360.742 66.3246L361.15 67.7714C358.558 68.5019 355.943 69.2691 353.377 70.0518ZM585.127 67.045C582.544 66.3342 579.909 65.6394 577.295 64.9799L577.663 63.5221C580.287 64.1839 582.933 64.8819 585.526 65.5959L585.127 67.045ZM368.969 65.6564L368.592 64.2008C371.192 63.5267 373.847 62.8676 376.483 62.242L376.83 63.7048C374.203 64.3282 371.558 64.9849 368.969 65.6564ZM569.421 63.0815C566.807 62.4801 564.145 61.8966 561.509 61.3466L561.816 59.875C564.462 60.4269 567.134 61.0127 569.758 61.6168L569.421 63.0815ZM384.727 61.9159L384.411 60.4466C387.044 59.8778 389.722 59.3277 392.372 58.8111L392.659 60.2868C390.019 60.8011 387.351 61.3493 384.727 61.9159ZM553.564 59.7734C550.929 59.2792 548.246 58.8029 545.587 58.3581L545.835 56.8751C548.503 57.3217 551.196 57.7994 553.841 58.2958L553.564 59.7734ZM400.62 58.8171L400.362 57.3359C403.006 56.8742 405.703 56.4309 408.378 56.0182L408.607 57.504C405.942 57.9152 403.255 58.3568 400.62 58.8171ZM537.585 57.0996C534.931 56.7084 532.231 56.337 529.56 55.9953L529.75 54.5045C532.431 54.8471 535.141 55.2199 537.804 55.612L537.585 57.0996ZM416.616 56.3457L416.416 54.8558C419.085 54.4963 421.795 54.1578 424.472 53.8491L424.644 55.3427C421.977 55.65 419.275 55.9875 416.616 56.3457ZM521.515 55.0445C518.841 54.7541 516.129 54.4857 513.453 54.2462L513.588 52.7486C516.272 52.989 518.994 53.2588 521.677 53.5501L521.515 55.0445ZM432.686 54.4926L432.542 52.9963C435.223 52.7385 437.942 52.5026 440.625 52.2956L440.741 53.7942C438.067 54.0012 435.357 54.2361 432.686 54.4926ZM505.378 53.5977C502.704 53.4081 499.983 53.2409 497.292 53.1003L497.371 51.5985C500.071 51.74 502.801 51.9081 505.485 52.0982L505.378 53.5977ZM448.804 53.2473L448.717 51.7464C451.399 51.5898 454.124 51.4561 456.814 51.3485L456.874 52.8507C454.193 52.9574 451.477 53.0911 448.804 53.2473ZM489.198 52.7518C486.516 52.6611 483.796 52.5942 481.112 52.5534L481.135 51.0498C483.828 51.0915 486.558 51.1584 489.25 51.2491L489.198 52.7518ZM464.947 52.6029L464.914 51.1002C467.595 51.0425 470.32 51.0091 473.014 51.0004L473.019 52.504C470.334 52.5122 467.618 52.5457 464.947 52.6029Z" fill="#E0E0E0"/>
<path d="M9.38011 151.775H0.256226V212.309H9.38011V151.775Z" fill="#E0E0E0"/>
<path d="M32.0354 164.076H22.9115V212.309H32.0354V164.076Z" fill="#E0E0E0"/>
<path d="M54.6896 155.025H45.5662V212.309H54.6896V155.025Z" fill="#E0E0E0"/>
<path d="M77.3443 172.894H68.2205V212.309H77.3443V172.894Z" fill="#E0E0E0"/>
<path d="M99.9987 156.881H90.8752V212.309H99.9987V156.881Z" fill="#E0E0E0"/>
<path d="M122.654 148.526H113.53V212.309H122.654V148.526Z" fill="#E0E0E0"/>
<path d="M145.309 145.045H136.185V212.309H145.309V145.045Z" fill="#E0E0E0"/>
<path d="M9.38011 174.332H0.256226V212.309H9.38011V174.332Z" fill="#5D96FF"/>
<path d="M32.0354 182.048H22.9115V212.309H32.0354V182.048Z" fill="#5D96FF"/>
<path d="M54.6896 176.37H45.5662V212.309H54.6896V176.37Z" fill="#5D96FF"/>
<path d="M77.3443 187.581H68.2205V212.309H77.3443V187.581Z" fill="#5D96FF"/>
<path d="M99.9987 177.535H90.8752V212.309H99.9987V177.535Z" fill="#5D96FF"/>
<path d="M122.654 172.293H113.53V212.309H122.654V172.293Z" fill="#5D96FF"/>
<path d="M145.309 170.109H136.185V212.309H145.309V170.109Z" fill="#5D96FF"/>
<path d="M205.685 57.3354H152.952V64.9556H205.685V57.3354Z" fill="#D9D9D9"/>
<path d="M227.752 71.4207H152.952V79.041H227.752V71.4207Z" fill="#D9D9D9"/>
<path d="M603.491 275.735H326.339V285.393H603.491V275.735Z" fill="#E8E8E8"/>
<path d="M603.491 307.207H326.339V316.865H603.491V307.207Z" fill="#E8E8E8"/>
<path d="M603.491 337.567H326.339V347.225H603.491V337.567Z" fill="#E8E8E8"/>
<path d="M603.491 369.039H326.339V378.697H603.491V369.039Z" fill="#E8E8E8"/>
<path d="M603.491 404.395H326.339V414.053H603.491V404.395Z" fill="#E8E8E8"/>
<path d="M603.491 435.867H326.339V445.525H603.491V435.867Z" fill="#E8E8E8"/>
<path d="M603.491 466.227H326.339V475.885H603.491V466.227Z" fill="#E8E8E8"/>
<path d="M603.491 497.699H326.339V507.357H603.491V497.699Z" fill="#E8E8E8"/>
<path d="M270.589 306.801H294.302C298.614 306.801 302.11 303.303 302.11 298.989V275.265C302.11 270.95 298.614 267.453 294.302 267.453H270.589C266.277 267.453 262.781 270.95 262.781 275.265V298.989C262.781 303.303 266.277 306.801 270.589 306.801Z" fill="#4CA1F4"/>
<path d="M270.589 430.143H294.302C298.614 430.143 302.11 426.646 302.11 422.332V398.607C302.11 394.293 298.614 390.795 294.302 390.795H270.589C266.277 390.795 262.781 394.292 262.781 398.607V422.332C262.781 426.646 266.277 430.143 270.589 430.143Z" fill="#4CA1F4"/>
<path d="M281.103 419.978L270.189 410.491C269.294 409.713 269.199 408.357 269.977 407.461C270.754 406.566 272.11 406.471 273.005 407.249L280.722 413.958L291.692 401.676C292.482 400.791 293.838 400.715 294.723 401.505C295.607 402.296 295.683 403.653 294.893 404.538L281.103 419.978Z" fill="white"/>
<path d="M270.589 368.229H294.302C298.614 368.229 302.11 364.732 302.11 360.418V336.693C302.11 332.38 298.614 328.882 294.302 328.882H270.589C266.277 328.882 262.781 332.38 262.781 336.693V360.418C262.781 364.732 266.277 368.229 270.589 368.229Z" fill="#4CA1F4"/>
<path d="M281.103 358.066L270.189 348.579C269.294 347.8 269.199 346.444 269.977 345.549C270.754 344.653 272.11 344.559 273.005 345.336L280.722 352.045L291.692 339.763C292.482 338.879 293.838 338.803 294.723 339.593C295.607 340.383 295.683 341.741 294.893 342.625L281.103 358.066Z" fill="white"/>
<path d="M270.589 492.056H294.302C298.614 492.056 302.11 488.558 302.11 484.244V460.519C302.11 456.205 298.614 452.708 294.302 452.708H270.589C266.277 452.708 262.781 456.205 262.781 460.519V484.244C262.781 488.558 266.277 492.056 270.589 492.056Z" fill="#4CA1F4"/>
<path d="M281.103 481.892L270.189 472.405C269.294 471.627 269.199 470.27 269.977 469.375C270.754 468.48 272.11 468.385 273.005 469.162L280.722 475.871L291.692 463.589C292.482 462.704 293.838 462.628 294.723 463.419C295.607 464.209 295.683 465.566 294.893 466.451L281.103 481.892Z" fill="white"/>
<path d="M277.855 290.129C277.855 289.619 277.888 289.13 277.955 288.664C278.022 288.199 278.149 287.749 278.337 287.316C278.526 286.884 278.798 286.479 279.153 286.102C279.507 285.725 279.973 285.381 280.55 285.07C280.838 284.915 281.221 284.71 281.698 284.454C282.175 284.199 282.641 283.905 283.095 283.572C283.55 283.238 283.944 282.856 284.276 282.423C284.609 281.99 284.776 281.508 284.776 280.975C284.776 280.243 284.51 279.672 283.977 279.261C283.445 278.851 282.835 278.645 282.148 278.645C281.703 278.645 281.31 278.729 280.966 278.895C280.622 279.061 280.312 279.261 280.035 279.494C279.757 279.727 279.519 279.988 279.319 280.277C279.119 280.565 278.942 280.821 278.787 281.042L275.36 278.646C275.936 277.292 276.852 276.238 278.105 275.483C279.358 274.729 280.771 274.351 282.347 274.351C283.19 274.351 284.033 274.474 284.875 274.718C285.718 274.962 286.472 275.35 287.138 275.883C287.803 276.415 288.347 277.104 288.768 277.947C289.19 278.79 289.401 279.811 289.401 281.009C289.401 282.274 289.14 283.334 288.619 284.188C288.097 285.042 287.326 285.792 286.306 286.435C285.84 286.746 285.369 287.023 284.892 287.267C284.415 287.511 283.977 287.766 283.578 288.032C283.178 288.299 282.857 288.598 282.614 288.931C282.369 289.264 282.247 289.664 282.247 290.13H277.855V290.129ZM277.954 298.285V293.292H282.313V298.285H277.954Z" fill="white"/>
<path d="M389.07 259.543C389.07 259.543 385.439 262.726 382.18 267.617C378.92 272.509 370.268 272.769 369.898 279.446C369.527 286.123 381.661 286.329 388.032 284.155C394.403 281.981 395.366 275.459 399.219 273.829C403.072 272.198 405.071 270.878 404.775 267.695C404.479 264.512 402.347 259.344 402.347 259.344C402.347 259.344 399.954 260.109 398.546 260.264C397.138 260.419 392.403 260.474 389.07 259.543Z" fill="#252840"/>
<path d="M432.738 78.6306C432.738 78.6306 430.296 93.1584 428.329 102.754C428.329 102.754 428.329 102.754 428.329 102.755C427.53 106.646 426.81 109.727 426.363 110.696C425.8 111.917 421.216 116.84 415.608 122.618C405.765 132.755 392.762 145.52 392.762 145.52L387.679 135.866C387.679 135.866 399.229 122.319 407.059 113.28C410.683 109.096 413.51 105.88 414.028 105.416C415.665 103.951 417.565 89.5136 420.236 77.6189C422.907 65.7232 428.259 59.15 428.259 59.15L432.738 78.6306Z" fill="#FFBF55"/>
<path d="M415.608 122.618C405.765 132.755 392.762 145.52 392.762 145.52L387.679 135.866C387.679 135.866 399.229 122.319 407.059 113.28C409.459 114.457 413.865 117.266 415.608 122.618Z" fill="#EEA886"/>
<path d="M478.725 255.565C478.725 255.565 482.068 259.263 484.044 261.505C486.022 263.747 493.592 267.754 493.632 274.411C493.677 281.63 488.048 280.998 483.039 280.734C478.031 280.47 473.961 277.009 471.852 272.921C469.744 268.833 464.133 267.759 463.737 264.462C463.342 261.166 466.338 255.232 466.338 255.232L478.725 255.565Z" fill="#252840"/>
<path d="M466.985 249.087L466.339 255.232C466.339 255.232 476.792 259.79 478.726 255.565L478.277 250.092L466.985 249.087Z" fill="#5F8CC9"/>
<path d="M389.64 255.094L389.07 259.543C389.07 259.543 395.387 261.776 402.347 259.345L402.489 255.389L389.64 255.094Z" fill="#5F8CC9"/>
<path d="M479.316 143.557C479.68 144.85 412.406 143.557 412.406 143.557C412.406 143.557 431.015 130.005 432.221 126.384C433.427 122.764 427.482 101.042 426.707 93.9736C426.087 88.3182 424.532 63.0142 428.258 59.1496C432.153 55.1095 446.178 50.8749 446.178 50.8749L466.626 51.6342C466.626 51.6342 470 52.34 472.413 53.4608C474.825 54.581 488.62 59.4976 490.861 66.3933C493.101 73.2889 477.095 95.4603 477.095 95.4603C477.095 95.4603 477.065 96.4564 477.016 98.0892C477.016 98.0901 477.016 98.0901 477.016 98.0901C476.954 100.267 476.863 103.576 476.779 107.166C476.672 111.815 476.579 116.933 476.579 120.672C476.579 129.464 478.953 142.263 479.316 143.557Z" fill="#FFBF55"/>
<path d="M479.317 143.557C479.317 143.557 488.467 157.003 488.596 166.182C488.725 175.362 485.207 200.816 484.948 205.858C484.69 210.901 479.951 252.923 479.951 252.923C479.951 252.923 476.289 256.328 465.305 252.061C465.305 252.061 462.88 212.21 462.622 207.943C462.363 203.677 462.363 184.025 459.908 181.18C457.452 178.336 442.592 169.415 440.653 167.734C438.714 166.053 404.945 174.118 401.407 175.036C392.245 177.413 396.421 193.364 398.448 200.514C401.839 212.477 404.803 255.681 404.803 255.681C404.803 255.681 398.277 258.463 387.346 256.112C387.346 256.112 365.881 178.103 365.192 170.345C364.502 162.587 364.164 149.796 417.061 140.072L479.317 143.557Z" fill="#323657"/>
<path d="M451.789 6.42691C451.789 6.42691 434.04 2.42078 438.094 24.7698C442.148 47.1184 446.417 48.8748 457.126 44.2495C467.834 39.6246 466.875 25.3061 467.414 18.285C467.953 11.2639 457.451 6.67103 451.789 6.42691Z" fill="#EEA886"/>
<path d="M447.092 56.6113C447.092 56.6113 454.953 64.9492 467.377 57.3716C467.377 57.3716 464.599 39.3021 466.061 30.5008C467.523 21.6994 449.852 44.1377 449.852 44.1377C450.085 44.26 450.238 45.0995 450.273 46.2944C450.304 47.3075 450.25 48.5748 450.088 49.8755C449.723 52.8017 448.813 55.8918 447.092 56.6113Z" fill="#EEA886"/>
<path d="M461.309 21.8061C461.543 19.8344 465.438 19.1117 465.752 22.0676C466.065 25.0235 463.982 30.2118 462.503 29.7015C461.024 29.1913 460.986 24.5248 461.309 21.8061Z" fill="#EEA886"/>
<path d="M466.549 29.7533C466.549 29.7533 466.091 22.7115 463.52 22.4922C460.95 22.2723 460.555 25.1082 460.555 25.1082L457.959 25.5983C457.959 25.5983 458.778 19.4263 456.212 18.3482C453.646 17.27 439.582 21.7456 437.521 19.9342C435.461 18.1228 436.43 5.60341 440.157 3.89049C443.883 2.17758 454.174 -1.66184 461.714 3.4444C461.714 3.4444 467.592 2.77435 468.463 7.51923C469.335 12.265 468.147 26.2244 466.549 29.7533Z" fill="#3A3F47"/>
<path d="M450.088 49.876C462.905 45.9216 463.87 38.2007 463.884 38.0802C459.663 45.3358 450.274 46.2949 450.274 46.2949C450.303 47.308 450.25 48.5753 450.088 49.876Z" fill="#A77860"/>
<path d="M472.623 53.5579C472.623 53.5579 463.237 72.2516 448.074 71.0452C432.911 69.8388 445.489 51.0485 446.178 50.8749C446.936 50.6839 461.729 46.9961 472.623 53.5579Z" fill="#EEA886"/>
<path d="M404.71 142.61C404.71 142.61 451.17 148.341 479.317 143.557L425.534 136.834C425.534 136.834 425.216 138.206 404.71 142.61Z" fill="#FFBF55"/>
<path d="M439.458 134.716L435.997 136.471C435.997 136.471 436.786 141.971 438.681 143.637L442.565 142.646C442.565 142.647 441.756 136.613 439.458 134.716Z" fill="#EEA886"/>
<path d="M493.219 123.454C492.527 124.255 483.393 127.931 473.075 131.907L473.074 131.908C458.979 137.341 443.078 142.48 443.078 142.48L439.458 134.717C439.458 134.717 456.11 125.664 467.361 119.316C472.676 116.318 476.786 113.922 477.366 113.369C479.176 111.645 479.645 108.88 478.314 104.059C476.984 99.2383 473.92 77.0794 473.575 74.4935C473.23 71.9076 474.437 65.0115 480.899 64.6667C487.36 64.3222 490.649 66.1469 490.649 66.1469C490.649 66.1469 492.271 66.822 493.477 82.5099C494.684 98.1978 494.856 121.557 493.219 123.454Z" fill="#FFBF55"/>
<path d="M477.016 98.0897C477.016 98.0906 477.016 98.0906 477.016 98.0906C476.954 100.268 476.863 103.577 476.779 107.166C470.473 91.7006 474.116 79.3579 474.178 79.1505C473.496 83.3471 476.967 97.8836 477.016 98.0897Z" fill="#B08439"/>
<path d="M428.329 102.754C428.329 102.754 428.329 102.754 428.329 102.755C427.53 106.646 426.81 109.727 426.363 110.696C424.209 100.267 426.147 86.9131 426.147 86.9131C426.441 93.2917 428.329 102.754 428.329 102.754Z" fill="#B08439"/>
<path d="M473.076 131.907L473.075 131.908C458.979 137.341 442.566 142.647 442.566 142.647L439.459 134.717C439.459 134.717 456.11 125.664 467.362 119.316C467.361 119.316 471.455 121.311 473.076 131.907Z" fill="#EEA886"/>
<path d="M438.457 143.106L372.422 142.135L405.762 159.072L438.457 143.106Z" fill="#5E5853"/>
<path d="M405.762 159.072L438.457 146.401V143.106L403.178 155.839L405.762 159.072Z" fill="#91887F"/>
<path d="M436.745 136.591C436.745 136.591 432.62 135.949 429.769 135.284C427.563 134.77 422.077 135.478 420.68 136.895C419.283 138.312 414.839 148.182 413.999 148.784C413.158 149.387 414.429 150.78 415.905 150.08C415.905 150.08 417.26 154.399 420.605 152.783C423.949 151.166 426.22 147.636 427.971 147.014C429.723 146.392 439.921 143.255 439.921 143.255C439.921 143.255 439.374 135.54 436.745 136.591Z" fill="#EEA886"/>
<path d="M421.687 136.248C421.687 136.248 419.037 137.528 418.346 138.099C417.654 138.67 414.85 140.77 414.171 141.264C413.492 141.758 415.195 143.163 420.208 140.991C425.221 138.818 421.687 136.248 421.687 136.248Z" fill="#EEA886"/>
<path d="M405.762 159.072L386.12 105.416L322.799 106.45L341.519 155.895L405.762 159.072Z" fill="#6E6760"/>
<path d="M364.537 138.536C367.189 137.208 367.773 132.999 365.84 129.135C363.908 125.27 360.191 123.213 357.539 124.541C354.887 125.868 354.304 130.077 356.236 133.942C358.169 137.806 361.885 139.863 364.537 138.536Z" fill="#807066"/>
<path d="M648.682 370.066H622.977C622.109 370.066 621.406 369.362 621.406 368.494V362.94C621.406 362.072 622.109 361.368 622.977 361.368H648.682C649.55 361.368 650.253 362.072 650.253 362.94V368.494C650.253 369.362 649.549 370.066 648.682 370.066Z" fill="#E0E0E0"/>
<path d="M648.682 390.923H622.977C622.109 390.923 621.406 390.219 621.406 389.351V383.797C621.406 382.929 622.109 382.225 622.977 382.225H648.682C649.55 382.225 650.253 382.929 650.253 383.797V389.351C650.253 390.219 649.549 390.923 648.682 390.923Z" fill="#E0E0E0"/>
<path d="M648.682 411.78H622.977C622.109 411.78 621.406 411.076 621.406 410.207V404.654C621.406 403.785 622.109 403.081 622.977 403.081H648.682C649.55 403.081 650.253 403.785 650.253 404.654V410.207C650.253 411.076 649.549 411.78 648.682 411.78Z" fill="#E0E0E0"/>
<path d="M648.682 432.637H622.977C622.109 432.637 621.406 431.933 621.406 431.064V425.511C621.406 424.642 622.109 423.938 622.977 423.938H648.682C649.55 423.938 650.253 424.642 650.253 425.511V431.064C650.253 431.933 649.549 432.637 648.682 432.637Z" fill="#E0E0E0"/>
<path d="M648.682 453.493H622.977C622.109 453.493 621.406 452.79 621.406 451.921V446.367C621.406 445.499 622.109 444.795 622.977 444.795H648.682C649.55 444.795 650.253 445.499 650.253 446.367V451.921C650.253 452.79 649.549 453.493 648.682 453.493Z" fill="#E0E0E0"/>
<path d="M648.682 474.35H622.977C622.109 474.35 621.406 473.646 621.406 472.778V467.224C621.406 466.356 622.109 465.652 622.977 465.652H648.682C649.55 465.652 650.253 466.355 650.253 467.224V472.778C650.253 473.646 649.549 474.35 648.682 474.35Z" fill="#E0E0E0"/>
<path d="M668.801 370.066H663.735C662.868 370.066 662.164 369.362 662.164 368.494V362.94C662.164 362.072 662.868 361.368 663.735 361.368H668.801C669.669 361.368 670.372 362.072 670.372 362.94V368.494C670.372 369.362 669.669 370.066 668.801 370.066Z" fill="#E0E0E0"/>
<path d="M668.801 390.923H663.735C662.868 390.923 662.164 390.219 662.164 389.351V383.797C662.164 382.929 662.868 382.225 663.735 382.225H668.801C669.669 382.225 670.372 382.929 670.372 383.797V389.351C670.372 390.219 669.669 390.923 668.801 390.923Z" fill="#E0E0E0"/>
<path d="M668.801 411.78H663.735C662.868 411.78 662.164 411.076 662.164 410.207V404.654C662.164 403.785 662.868 403.081 663.735 403.081H668.801C669.669 403.081 670.372 403.785 670.372 404.654V410.207C670.372 411.076 669.669 411.78 668.801 411.78Z" fill="#E0E0E0"/>
<path d="M668.801 432.637H663.735C662.868 432.637 662.164 431.933 662.164 431.064V425.511C662.164 424.642 662.868 423.938 663.735 423.938H668.801C669.669 423.938 670.372 424.642 670.372 425.511V431.064C670.372 431.933 669.669 432.637 668.801 432.637Z" fill="#E0E0E0"/>
<path d="M668.801 453.493H663.735C662.868 453.493 662.164 452.79 662.164 451.921V446.367C662.164 445.499 662.868 444.795 663.735 444.795H668.801C669.669 444.795 670.372 445.499 670.372 446.367V451.921C670.372 452.79 669.669 453.493 668.801 453.493Z" fill="#E0E0E0"/>
<path d="M668.801 474.35H663.735C662.868 474.35 662.164 473.646 662.164 472.778V467.224C662.164 466.356 662.868 465.652 663.735 465.652H668.801C669.669 465.652 670.372 466.355 670.372 467.224V472.778C670.372 473.646 669.669 474.35 668.801 474.35Z" fill="#E0E0E0"/>
<path d="M664.655 475.872C664.655 475.872 652.327 447.927 666.63 450.241C666.63 450.241 671.499 454.268 676.495 462.472C680.281 468.686 688.15 485.132 687.859 490.696C687.567 496.257 683.613 500.406 679.342 509.34C679.342 509.34 670.466 525.92 670.091 527.918L660.707 523.043C660.707 523.043 668.659 507.19 674.263 493.253L664.655 475.872Z" fill="#6F5BE0"/>
<path d="M707.378 546.227L543.076 518.069L547.355 492.924L711.657 521.082L707.378 546.227Z" fill="url(#paint2_linear)"/>
<path d="M546.837 495.931L538.941 494.586L535.694 513.672L543.59 515.016L546.837 495.931Z" fill="#2D3038"/>
<path d="M593.291 712.614H590.964C590.964 712.614 591.74 703.824 589.586 703.738C587.434 703.652 582.094 710.89 578.906 712.011C575.719 713.131 559.355 714.078 559.269 711.063C559.182 708.048 565.555 706.839 567.537 705.979C569.517 705.116 579.165 695.723 580.887 694.604C582.611 693.482 585.55 685.694 585.55 685.694L594.685 685.288C594.685 685.288 595.202 692.568 595.755 696.423C595.962 697.848 596.111 699.147 596.133 700.033C596.218 703.307 593.291 712.614 593.291 712.614Z" fill="#EEA886"/>
<path d="M652.143 710.876H650.205V702.695C648.59 702.83 643.162 707.969 641.482 709.457C639.804 710.942 637.5 710.877 630.425 711.326C623.352 711.776 622.685 707.54 623.804 706.097C624.923 704.655 628.542 704.024 630.425 703.124C632.308 702.222 639.739 693.839 641.721 691.856C643.7 689.873 644.908 684.194 644.908 684.194L653.177 684.915C653.177 684.915 653.123 690.111 654.065 694.469V694.472C654.07 694.482 654.072 694.494 654.074 694.504C654.154 694.876 654.242 695.24 654.339 695.595C655.567 700.126 652.143 710.876 652.143 710.876Z" fill="#EEA886"/>
<path d="M621.569 525.429C621.569 525.429 618.444 532.822 618.168 534.69C617.892 536.557 610.577 554.249 608.461 566.177C607.194 573.317 603.698 595.67 603.414 598.511C602.929 603.376 600.64 614.112 600.288 619.08C600.091 621.857 586.42 664.487 583.111 686.742C583.111 686.742 590.974 687.908 596.88 686.345C596.88 686.345 608.882 663.343 615.546 630.717C619.56 611.066 623.11 600.588 626.219 592.495C629.328 584.402 646.94 561.481 648.778 558.906C650.617 556.331 662.134 542.1 651.228 526.683C640.321 511.266 621.569 525.429 621.569 525.429Z" fill="#292C47"/>
<path d="M660.941 590.914C659.943 597.551 660.992 606.271 663.075 630.54C665.162 654.807 659.428 684.193 659.428 684.193C652.228 686.658 643.937 684.193 643.937 684.193C644.127 682.486 643.937 625.041 643.937 619.922C643.937 614.803 642.468 608.993 642.09 603.118C641.831 599.114 639.969 591.731 637.874 584.195C637.246 581.937 636.598 579.668 635.967 577.47C635.967 577.466 635.967 577.466 635.967 577.466C635.612 576.235 635.265 575.023 634.927 573.852C631.977 563.614 628.009 524.082 628.009 524.082C628.009 524.082 650 506.359 660.708 523.044C671.416 539.726 665.918 551.86 665.54 553.945C665.162 556.032 661.939 584.28 660.941 590.914Z" fill="#292C47"/>
<path d="M651.822 555.261C651.652 555.639 640.694 579.974 637.874 584.194C637.246 581.936 636.598 579.667 635.967 577.469C635.967 577.465 635.967 577.465 635.967 577.465C635.967 577.465 651.456 555.796 651.822 555.261Z" fill="#191B2B"/>
<path d="M652.143 710.876H650.205V702.695C648.59 702.83 643.162 707.969 641.482 709.457C639.804 710.942 637.5 710.877 630.425 711.326C623.352 711.776 622.685 707.54 623.804 706.097C624.923 704.655 628.542 704.024 630.425 703.124C637.993 703.529 647.228 692.884 651.66 692.906C654.016 692.917 653.994 694.223 654.065 694.469V694.472C654.07 694.482 654.072 694.494 654.074 694.504C654.154 694.876 654.242 695.24 654.339 695.595C655.567 700.126 652.143 710.876 652.143 710.876Z" fill="#C6C9CC"/>
<path d="M593.291 712.614H590.964C590.964 712.614 591.74 703.824 589.586 703.738C587.434 703.652 582.094 710.89 578.905 712.011C575.719 713.131 559.355 714.078 559.269 711.063C559.182 708.048 565.555 706.839 567.537 705.979C574.286 705.963 585.263 698.53 588.667 697.024C592.07 695.517 595.755 696.422 595.755 696.422C595.961 697.848 596.11 699.146 596.132 700.033C596.218 703.307 593.291 712.614 593.291 712.614Z" fill="#C6C9CC"/>
<path d="M640.985 432.626C640.985 432.626 644.495 441.914 641.765 449.093C641.765 449.093 654.632 448.256 655.12 446.754C655.607 445.25 654.602 431.333 656.372 427.22C658.142 423.107 640.985 432.626 640.985 432.626Z" fill="#EEA886"/>
<path d="M639.743 445.952C639.743 445.952 632.14 448.657 628.704 449.409C625.268 450.161 618.079 453.567 618.664 466.393C619.249 479.218 621.393 490.34 622.173 495.851C622.953 501.361 622.465 515.389 621.198 522.203C621.198 522.203 639.426 526.812 660.871 522.203C660.871 522.203 657.069 510.58 657.167 507.574C657.264 504.568 669.839 479.819 670.424 475.911C671.009 472.004 673.543 454.77 667.792 450.962C662.041 447.154 657.362 447.655 654.925 445.952C652.489 444.249 643.3 444.73 639.743 445.952Z" fill="#6F5BE0"/>
<path d="M669.081 542.357C637.939 550.623 613.156 542.389 613.156 542.389C615.416 537.742 617.078 533.105 618.282 528.616C618.282 528.613 618.284 528.613 618.284 528.612C619.135 525.44 619.757 522.344 620.201 519.369V519.367C622.732 502.392 619.431 489.395 619.431 489.395C623.026 459.795 667.792 450.961 671.377 460.343C674.962 469.726 664.429 510.048 663.895 513.506C663.362 516.963 669.081 542.357 669.081 542.357Z" fill="#6F5BE0"/>
<path d="M652.2 395.358C647.028 393.583 633.046 391.693 629.464 413.165C625.883 434.638 633.684 435.006 641.699 434.395C649.713 433.784 662.25 419.291 663.21 414.886C664.17 410.48 666.96 400.424 652.2 395.358Z" fill="#EEA886"/>
<path d="M632.346 403.604C632.346 403.604 636.617 412.746 642.219 415.932C642.219 415.932 645.728 425.645 653.328 429.574C653.328 429.574 673.497 416.206 661.794 400.322C650.091 384.438 633.667 397.088 632.346 403.604Z" fill="#0F324F"/>
<path d="M641.724 412.763C642.178 411.646 645.2 409.829 646.556 412.894C647.912 415.958 643.044 421.357 641.71 421.067C640.377 420.775 640.002 417.002 641.724 412.763Z" fill="#EEA886"/>
<path d="M661.111 402.777C661.552 402.089 674.908 395.903 677.686 408.829C680.464 421.755 666.93 436.784 664.558 443.247C662.187 449.71 665.63 464.858 665.63 464.858C665.63 464.858 657.486 457.156 655.022 449.094C652.317 440.241 651.409 417.917 661.111 402.777Z" fill="#0F324F"/>
<path d="M661.785 402.336C661.785 402.336 657.697 405.572 657.17 410.678C657.17 410.678 656.402 406.695 658.051 404.261C659.699 401.827 661.785 402.336 661.785 402.336Z" fill="#E54242"/>
<path d="M618.284 528.612C619.136 525.441 620.242 518.498 620.686 515.523C620.686 515.523 622.561 514.124 622.946 512.913C623.614 510.818 628.795 485.166 628.795 485.166C628.795 485.166 634.25 509.265 618.284 528.612Z" fill="#1D3B54"/>
<path d="M595.876 522.379C595.876 522.379 590.308 524.965 589.01 525.366C587.711 525.768 585.207 523.556 575.986 522.871C575.176 522.81 573.753 523.54 574.088 524.61C574.423 525.68 578.437 528.591 580.155 529.036C581.873 529.481 589.976 532.702 593.926 531.121C597.876 529.539 600.562 524.511 600.562 524.511L595.876 522.379Z" fill="#EEA886"/>
<path d="M626.553 450.112C626.553 450.112 615.889 454.34 615.257 469.17C614.626 484 614.046 491.741 613.468 494.03C612.889 496.318 611.783 505.518 609.099 511.054C606.495 516.425 589.344 524.914 589.344 524.914L594.559 531.554C594.559 531.554 621.5 517.286 622.947 512.913C624.394 508.54 630.349 478.11 630.824 472.979C631.206 468.844 636.657 450.419 626.553 450.112Z" fill="#6F5BE0"/>
<path d="M525.917 488.412C525.903 488.809 525.875 489.206 525.848 489.604H541.11C541.138 489.207 541.152 488.81 541.165 488.412H525.917ZM355.692 484.194C355.692 484.66 355.692 485.112 355.706 485.578C355.733 487.508 355.815 489.426 355.98 491.33C356.376 496.753 357.253 502.053 358.566 507.188C362.741 523.622 371.31 538.303 382.945 549.888C383.397 550.354 383.849 550.792 384.3 551.231C386.121 552.983 388.023 554.668 389.994 556.257C405.955 569.253 426.309 577.032 448.483 577.032C448.853 577.032 449.222 577.032 449.592 577.018C466.415 576.826 482.17 572.143 495.707 564.118C501.853 560.475 507.534 556.147 512.667 551.231C523.357 540.973 531.611 528.182 536.443 513.817C537.169 511.639 537.826 509.435 538.4 507.188C539.413 503.19 540.18 499.081 540.659 494.904V494.89C540.755 494 540.851 493.11 540.919 492.206C541.001 491.344 541.07 490.481 541.11 489.605C541.138 489.207 541.152 488.81 541.165 488.413C541.207 487.536 541.234 486.673 541.248 485.797C541.261 485.263 541.261 484.729 541.261 484.195C541.261 437.728 507.137 399.232 462.582 392.439C461.72 392.302 460.857 392.179 459.981 392.069C459.023 391.96 458.065 391.85 457.107 391.768C456.244 391.686 455.369 391.617 454.506 391.563C452.507 391.425 450.496 391.371 448.483 391.371C446.772 391.371 445.075 391.412 443.391 391.508C440.503 391.658 437.656 391.96 434.836 392.371C407.94 396.329 384.794 411.845 370.612 433.715C367.779 438.07 365.301 442.685 363.221 447.52C363.084 447.821 362.961 448.136 362.838 448.437C362.701 448.725 362.591 449.026 362.482 449.314C361.77 451.026 361.127 452.765 360.538 454.518C359.005 459.065 357.814 463.776 357.006 468.61C356.774 469.883 356.596 471.171 356.418 472.472C356.404 472.691 356.377 472.91 356.35 473.144C356.337 473.157 356.337 473.171 356.337 473.198C356.322 473.307 356.309 473.417 356.309 473.527C356.281 473.65 356.267 473.773 356.254 473.91V474.006C356.24 474.061 356.226 474.13 356.226 474.198C356.213 474.294 356.199 474.39 356.199 474.485C356.171 474.719 356.144 474.951 356.131 475.184C355.994 476.608 355.884 478.046 355.816 479.484C355.802 479.676 355.788 479.881 355.788 480.073C355.774 480.388 355.76 480.703 355.747 481.017C355.706 482.071 355.692 483.126 355.692 484.194ZM376.485 513.077L376.128 512.173C375.869 511.501 375.622 510.831 375.375 510.146L374.814 508.503C374.677 508.092 374.54 507.681 374.417 507.27C374.404 507.243 374.404 507.216 374.39 507.188C374.362 507.105 374.335 507.037 374.322 506.955C374.102 506.27 373.911 505.571 373.72 504.873L373.5 504.065C373.295 503.326 373.117 502.572 372.939 501.819C372.925 501.751 372.897 501.669 372.884 501.586C372.734 500.888 372.583 500.189 372.446 499.491C372.378 499.204 372.323 498.916 372.268 498.628C372.104 497.752 371.953 496.862 371.816 495.971C371.57 494.41 371.392 492.835 371.241 491.247C371.187 490.713 371.146 490.165 371.105 489.617C371.105 489.617 371.118 489.617 371.105 489.604C371.105 489.425 371.091 489.261 371.077 489.083C371.036 488.343 370.995 487.604 370.967 486.864V486.645C370.954 486.481 370.954 486.302 370.954 486.124C370.94 485.481 370.926 484.837 370.926 484.193C370.926 483.591 370.926 482.988 370.954 482.399C370.995 479.989 371.159 477.62 371.447 475.278C371.46 475.031 371.488 474.785 371.529 474.538C371.529 474.525 371.529 474.511 371.542 474.497C371.529 474.484 371.542 474.484 371.542 474.484C371.529 474.47 371.529 474.456 371.542 474.442C371.542 474.388 371.542 474.333 371.556 474.292C371.556 474.278 371.556 474.264 371.556 474.264C371.556 474.236 371.556 474.223 371.569 474.21C373.048 462.637 377.086 451.873 383.081 442.479C390.09 431.509 399.78 422.416 411.224 416.144C414.249 414.473 417.397 413.007 420.641 411.761C421.668 411.364 422.722 410.981 423.776 410.638C429.648 408.653 435.849 407.366 442.268 406.872C444.322 406.695 446.389 406.612 448.483 406.612C449.113 406.612 449.729 406.612 450.359 406.64C451.084 406.653 451.796 406.681 452.522 406.708C453.042 406.735 453.561 406.776 454.082 406.817C454.232 406.817 454.369 406.831 454.506 406.845C455.369 406.9 456.244 406.982 457.107 407.078C457.326 407.105 457.545 407.132 457.764 407.159C458.106 407.201 458.462 407.242 458.804 407.296C459.201 407.338 459.585 407.392 459.981 407.46C460.857 407.584 461.72 407.735 462.582 407.885C462.665 407.899 462.746 407.912 462.815 407.926C463.486 408.049 464.157 408.186 464.827 408.337C464.869 408.351 464.909 408.351 464.951 408.365C465.224 408.419 465.512 408.488 465.786 408.556C466.416 408.693 467.031 408.844 467.647 409.008C467.921 409.063 468.194 409.131 468.455 409.213C469.167 409.405 469.878 409.597 470.59 409.816C471.274 410.007 471.945 410.226 472.616 410.446C472.931 410.541 473.246 410.651 473.547 410.761C474.888 411.213 476.216 411.706 477.516 412.24C477.872 412.377 478.228 412.528 478.584 412.678C479.132 412.912 479.665 413.144 480.213 413.391C480.651 413.583 481.089 413.774 481.514 413.993C482.157 414.281 482.786 414.596 483.416 414.911C484.128 415.267 484.826 415.637 485.51 416.02C486.304 416.445 487.07 416.883 487.837 417.334C489.425 418.266 490.958 419.252 492.464 420.293C493.107 420.731 493.736 421.183 494.366 421.662C495.16 422.224 495.926 422.813 496.679 423.415C497.35 423.949 498.021 424.497 498.678 425.059C499.362 425.634 500.02 426.209 500.676 426.811C516.253 440.999 526.027 461.46 526.027 484.193C526.027 484.727 526.027 485.261 526.013 485.795C525.999 486.671 525.972 487.534 525.917 488.411C525.904 488.808 525.876 489.205 525.849 489.603C525.781 490.479 525.712 491.342 525.616 492.205C525.369 494.67 525 497.094 524.521 499.49C524 502.106 523.344 504.681 522.564 507.187C521.947 509.186 521.25 511.158 520.469 513.075C515.268 526.072 506.644 537.329 495.708 545.737C493.107 547.737 490.383 549.572 487.55 551.229C476.38 557.761 463.431 561.582 449.593 561.774C449.223 561.787 448.854 561.787 448.484 561.787C434.235 561.787 420.875 557.939 409.405 551.228C396.976 543.97 386.751 533.343 379.976 520.593C379.633 519.935 379.291 519.278 378.962 518.621L378.36 517.361C378.114 516.868 377.895 516.375 377.662 515.868L377.443 515.375C377.251 514.937 377.06 514.499 376.881 514.047L376.485 513.077Z" fill="#3F444F"/>
<path opacity="0.1" d="M448.48 561.512C491.158 561.512 525.756 526.897 525.756 484.198C525.756 441.499 491.158 406.885 448.48 406.885C405.802 406.885 371.205 441.499 371.205 484.198C371.205 526.897 405.802 561.512 448.48 561.512Z" fill="#B8B8B8"/>
<path opacity="0.3" d="M500.67 426.808C500.67 426.808 400.029 414.328 379.976 520.596C379.976 520.596 379.976 520.595 379.975 520.595C374.202 509.74 370.93 497.351 370.93 484.198C370.93 441.347 405.65 406.609 448.48 406.609C468.579 406.609 486.893 414.259 500.67 426.808Z" fill="#869AC2"/>
<path d="M164.888 571.285L198.516 589.778L232.285 536.61L191.442 522.415L164.888 571.285Z" fill="#292C47"/>
<path d="M167.02 569.688L198.468 586.982L230.049 537.26L191.853 523.986L167.02 569.688Z" fill="#E2D2CA"/>
<path d="M155.504 560.389C155.504 560.389 161.357 557.588 163.925 556.124C166.494 554.66 173.103 552.651 173.637 552.173C174.171 551.696 193.227 550.52 194.382 549.522C195.538 548.524 196.662 551.86 191.723 552.943C186.784 554.025 179.911 556.672 179.535 558.603C179.159 560.534 184.608 560.992 185.16 562.582C185.712 564.173 185.005 563.816 184.224 564.158C183.443 564.499 177.743 561.34 175.236 562.237C172.729 563.133 168.898 561.892 166.977 562.55C165.055 563.208 155.714 566.353 155.714 566.353L155.504 560.389Z" fill="#EEA886"/>
<path d="M200.155 583.107C200.155 583.107 205.072 578.679 207.451 576.827C209.83 574.975 214.296 569.527 214.953 569.209C215.611 568.892 224.139 551.383 225.529 550.682C226.919 549.98 224.214 547.622 221.271 551.857C218.328 556.092 213.159 561.542 211.194 561.144C209.228 560.747 210.919 555.431 209.636 554.291C208.352 553.152 208.413 553.957 207.788 554.56C207.162 555.163 207.918 561.767 206.098 563.782C204.277 565.796 203.954 569.892 202.586 571.447C201.219 573.002 194.619 580.585 194.619 580.585L200.155 583.107Z" fill="#EEA886"/>
<path d="M94.2604 819.764C94.2604 819.764 93.197 827.151 93.0638 828.26C92.931 829.37 81.2317 827.606 81.2317 827.606L80.2841 818.813C80.2841 818.813 92.7978 818.722 94.2604 819.764Z" fill="#424773"/>
<path d="M93.1883 827.321C93.1883 827.321 96.8949 831.772 100.48 833.712C104.065 835.651 109.699 836.42 111.819 838.428C113.35 839.878 117.393 846.119 102.503 845.993C87.6131 845.867 80.4338 846.875 78.8389 844.482C77.2436 842.089 81.147 826.821 81.147 826.821C81.147 826.821 84.6733 828.09 93.1883 827.321Z" fill="#292C47"/>
<path d="M178.086 819.764C178.086 819.764 177.023 827.151 176.89 828.26C176.757 829.37 165.058 827.606 165.058 827.606L164.111 818.813C164.111 818.813 176.624 818.722 178.086 819.764Z" fill="#424773"/>
<path d="M177.014 827.321C177.014 827.321 180.721 831.772 184.306 833.712C187.892 835.651 201.085 837.245 203.205 839.253C204.735 840.703 207.28 846.538 186.329 845.993C171.444 845.605 164.26 846.875 162.665 844.482C161.07 842.089 164.974 826.821 164.974 826.821C164.974 826.821 168.295 828.176 177.014 827.321Z" fill="#292C47"/>
<path d="M103.948 629.966C103.948 629.966 92.9553 647.44 93.7752 663.236C94.5955 679.031 89.7894 696.276 88.1382 712.776C86.2975 731.171 78.7634 774.72 78.4901 784.559C78.2168 794.398 79.6597 825.819 79.6597 825.819L94.7406 826.164C94.7406 826.164 107.407 750.031 110.688 742.263C113.968 734.496 130.236 679.114 130.783 672.9C131.33 666.685 103.948 629.966 103.948 629.966Z" fill="#292C47"/>
<path d="M161.816 632.333C161.816 632.333 170.101 675.626 171.194 685.293C172.288 694.961 173.016 732.077 173.563 738.12C174.11 744.162 177.208 817.187 180.124 826.164H160.844C160.844 826.164 146.044 773.077 146.044 747.96C146.044 722.843 134.609 693.355 127.229 676.784C119.848 660.212 102.953 659.819 98.416 629.072C98.416 629.072 155.673 622.582 161.816 632.333Z" fill="#292C47"/>
<path d="M122.292 483.055C122.292 483.055 137.047 477.541 143.85 488.778C150.654 500.015 149.998 522.512 142.561 525.278C135.124 528.045 123.951 526.599 120.143 519.567C116.336 512.535 112.898 502.37 113.063 495.576C113.228 488.784 118.418 485.016 122.292 483.055Z" fill="#EEA886"/>
<path d="M140.959 525.793C140.959 525.793 140.345 529.779 141.36 531.742C142.375 533.706 122.244 533.757 122.244 533.757C122.244 533.757 120.61 523.077 117.512 514.054C114.413 505.031 140.959 525.793 140.959 525.793Z" fill="#EEA886"/>
<path d="M117.512 514.054C117.512 514.054 118.9 516.348 124.572 515.457C130.244 514.568 137.163 507.018 139.531 506.19C141.899 505.361 141.922 503.969 141.922 503.969L143.404 506.136L145.919 506.295C145.919 506.295 143.625 499.542 147.086 496.787C150.547 494.033 143.494 474.929 125.306 481.29C125.306 481.29 111.335 485.142 111.843 493.091C112.352 501.041 114.385 510.096 117.512 514.054Z" fill="#3A3F47"/>
<path d="M142.555 531.506C142.555 531.506 142.491 527.755 140.791 527.395C139.092 527.035 122.032 525.394 119.946 526.215V530.585C119.946 530.585 123.965 533.06 142.555 531.506Z" fill="#E2D2CA"/>
<path d="M141.546 501.078C141.228 499.745 137.839 495.935 136.541 500.014C135.243 504.094 138.501 509.582 140.319 509.112C142.136 508.642 142.352 504.458 141.546 501.078Z" fill="#EEA886"/>
<path d="M210.262 575.829C210.254 575.826 210.245 575.825 210.234 575.827C210.351 575.878 210.368 575.883 210.262 575.829Z" fill="#323657"/>
<path d="M91.5467 671.594C91.5467 671.594 100.595 674.26 116.026 675.962C131.457 677.663 170.011 675.346 170.254 673.523C170.498 671.699 161.96 605.609 162.446 602.204C162.932 598.8 163.192 586.673 163.192 586.673C163.383 589.996 166.767 603.569 170.85 610.969C172.327 613.642 177.277 622.021 179.663 620.115C191.213 610.888 209.099 576.12 210.233 575.828C209.279 575.413 201.756 571.947 200.7 571.595C199.776 571.287 191.444 580.114 186.395 585.585C184.144 588.024 182.546 589.796 182.546 589.796C181.088 586.514 175.777 565.84 174.127 558.684C170.405 542.547 170.978 541.876 170.978 541.876C159.689 538.459 142.554 531.506 142.554 531.506L119.945 530.584C119.945 530.584 99.1947 535.154 91.0226 538.847C90.2475 539.197 90.2439 557.367 88.1161 562.133L94.8916 576.434C94.8916 576.434 98.8056 604.762 99.6177 617.36C99.9917 623.144 91.5467 671.594 91.5467 671.594Z" fill="#323657"/>
<path d="M87.1787 585.723C87.7687 587.63 90.4499 589.241 92.1904 589.946C93.3055 590.396 94.5538 590.543 95.81 590.31L96.6958 590.146V590.145L112.19 587.27C112.19 587.27 115.58 548.207 91.0235 538.847C90.3739 539.06 81.7559 568.233 87.1787 585.723Z" fill="#323657"/>
<path d="M92.1904 589.944C92.1904 589.944 92.1904 589.944 92.1904 589.946C93.3056 590.396 94.5539 590.543 95.81 590.31L96.6958 590.146V590.145L95.1678 570.183L92.1904 589.944Z" fill="#252840"/>
<path d="M182.546 589.796L184.439 597.819C184.439 597.819 186.494 589.768 186.395 585.584C184.144 588.024 182.546 589.796 182.546 589.796Z" fill="#252840"/>
<path d="M118.09 484.381C118.09 484.381 98.7507 482.148 117.759 514.465L118.09 484.381Z" fill="#3A3F47"/>
<path d="M216.74 533.757L218.705 530.378L203.223 525.034L201.258 528.394L216.74 533.757Z" fill="#292C47"/>
<path d="M412.718 564.35C412.718 564.35 415.784 561.506 415.176 559.374C414.659 557.562 415.437 555.531 415.632 554.695C415.894 553.576 415.999 549.957 416.831 550.157C418.239 550.496 417.913 556.275 418.086 557.506C418.26 558.737 421.986 554.615 423.26 554.398C424.534 554.182 431.008 560.743 428.123 563.276C425.238 565.809 421.26 566.837 420.841 567.383C420.422 567.929 418.447 569.43 418.447 569.43L412.718 564.35Z" fill="#EEA987"/>
<path d="M422.447 554.831C422.447 554.831 431.793 547.664 432.815 547.708C433.838 547.752 434.196 548.282 433.35 548.988C432.504 549.694 424.521 556.173 424.521 556.173C424.521 556.173 437.006 549.551 437.852 549.404C438.347 549.318 438.721 550.263 438.303 550.683C437.885 551.103 426.265 558.414 426.265 558.414C426.265 558.414 437.934 552.252 438.678 552.34C439.329 552.416 439.795 553.493 438.961 554.009C438.127 554.526 427.62 560.858 427.62 560.858C427.62 560.858 436.395 556.907 436.98 557.353C437.338 557.625 437.843 558.225 435.546 559.173C433.25 560.122 428.255 563.15 428.255 563.15L422.447 554.831Z" fill="#EEA987"/>
<path d="M347.799 477.904C347.799 477.904 370.155 476.043 369.544 499.573C368.932 523.102 365.205 526.642 369.556 543.268C373.907 559.896 347.76 533.828 347.76 533.828L347.799 477.904Z" fill="#E8734D"/>
<path d="M279.697 830.053C279.697 830.053 271.395 841.721 272.534 843.57C273.673 845.419 282.403 845.683 287.717 843.57C293.03 841.457 293.157 827.783 295.561 821.907C296.567 819.448 294.414 812.187 291.386 811.661C288.358 811.134 285.064 812.681 285.064 812.681C285.064 812.681 288.205 820.956 279.697 830.053Z" fill="#363A5E"/>
<path d="M285.008 812.587C285.008 812.587 283.262 817.555 282.624 822.299C282.094 826.234 276.71 834.588 276.963 835.645C277.216 836.701 284.048 837.658 286.831 834.934C289.615 832.211 291.406 824.288 292.018 819.549C292.589 815.134 293.309 812.955 293.309 812.955C293.309 812.955 287.665 809.681 285.008 812.587Z" fill="#EEA886"/>
<path d="M351.952 830.247C351.952 830.247 343.951 841.72 345.089 843.57C346.228 845.419 354.958 845.683 360.272 843.57C365.585 841.456 365.712 827.782 368.116 821.907C369.122 819.447 366.968 812.187 363.941 811.66C360.913 811.134 357.361 812.793 357.361 812.793C357.361 812.793 360.461 821.15 351.952 830.247Z" fill="#363A5E"/>
<path d="M357.361 812.793C357.361 812.793 356.729 818.209 355.716 822.039C354.704 825.87 349.264 834.588 349.517 835.644C349.77 836.701 356.602 837.658 359.386 834.934C362.169 832.21 364.32 824.323 364.573 819.548C364.826 814.774 363.94 811.66 363.94 811.66C363.94 811.66 360.018 809.887 357.361 812.793Z" fill="#EEA886"/>
<path d="M317.374 622.841C317.374 622.841 310.251 657.439 308.615 666.15C306.979 674.861 302.398 717.049 301.908 724.223C301.417 731.397 294.474 758.426 294.802 760.988C295.129 763.55 283.527 814.332 283.527 814.332C283.527 814.332 291.748 815.22 295.024 813.848C297.265 812.91 315.26 767.109 315.26 754.299C315.26 736.592 325.143 713.475 326.577 709.443C340.68 669.772 343.267 660.357 345.23 657.966C345.23 657.966 345.527 661.202 346.196 666.578C346.967 672.761 350.333 716.912 351.805 722.72C353.278 728.527 352.134 748.169 352.952 758.075C353.77 767.982 355.288 813.171 355.288 813.171C355.288 813.171 362.672 813.491 365.926 811.551C367.018 810.901 370.783 762.994 370.946 751.209C371.11 739.424 371.284 723.17 371.601 718.073C374.632 669.235 382.082 662.261 370.349 627.697C348.38 562.981 317.374 622.841 317.374 622.841Z" fill="#313657"/>
<path d="M295.783 820.88V833.096H294.265V823.655L295.783 820.88Z" fill="#363A5E"/>
<path d="M368.338 820.88V833.096H366.82V823.655L368.338 820.88Z" fill="#363A5E"/>
<path d="M338.494 540.512C338.494 540.512 340.457 535.889 341.92 530.703C341.989 530.457 342.054 530.209 342.118 529.96C342.292 529.283 342.451 528.601 342.597 527.922C342.678 527.536 342.754 527.153 342.823 526.769C343.342 523.91 343.487 521.175 342.826 519.228C340.659 512.821 356.419 517.257 356.419 517.257C356.419 517.257 353.363 534.203 356.419 539.919C359.471 545.635 338.494 540.512 338.494 540.512Z" fill="#EEA886"/>
<path d="M365.225 540.233C366.981 538.033 354.638 537.267 354.638 537.267L340.239 536.024C340.239 536.024 330.337 537.673 322.657 540.334C314.974 542.996 304.909 557.557 304.909 557.557C304.909 557.557 318.796 590.173 321.456 599.533C324.113 608.893 318.44 632.712 318.44 632.712C335.085 641.777 367.957 633.679 367.957 633.679C367.957 633.679 354.852 553.223 365.225 540.233Z" fill="#EDDAD3"/>
<path d="M371.096 579.545C371.096 579.545 370.448 580.911 368.673 586.294C366.864 571.175 367.809 563.305 367.809 563.305C368.006 571.385 371.096 579.545 371.096 579.545Z" fill="#CFBEB8"/>
<path d="M355.44 536.763L338.493 550.584L340.239 536.024C340.239 536.024 350.12 533.89 355.44 536.763Z" fill="#EEA886"/>
<path d="M366.621 595C364.289 604.67 376.081 634.938 376.081 634.938L356.18 641.679C353.719 642.512 351.095 640.962 350.639 638.403C348.396 625.813 342.579 592.054 341.92 577.085C341.102 558.49 354.634 536.553 354.634 536.553C378.685 540.682 372.092 577.085 372.092 577.085C372.092 577.085 371.219 579.379 370.052 582.963C370.052 582.963 370.052 582.963 370.052 582.966C369.757 583.865 369.447 584.848 369.124 585.895C368.301 588.585 367.416 591.71 366.621 595Z" fill="#494F80"/>
<path d="M338.535 536.82L338.831 536.024C338.831 536.024 326.514 537.899 320.254 541.026C313.994 544.154 302.01 560.315 302.01 560.315L317.685 581.019C317.702 596.93 312.153 634.26 312.153 634.26L323.046 638.717C324.743 639.412 326.607 638.183 326.635 636.349C326.811 624.986 327.338 591.332 327.607 578.2C327.932 562.287 339.281 536.552 339.281 536.552C339.029 536.638 338.781 536.729 338.535 536.82Z" fill="#494F80"/>
<path d="M316.203 611.423C316.203 611.423 328.021 611.883 329.859 611.423C331.698 610.963 343.962 605.642 344.698 600.387C345.434 595.131 316.203 605.097 316.203 605.097V611.423V611.423Z" fill="#EEA886"/>
<path d="M352.873 595.001L304.909 589.384L326.576 607.022L352.873 595.001Z" fill="#707070"/>
<path d="M326.576 607.022L352.873 598.055V595.001L325.691 603.725L326.576 607.022Z" fill="#A1A1A1"/>
<path d="M341.124 533.338L332.014 547.804L327.607 550.584L337.877 536.179L341.124 533.338Z" fill="#FAE6DE"/>
<path d="M332.014 547.804L338.493 550.584L340.239 536.024L341.124 533.338L332.014 547.804Z" fill="#D6C5BE"/>
<path d="M317.647 604.657C317.647 604.657 317.155 610.767 317.647 612.048C317.647 612.048 288.068 609.091 285.311 604.953C282.553 600.815 282.651 595.789 282.651 595.789L317.647 604.657Z" fill="#494F80"/>
<path d="M326.576 607.022L312.591 554.996L259.409 549.379L273.985 597.267L326.576 607.022Z" fill="#A1A1A1"/>
<path d="M395.508 577.28C398.175 575.079 399.743 574.272 402.958 571.502C407.959 567.193 414.354 561.739 414.354 561.739L420.431 570.667C420.431 570.667 405.731 583.595 397.92 591.27C397.92 591.27 388.032 601.892 385.822 600.953C383.613 600.012 375.731 588.58 369.437 577.591C363.143 566.602 360.324 559.585 360.008 554.799C359.692 550.012 375.528 547.707 375.528 547.707L387.927 574.799C387.927 574.799 390.133 578.675 391.255 579.845C391.257 579.845 394.045 578.26 395.508 577.28Z" fill="#494F80"/>
<path d="M349.985 480.287C344.444 479.381 331.765 480.771 328.171 495.327C328.171 495.327 328.162 499.361 328.77 502.601C329.378 505.841 325.521 514.748 326.201 515.286C326.88 515.825 329.836 516.753 329.836 516.753C329.836 516.753 331.934 527.205 335.481 527.524C339.028 527.842 352.734 526.608 360.474 514.789C368.214 502.969 372.361 483.952 349.985 480.287Z" fill="#EEA886"/>
<path d="M328.171 495.327C328.171 495.327 336.511 502.532 345.346 504.805C354.181 507.078 358.858 517.006 358.858 517.006C358.858 517.006 374.489 501.408 365.055 486.27C355.622 471.131 328.186 477.883 328.171 495.327Z" fill="#E8734D"/>
<path d="M346.971 505.324C346.971 505.324 356.219 529.605 355.137 535.456C355.137 535.456 359.707 534.662 368.225 537.267C368.225 537.267 364.108 493.895 346.971 505.324Z" fill="#E8734D"/>
<path d="M343.391 548.238L338.493 550.584L355.137 534.077L343.391 548.238Z" fill="#D6C5BE"/>
<path d="M355.137 534.077L343.391 548.238L349.818 553.973L356.754 537.019L355.137 534.077Z" fill="#FAE6DE"/>
<path d="M351.913 523.074C351.838 523.197 349.291 527.159 342.118 529.96C342.293 529.283 342.452 528.601 342.597 527.922C342.678 527.536 342.754 527.153 342.824 526.769C342.823 526.769 348.759 525.318 351.913 523.074Z" fill="#A77860"/>
<path d="M294.594 583.235C296.103 582.432 296.128 579.524 294.648 576.739C293.169 573.954 290.746 572.347 289.237 573.149C287.727 573.952 287.703 576.86 289.183 579.645C290.662 582.43 293.085 584.037 294.594 583.235Z" fill="#828282"/>
<path d="M356.754 537.019C356.754 537.019 372.243 534.915 376.757 551.142C376.757 551.142 357.06 549.022 356.754 537.019Z" fill="#494F80"/>
<path d="M841.359 371.296H633.291C623.711 371.296 615.945 363.526 615.945 353.941V106.562C615.945 96.9776 623.711 89.2077 633.291 89.2077H841.359C850.939 89.2077 858.705 96.9776 858.705 106.562V353.941C858.705 363.526 850.939 371.296 841.359 371.296Z" fill="#F5F5F5"/>
<path d="M763.32 206.211C754.031 180.227 729.211 164.268 703.051 165.055C696.718 165.246 690.307 166.418 684.015 168.669C664.961 175.488 651.296 190.673 645.684 208.612C641.794 221.045 641.768 234.801 646.493 248.014C646.961 249.328 647.472 250.621 648.02 251.884C650.505 257.607 653.764 262.784 657.637 267.334C673.87 286.429 700.808 294.499 725.799 285.559C758.059 274.013 774.857 238.489 763.32 206.211ZM720.569 270.93C701.832 277.634 681.637 271.583 669.465 257.269C666.564 253.857 664.117 249.975 662.257 245.683C661.846 244.736 661.463 243.768 661.11 242.782C657.569 232.876 657.589 222.563 660.505 213.243C664.713 199.791 674.956 188.406 689.242 183.295C693.958 181.607 698.766 180.729 703.514 180.585C723.125 179.992 741.736 191.959 748.701 211.44C757.352 235.641 744.756 262.274 720.569 270.93Z" fill="#4AAFFF"/>
<path d="M660.504 213.243L645.682 208.612C651.295 190.672 664.96 175.487 684.014 168.668C690.305 166.417 696.717 165.245 703.05 165.055L703.513 180.584C698.765 180.728 693.957 181.607 689.241 183.295C674.955 188.405 664.712 199.79 660.504 213.243Z" fill="#1A598C"/>
<path d="M662.256 245.683L648.018 251.883C647.47 250.621 646.96 249.328 646.491 248.014C641.767 234.8 641.792 221.045 645.682 208.612L660.504 213.243C657.588 222.563 657.568 232.876 661.108 242.781C661.462 243.768 661.845 244.736 662.256 245.683Z" fill="#2273B5"/>
<path d="M657.635 267.333C653.763 262.783 650.503 257.606 648.018 251.883L662.257 245.683C664.117 249.976 666.564 253.857 669.465 257.269L657.635 267.333Z" fill="#3788CC"/>
<path d="M817.108 244.126C806.795 239.243 794.869 241.839 787.447 249.725C785.651 251.634 784.118 253.853 782.936 256.352C779.357 263.923 779.799 272.363 783.402 279.253C785.899 284.028 789.913 288.059 795.158 290.541C795.679 290.789 796.207 291.017 796.735 291.226C799.136 292.173 801.603 292.734 804.066 292.932C814.396 293.766 824.635 288.243 829.331 278.315C835.391 265.497 829.919 250.191 817.108 244.126ZM823.524 275.566C820.004 283.011 812.327 287.151 804.582 286.526C802.736 286.377 800.886 285.958 799.087 285.247C798.69 285.09 798.295 284.919 797.903 284.734C793.971 282.872 790.962 279.85 789.09 276.27C786.388 271.104 786.056 264.776 788.74 259.101C789.627 257.227 790.776 255.563 792.122 254.132C797.685 248.219 806.628 246.273 814.36 249.933C823.966 254.481 828.068 265.956 823.524 275.566Z" fill="#4AAFFF"/>
<path d="M789.09 276.27L783.401 279.253C779.798 272.364 779.356 263.923 782.935 256.352C784.118 253.853 785.65 251.634 787.446 249.725L792.122 254.132C790.776 255.563 789.626 257.227 788.74 259.101C786.056 264.777 786.388 271.104 789.09 276.27Z" fill="#1A598C"/>
<path d="M799.087 285.246L796.735 291.226C796.206 291.017 795.678 290.789 795.157 290.541C789.912 288.059 785.898 284.028 783.401 279.253L789.09 276.27C790.962 279.85 793.971 282.873 797.903 284.734C798.294 284.918 798.689 285.09 799.087 285.246Z" fill="#2273B5"/>
<path d="M798.248 309.854H750.329V308.901H797.296V290.788H798.248V309.854Z" fill="#E2F3FE"/>
<path d="M688.567 298.983H645.682V304.7H688.567V298.983Z" fill="#4AAFFF"/>
<path d="M775.553 298.983H750.328V304.7H775.553V298.983Z" fill="#4AAFFF"/>
<path d="M656.493 113.422H635.967V117.81H656.493V113.422Z" fill="#4AAFFF"/>
<path d="M753.375 129.944H721.531V134.333H753.375V129.944Z" fill="#4AAFFF"/>
<path d="M699.795 129.944H680.355V134.333H699.795V129.944Z" fill="#4AAFFF"/>
<path d="M674.482 129.944H635.967V134.333H674.482V129.944Z" fill="#4AAFFF"/>
<path d="M693.152 113.422H662.74V117.81H693.152V113.422Z" fill="#4AAFFF"/>
<path d="M714.234 129.944H705.881V134.333H714.234V129.944Z" fill="#4AAFFF"/>
<path d="M753.374 113.665H730.656V118.054H753.374V113.665Z" fill="#4AAFFF"/>
<path d="M780.85 129.944H761.477V134.333H780.85V129.944Z" fill="#4AAFFF"/>
<path d="M724.712 113.665H700.629V118.054H724.712V113.665Z" fill="#4AAFFF"/>
<path d="M756.42 397.789H718.231C711.837 397.789 706.654 392.603 706.654 386.206V347.999C706.654 341.602 711.837 336.416 718.231 336.416H756.42C762.813 336.416 767.996 341.601 767.996 347.999V386.206C767.997 392.603 762.813 397.789 756.42 397.789Z" fill="white"/>
<path d="M740.228 354.893H734.423V379.312H740.228V354.893Z" fill="#C5CCD1"/>
<path d="M749.528 364.2H725.122V370.007H749.528V364.2Z" fill="#C5CCD1"/>
<path d="M909.792 179.584L857.966 127.733L833.366 152.346L832 150.98L857.966 125L911.158 178.218L909.792 179.584Z" fill="url(#paint3_linear)"/>
<defs>
<linearGradient id="paint0_linear" x1="651.588" y1="120.817" x2="360.8" y2="487.024" gradientUnits="userSpaceOnUse">
<stop stop-color="#FF9F55"/>
<stop offset="1" stop-color="#FFD255"/>
</linearGradient>
<linearGradient id="paint1_linear" x1="499.129" y1="709.111" x2="499.129" y2="225.948" gradientUnits="userSpaceOnUse">
<stop stop-color="#FF9F55"/>
<stop offset="1" stop-color="#FFD255"/>
</linearGradient>
<linearGradient id="paint2_linear" x1="596.049" y1="433.701" x2="630.847" y2="529.025" gradientUnits="userSpaceOnUse">
<stop stop-color="#40D5E6"/>
<stop offset="1" stop-color="#5577FF"/>
</linearGradient>
<linearGradient id="paint3_linear" x1="832" y1="152.292" x2="911.158" y2="152.292" gradientUnits="userSpaceOnUse">
<stop stop-color="#FF9F55"/>
<stop offset="1" stop-color="#FFD255"/>
</linearGradient>
</defs>
</svg>
