<?xml version="1.0" encoding="iso-8859-1"?>
<!-- Generator: Adobe Illustrator 19.0.0, SVG Export Plug-In . SVG Version: 6.00 Build 0)  -->
<svg version="1.1" id="Capa_1" xmlns="http://www.w3.org/2000/svg" xmlns:xlink="http://www.w3.org/1999/xlink" x="0px" y="0px"
	 viewBox="0 0 400 400" style="enable-background:new 0 0 400 400;" xml:space="preserve">
<path style="fill:#FFDC69;" d="M312,0H112C94.328,0,80,14.328,80,32v8H32C14.328,40,0,54.328,0,72v40c0,17.672,14.328,32,32,32h48
	v56v104v32c0,17.68,14.32,32,32,32h24h24c0,17.672,14.328,32,32,32h96c17.672,0,32-14.328,32-32h24h24c17.672,0,32-14.328,32-32V88
	v-8L320,0H312z M272,72c0-17.672-14.328-32-32-32C257.68,40,272,54.32,272,72z M272,112c0,17.68-14.32,32-32,32
	C257.672,144,272,129.672,272,112z"/>
<path style="fill:#FF8C5A;" d="M272,72v40c0,17.672-14.328,32-32,32H32c-17.672,0-32-14.328-32-32V72c0-17.672,14.328-32,32-32h208
	C257.672,40,272,54.328,272,72z"/>
<path style="fill:#FEEC9F;" d="M288,400h-96c-17.672,0-32-14.328-32-32v-80c0-17.672,14.328-32,32-32h96c17.672,0,32,14.328,32,32
	v80C320,385.672,305.672,400,288,400z"/>
<polygon style="fill:#FFFFFF;" points="224,304 224,352 264,328 "/>
<path style="fill:#FFB855;" d="M320,0h-8v56c0,17.672,14.328,32,32,32h56v-8L320,0z"/>
<g>
	<rect x="24" y="104" style="fill:#FFFFFF;" width="16" height="16"/>
	<path style="fill:#FFFFFF;" d="M68.216,103.136c0-3.6-0.504-8.472-1.032-12.88l2.24,6.536l7.704,18.752h6.456l7.72-18.792
		l2.44-6.84c-0.536,4.488-1.072,9.528-1.072,13.224v16.824h15.008V64.168H91.432l-8.368,23.048l-2.368,6.976l-2.376-7l-8.496-22.48
		l-0.208-0.544h-16.24v55.792h14.84L68.216,103.136L68.216,103.136z"/>
	<path style="fill:#FFFFFF;" d="M133.944,102.816h5.816c10.376,0,22.496-5.192,22.496-19.824c0-12.312-7.784-18.824-22.496-18.824
		h-21.824v55.792h16.008L133.944,102.816L133.944,102.816z M133.944,77.168h5.152c5.248,0,7.488,1.744,7.488,5.824
		c0,4.528-2.512,6.824-7.488,6.824h-5.152V77.168z"/>
	<path style="fill:#FFFFFF;" d="M187.504,119.96h15.008v-11.824h5.656V95.632h-5.656V65.496H183.36L165.136,96.88l-0.12,0.192
		v11.056h22.488V119.96z M180.768,95.64l4.176-7.792c1.064-2.232,2-4.232,2.872-6.168c-0.16,3.04-0.312,6.312-0.312,8.808v5.16
		h-6.736V95.64z"/>
</g>
<g>
</g>
<g>
</g>
<g>
</g>
<g>
</g>
<g>
</g>
<g>
</g>
<g>
</g>
<g>
</g>
<g>
</g>
<g>
</g>
<g>
</g>
<g>
</g>
<g>
</g>
<g>
</g>
<g>
</g>
</svg>
