<svg width="851" height="923" viewBox="0 0 851 923" fill="none" xmlns="http://www.w3.org/2000/svg">
<path d="M570.659 481.81C570.659 481.81 527.441 515.767 549.05 523.484C570.659 531.202 584.55 495.702 584.55 495.702L570.659 481.81Z" fill="#FFB8B8"/>
<path d="M572.202 469.463L562.941 484.897C562.941 484.897 578.376 484.897 581.463 508.049L593.811 492.615L572.202 469.463Z" fill="#CFCCE0"/>
<path d="M777.484 821.375L779.028 867.679L760.506 878.483L752.789 873.853L754.332 821.375H777.484Z" fill="#FFB8B8"/>
<path d="M667.898 809.027L670.985 858.418L627.767 876.94L630.854 850.701C630.854 850.701 643.202 830.636 640.115 809.027H667.898Z" fill="#FFB8B8"/>
<path d="M734.267 437.05C734.267 437.05 758.963 501.876 763.593 542.006C768.223 582.136 775.941 688.636 775.941 688.636L791.376 826.005L748.158 832.179L729.637 693.266L687.963 555.897L678.702 693.266L670.985 818.288L630.854 819.831L627.767 690.179L610.789 525.028L620.05 446.311L734.267 437.05Z" fill="#2F2E41"/>
<path d="M757.419 870.766C757.419 870.766 759.951 844.843 778.75 859.348L782.115 856.875L797.549 890.831C797.549 890.831 816.071 917.07 783.658 920.157C751.245 923.244 754.332 890.831 754.332 890.831L751.245 876.94L752.789 867.843L757.419 870.766Z" fill="#2F2E41"/>
<path d="M667.898 839.896C671.697 842.069 674.845 845.218 677.017 849.018C679.188 852.817 680.303 857.129 680.245 861.505C680.245 876.94 678.702 878.483 678.702 878.483L655.55 884.657C655.55 884.657 640.115 883.114 630.854 892.375C621.593 901.635 575.289 907.809 575.289 895.462C575.289 883.114 613.876 863.049 613.876 863.049C613.876 863.049 625.335 843.696 633.497 845.655C641.659 847.614 644.746 850.701 644.746 852.244C644.746 853.788 640.115 864.592 640.115 864.592C640.115 864.592 666.354 858.418 667.898 839.896Z" fill="#2F2E41"/>
<path d="M664.811 247.202C686.122 247.202 703.397 229.926 703.397 208.616C703.397 187.305 686.122 170.029 664.811 170.029C643.5 170.029 626.224 187.305 626.224 208.616C626.224 229.926 643.5 247.202 664.811 247.202Z" fill="#FFB8B8"/>
<path d="M693.365 218.648L710.343 257.235L664.039 323.604C664.039 323.604 660.952 251.061 651.691 238.713C642.43 226.365 693.365 218.648 693.365 218.648Z" fill="#FFB8B8"/>
<path d="M671.756 298.909L679.474 278.844L685.647 280.387L693.365 274.213L704.169 240.257L719.604 251.061L739.669 453.256L614.648 456.343L631.626 315.887L647.061 275.757L658.202 261.028L665.582 283.474L671.756 298.909Z" fill="#CFCCE0"/>
<path d="M707.256 385.343L711.979 245.724C711.979 245.724 721.147 246.431 724.234 251.061C727.321 255.691 778.256 264.952 778.256 264.952L768.995 408.495C768.995 408.495 807.582 522.712 793.691 528.886C779.799 535.06 755.104 533.517 755.104 533.517L707.256 385.343Z" fill="#575A89"/>
<path d="M632.398 367.593L648.771 273.495L612.332 298.137L621.593 366.05L613.876 412.354C613.876 412.354 584.55 540.462 593.811 545.093C603.072 549.723 613.876 545.093 613.876 545.093L632.398 415.441V367.593Z" fill="#575A89"/>
<path d="M623.137 295.05L612.332 298.137L607.702 359.876L599.985 413.898L562.941 480.267C562.941 480.267 581.463 467.919 589.18 503.419L629.976 432.393L623.137 295.05Z" fill="#575A89"/>
<path d="M743.528 469.463C743.528 469.463 700.311 503.419 721.919 511.136C743.528 518.854 757.419 483.354 757.419 483.354L743.528 469.463Z" fill="#FFB8B8"/>
<path d="M769.767 486.441L755.876 503.419L737.354 471.006L745.071 457.115L769.767 486.441Z" fill="#CFCCE0"/>
<path d="M766.68 270.354L779.028 264.181C779.028 264.181 788.289 276.528 789.832 287.333C791.375 298.137 799.093 312.028 799.093 319.746C799.093 327.463 820.702 400.006 820.702 400.006L771.31 500.332C771.31 500.332 760.506 463.289 737.354 460.202L775.941 406.18L754.332 367.593L766.68 270.354Z" fill="#575A89"/>
<path d="M697.114 171.851L704.39 168.937C704.39 168.937 689.176 152.187 668.008 153.644L673.961 147.089C673.961 147.089 659.409 141.263 646.179 156.557C639.224 164.596 631.177 174.046 626.161 184.692H618.368L621.621 191.853L610.238 199.014L621.921 197.728C621.225 201.649 621.118 205.653 621.604 209.606C622.106 213.56 624.123 217.165 627.232 219.66V219.66C627.232 219.66 636.256 200.981 636.256 198.068V205.351C636.256 205.351 643.533 198.796 643.533 194.427L647.502 199.525L649.486 191.514L673.961 199.525L669.993 192.97L685.207 195.155L679.253 187.144C679.253 187.144 696.452 196.611 697.114 204.622C697.775 212.633 702.809 220.224 702.809 220.224C702.809 220.224 716.297 182.774 697.114 171.851Z" fill="#2F2E41"/>
<path d="M696.452 207.844C698.839 207.844 700.774 205.425 700.774 202.442C700.774 199.458 698.839 197.039 696.452 197.039C694.065 197.039 692.13 199.458 692.13 202.442C692.13 205.425 694.065 207.844 696.452 207.844Z" fill="#FFB8B8"/>
<path d="M164.851 248.162H41.3392V213.552H105.81L164.851 248.162Z" fill="#4D5BED"/>
<path d="M41 243.412V344.529H442.075V243.412H41ZM197.426 327.563H67.1276V313.312H197.426V327.563ZM415.948 301.096H67.1276V286.845H415.948V301.096ZM415.948 274.629H67.1276V260.378H415.948V274.629Z" fill="#3F3D56"/>
<path d="M164.851 84.611H41.3392V50H105.81L164.851 84.611Z" fill="#4D5BED"/>
<path d="M41 81.8961V183.013H442.075V81.8961H41ZM197.426 166.047H67.1276V151.796H197.426V166.047ZM272.755 139.58H67.1276V125.329H272.755L272.755 139.58ZM415.948 113.113H67.1277V98.8621H415.948V113.113Z" fill="#3F3D56"/>
<path d="M164.851 408.321H41.3392V373.711H105.81L164.851 408.321Z" fill="#4D5BED"/>
<path d="M41 401.535V502.652H442.075V401.535H41ZM272.755 485.686H67.1276V471.435H272.755V485.686ZM272.755 459.219H67.1276V444.968H272.755V459.219ZM415.948 432.752H67.1276V418.501H415.948V432.752Z" fill="#3F3D56"/>
<path d="M555.747 160.618H498.741V103.612H537.424V104.969H500.099V159.261H554.39V132.115H555.747V160.618Z" fill="#3F3D56"/>
<path d="M526.951 145.749C525.634 141.859 509.114 128.637 519.237 126.415L527.538 137.483L565.704 99.318L569.543 103.157L526.951 145.749Z" fill="#4D5BED"/>
<path d="M555.747 322.134H498.741V265.128H537.424V266.486H500.099V320.777H554.39V293.631H555.747V322.134Z" fill="#3F3D56"/>
<path d="M526.951 307.265C525.634 303.375 509.114 290.153 519.237 287.93L527.538 298.999L565.704 260.834L569.543 264.673L526.951 307.265Z" fill="#4D5BED"/>
<path d="M555.747 482.971H498.741V425.966H537.424V427.323H500.099V481.614H554.39V454.468H555.747V482.971Z" fill="#3F3D56"/>
<path d="M526.951 468.102C525.634 464.213 509.114 450.99 519.237 448.768L527.538 459.837L565.704 421.671L569.543 425.51L526.951 468.102Z" fill="#4D5BED"/>
</svg>
