<svg width="661" height="746" viewBox="0 0 661 746" fill="none" xmlns="http://www.w3.org/2000/svg">
<path opacity="0.95" d="M260.221 351.543H71.0924C56.1503 351.543 44.0369 339.421 44.0369 324.468V135.194C44.0369 120.241 56.1503 108.119 71.0924 108.119H260.221C275.163 108.119 287.276 120.241 287.276 135.194V324.468C287.276 339.421 275.163 351.543 260.221 351.543Z" fill="url(#paint0_linear)"/>
<path d="M221.964 296.123H109.349V301.691H221.964V296.123Z" fill="#96BFE6"/>
<path d="M206.013 313.666H125.299V319.234H206.013V313.666Z" fill="#96BFE6"/>
<path opacity="0.95" d="M628.318 583.591H359.163C341.561 583.591 327.291 569.311 327.291 551.695V224.441C327.291 206.825 341.561 192.544 359.163 192.544H628.318C645.921 192.544 660.191 206.825 660.191 224.441V551.695C660.191 569.311 645.921 583.591 628.318 583.591Z" fill="url(#paint1_linear)"/>
<path d="M504.634 423.237H478.231V428.131H504.634V423.237Z" fill="#4598E6"/>
<path d="M531.628 468.08H377.99V477.554H531.628V468.08Z" fill="#96BFE6"/>
<path d="M502.229 513.569H377.99V523.044H502.229V513.569Z" fill="#96BFE6"/>
<path d="M450.824 490.824H377.99V500.299H450.824V490.824Z" fill="#96BFE6"/>
<path d="M571.821 231.541V236.326H599.976V262.769H604.757V231.541H571.821ZM380.635 262.769H385.417V236.326H413.571V231.541H380.635V262.769V262.769ZM599.976 399.215V425.668H571.821V430.453H604.757V399.215H599.976V399.215ZM385.417 399.215H380.635V430.453H413.571V425.668H385.417V399.215Z" fill="#4598E6"/>
<path d="M589.851 523.74C574.326 523.74 561.695 511.099 561.695 495.562C561.695 480.025 574.326 467.384 589.851 467.384C605.376 467.384 618.008 480.025 618.008 495.562C618.008 511.099 605.376 523.74 589.851 523.74ZM589.851 472.838C577.331 472.838 567.145 483.032 567.145 495.562C567.145 508.092 577.331 518.286 589.851 518.286C602.371 518.286 612.558 508.092 612.558 495.562C612.558 483.032 602.371 472.838 589.851 472.838Z" fill="#4598E6"/>
<path d="M588.056 506.652L575.264 493.85L579.117 489.995L588.056 498.939L600.585 486.4L604.439 490.256L588.056 506.652Z" fill="#4598E6"/>
<path opacity="0.95" d="M247.632 117.221H83.6808V257.997H247.632V117.221Z" fill="url(#paint2_linear)"/>
<path d="M228.28 202.921C222.88 188.626 209.909 182.063 203.785 180.017C201.604 179.292 197.709 178.02 193.605 176.691C186.21 174.3 178.131 171.699 178.131 171.699H152.613C152.613 171.699 143.778 174.662 134.387 177.956C134.387 177.964 134.378 177.964 134.378 177.964C125.728 181 116.618 184.31 113.544 185.857C107.131 189.062 96.3393 211.973 94.159 214.599C93.0324 215.952 88.0271 224.875 83.1021 234.845H110.591C113.496 229.852 115.733 225.978 115.733 225.978C115.733 225.978 117.471 229.795 119.58 234.845H207.647C209.04 228.982 209.909 221.597 209.909 221.597C209.909 221.597 214.625 228.015 219.775 234.845H245.155C238.983 224.479 231.322 210.99 228.28 202.921Z" fill="#385369"/>
<path d="M168.412 101.525C168.412 101.525 188.364 104.671 185.326 135.912C182.288 167.152 164.679 164.592 163.502 164.56C162.325 164.529 145.824 165.13 144.537 126.987C144.537 126.987 143.976 98.7811 168.412 101.525Z" fill="#EEA886"/>
<path d="M185.635 127.087C185.635 127.087 187.819 124.751 188.621 127.116C189.423 129.481 185.641 140.025 185.505 140.518C185.505 140.518 185.107 141.435 184.582 140.931C184.057 140.426 185.635 127.087 185.635 127.087Z" fill="#EEA886"/>
<path d="M145.075 126.692C145.075 126.692 142.936 124.314 142.088 126.663C141.242 129.011 144.786 139.626 144.945 140.123C144.945 140.123 145.326 141.048 145.86 140.553C146.395 140.059 145.075 126.692 145.075 126.692Z" fill="#EEA886"/>
<path d="M185.626 131.878L182.769 135.7C182.769 135.7 182.85 127.322 182.392 126.008C181.934 124.694 181.232 120.681 180.849 119.734C180.466 118.788 163.716 114.09 148.92 121.106C148.92 121.106 149.571 127.131 148.152 127.667C146.735 128.203 147.43 137.48 147.43 137.48L145.081 134.827C145.081 134.827 141.487 110.792 142.374 108.287C143.262 105.782 146.091 90.7205 176.446 99.6611C176.446 99.6611 185.909 97.6554 187.808 104.194C189.706 110.732 185.626 131.878 185.626 131.878Z" fill="#434343"/>
<path d="M180.605 171.134C180.596 171.106 178.045 169.876 178.045 169.876C176.803 167.094 177.726 155.358 177.726 155.358C177.726 155.358 152.314 148.886 153.04 153.835C153.765 158.784 150.851 170.283 150.851 170.283L137.814 176.761C137.814 176.761 151.704 214.085 167.667 209.27C183.631 204.455 189.659 175.415 189.659 175.415L180.605 171.134Z" fill="#EEA886"/>
<path d="M153.405 159.333C153.405 159.333 157.499 164.622 164.606 164.622C169.28 164.622 172.636 163.311 177.293 158.767C177.293 158.767 175.274 167.396 164.637 168.199C164.637 168.199 156.923 169.181 153.405 159.333Z" fill="#A77860"/>
<path d="M80.0442 284.658C80.0442 284.658 94.7059 291.835 91.0808 311.359C87.4562 330.885 85.8514 333.516 89.9067 341.145C93.9616 348.774 98.746 381.319 95.0969 387.487C91.4474 393.655 49.9252 360.38 44.1673 332.461C38.4094 304.542 47.8168 292.125 51.1417 287.498C54.4666 282.872 67.1002 278.084 80.0442 284.658Z" fill="#0E2D3D"/>
<path d="M74.5118 737.789H77.8344V722.106C77.8344 722.106 84.3527 726.454 88.4421 732.465C92.5316 738.476 98.1548 737.965 106.717 737.581C115.28 737.198 114.897 733.745 114.13 728.884C113.363 724.024 104.673 722.49 101.861 721.721C99.0495 720.954 92.6668 709.949 90.6146 707.269C87.8155 703.614 86.3333 700.107 86.3333 700.107C86.3333 700.107 84.7359 693.584 76.8125 700.107C68.889 706.63 71.1893 719.164 72.0839 720.315C72.9785 721.465 74.5118 737.789 74.5118 737.789Z" fill="#163342"/>
<path d="M91.2538 721.722C94.1931 723.641 101.861 721.722 101.861 721.722C99.6886 718.908 86.3333 700.108 86.3333 700.108C78.218 695.375 75.0107 701.888 75.0107 701.888C78.3218 702.9 88.3144 719.804 91.2538 721.722Z" fill="#EEA886"/>
<path d="M176.705 432.399C176.705 432.399 182.025 433.419 183.843 430.917C185.388 428.789 188.922 427.156 190.008 426.651C191.462 425.976 195.153 422.24 196.021 424.067C196.89 425.893 190.233 430.518 189.031 431.767C187.829 433.016 195.558 433.569 196.893 434.783C198.226 435.997 196.586 448.758 191.325 447.765C186.064 446.771 181.098 442.234 180.138 442.243C179.178 442.252 176.282 441.671 176.282 441.671L176.705 432.399Z" fill="#EEA886"/>
<path d="M195.718 434.261C195.718 434.261 211.623 438.373 212.454 439.535C213.285 440.698 213.011 441.546 211.508 441.224C210.005 440.902 196.026 437.696 196.026 437.696C196.026 437.696 214.034 445.728 214.923 446.531C215.443 447.002 215.01 448.677 214.19 448.58C213.369 448.482 195.066 441.541 195.066 441.541C195.066 441.541 211.866 449.072 212.409 449.965C212.884 450.747 212.102 452.186 210.818 451.713C209.534 451.241 193.546 445.133 193.546 445.133C193.546 445.133 205.43 451.383 205.444 452.41C205.453 453.038 205.146 454.504 202.13 452.795C199.114 451.087 191.576 447.803 191.576 447.803L195.718 434.261Z" fill="#EEA886"/>
<path d="M31.4563 738.86H33.501V727.35C33.501 727.35 37.1376 731.094 38.7987 736.593C40.4606 742.093 46.4085 743.724 55.4825 743.468C64.5561 743.212 64.6842 739.627 63.9173 734.256C63.1505 728.884 55.4825 726.07 55.4825 726.07C52.0318 723.001 43.4692 710.275 43.4692 710.275C43.4692 710.275 37.9737 708.804 33.661 712.289C29.3484 715.772 30.6889 723.641 30.8171 725.686C30.9449 727.733 31.4563 738.86 31.4563 738.86Z" fill="#163342"/>
<path d="M37.7182 464.648C37.7182 464.648 26.9057 478.716 23.9733 495.407C21.0404 512.098 25.7049 568.117 25.5776 576.366C25.4499 584.616 17.7819 605.143 19.3152 620.683C20.8485 636.222 26.9011 713.565 26.9011 713.565L43.4697 710.275C43.4697 710.275 42.5109 631.426 43.4697 624.904C44.4284 618.381 46.3519 594.605 46.7355 591.918C47.1192 589.233 71.0745 518.706 71.0745 506.673C71.074 494.64 63.7897 445.015 37.7182 464.648Z" fill="#1D3B54"/>
<path d="M92.0336 470.147C92.0336 470.147 109.797 537.997 111.907 547.398C114.015 556.798 117.07 564.551 117.07 568.542C117.07 577.803 113.632 592.673 113.632 592.673L91.0744 700.643H69.59C69.59 700.643 81.5605 635.868 81.8823 623.202C82.2051 610.508 91.9695 592.482 90.0525 587.109C88.1355 581.738 59.1888 519.772 59.1888 519.772C59.1888 519.772 37.2714 450.451 92.0336 470.147Z" fill="#1D3B54"/>
<path d="M55.4826 726.07L43.4692 710.275L33.6611 712.289C33.6611 712.289 36.3002 719.358 41.068 724.677C46.7148 730.977 55.4826 726.07 55.4826 726.07Z" fill="#EEA886"/>
<path d="M84.6967 354.845C84.6967 354.845 92.0207 355.537 97.5544 361.47C103.088 367.404 108.282 376.866 109.732 380.031C111.181 383.196 131.498 412.524 132.552 413.184C133.606 413.843 143.819 417.258 150.586 419.537C161.028 423.055 181.96 430.667 181.96 430.667L177.803 443.84C177.803 443.84 138.442 430.95 128.585 428.52C116.531 425.548 88.7811 389.921 88.7811 389.921C88.7811 389.921 68.0945 365.658 84.6967 354.845Z" fill="#285173"/>
<path d="M71.916 349.703C71.916 349.703 81.4028 354.186 84.6967 354.845C87.9907 355.505 100.772 372.12 103.012 378.185C105.251 384.251 103.012 393.349 98.3997 404.03C93.7883 414.712 98.1364 418.272 96.0281 428.952C93.9197 439.633 94.598 479.591 94.9933 485.525C95.3885 491.458 33.3198 500.453 21.0662 489.64C21.0662 489.64 29.3617 453.629 39.1833 443.35C41.3073 441.128 41.0828 426.315 39.6338 422.623C38.184 418.931 21.846 391.371 21.846 391.371C21.846 391.371 20.646 363.419 27.7749 357.878C33.9677 353.065 50.8457 351.349 53.8764 350.294C56.9075 349.24 65.7228 348.78 71.916 349.703Z" fill="#FFBF55"/>
<path d="M76.4454 338.747C76.4454 338.747 76.1622 341.361 75.8348 344.894C75.7089 346.291 75.5706 347.835 75.4447 349.415C75.067 354.152 74.765 359.234 74.9476 361.835C74.9476 361.835 65.086 371.723 53.8782 350.297C53.8782 350.297 58.5916 341.461 55.0421 329.432C51.4931 317.397 76.4454 338.747 76.4454 338.747Z" fill="#EEA886"/>
<path d="M104.038 407.969C104.038 407.969 106.411 392.173 103.888 382.568C103.888 382.568 103.888 390.828 99.3625 402.557L104.038 407.969Z" fill="#183C59"/>
<path d="M46.303 351.816C46.303 351.816 53.0842 371.861 71.7025 370.386C90.3214 368.911 80.5289 353.461 80.5289 353.461C80.5289 353.461 75.8884 350.798 74.5824 350.547C73.2764 350.296 53.9977 350.051 53.9977 350.051L46.303 351.816Z" fill="#EEA886"/>
<path d="M80.5284 353.461C80.5284 353.461 90.2799 380.456 90.2799 407.969C90.2799 435.482 91.0652 480.3 94.4698 494.453C97.8745 508.606 107.565 552.376 107.565 552.376L115.16 548.445C115.16 548.445 96.8963 478.589 95.5175 473.552C94.1387 468.515 96.5648 415.3 97.8745 410.845C99.1837 406.389 104.753 386.556 103.888 381.053C102.796 374.117 96.3103 363.852 85.8348 355.027L80.5284 353.461Z" fill="#285173"/>
<path d="M49.9814 350.972C49.9814 350.972 56.0433 370.394 59.114 395.268C62.1853 420.142 49.6859 535.602 41.3054 561.811L8.83051 556.57C8.83051 556.57 15.821 474.958 25.3105 460.105C34.8 445.253 37.8196 432.112 27.5757 401.113C17.3318 370.113 32.0663 354.761 32.0663 354.761C32.0663 354.761 47.1343 351.294 49.9814 350.972Z" fill="#285173"/>
<path d="M85.0177 433.334L45.6416 501.588L1.8681 476.296L39.5337 407.055L85.0177 433.334Z" fill="#616161"/>
<path d="M80.2711 435.682L45.2999 496.301L6.42334 473.837L39.8755 412.343L80.2711 435.682Z" fill="#E0CEC7"/>
<path d="M67.3695 430.237L69.8242 425.982L54.1069 416.901L51.0384 420.801L67.3695 430.237Z" fill="#616161"/>
<path d="M65.4936 478.664C65.4936 478.664 63.7029 478.673 62.918 478.293C62.918 478.293 61.5429 477.494 60.5312 476.986C60.2098 476.825 59.9257 476.693 59.7334 476.627C58.9305 476.349 57.085 475.979 55.3433 474.769C53.6038 473.562 47.4378 466.418 47.4378 466.418L50.35 461.986L52.4851 457.448C52.4851 457.448 65.4309 458.284 67.1828 459.223C67.3538 459.315 67.5189 459.413 67.6665 459.517C69.0725 460.455 69.7246 461.745 70.4066 462.321C70.6556 462.534 72.99 464.82 72.9084 465.794C72.7972 467.145 72.1719 468.036 71.3575 468.481C71.3575 468.481 71.0227 471.118 69.7241 472.347C69.7241 472.347 69.4936 474.789 67.4433 475.858C67.4438 475.858 66.9324 478.309 65.4936 478.664Z" fill="#EEA886"/>
<path d="M38.8102 354.845C38.8102 354.845 26.8527 351.417 20.001 364.604C13.1492 377.79 13.1833 383.417 12.2675 389.856C11.4028 395.935 7.49968 412.535 7.10447 414.249C6.70927 415.963 -2.1309 436.405 1.92259 443.549C5.99729 450.731 47.3843 471.869 47.121 473.452C46.8577 475.034 54.2891 457.469 54.2891 457.469C54.2891 457.469 37.5425 448.128 34.7996 445.252C30.3445 440.58 20.9458 435.546 22.8771 429.75C25.145 422.942 31.9585 399.974 33.5398 396.611C35.1211 393.249 48.8904 359.131 38.8102 354.845Z" fill="#285173"/>
<path d="M77.9179 286.822C77.9179 286.822 99.2064 293.518 87.65 330.284C76.0932 367.049 47.02 326.023 50.0608 303.622C53.1016 281.222 77.9179 286.822 77.9179 286.822Z" fill="#EEA987"/>
<path d="M89.8251 308.275C89.8251 308.275 79.2473 318.664 61.5448 319.962C61.5448 319.962 54.7419 327.945 54.219 331.079C54.219 331.079 38.4246 304.136 57.8399 287.985C77.2551 271.834 96.9618 301.621 89.8251 308.275Z" fill="#0E2D3D"/>
<path d="M61.7578 320.694C61.6208 318.018 59.9736 311.929 55.9999 313.633C52.0262 315.337 56.243 327.738 58.8789 326.975C58.8789 326.975 62.082 327.025 61.7578 320.694Z" fill="#EEA987"/>
<path d="M75.8353 344.894C75.7094 346.292 75.5711 347.835 75.4452 349.416C75.4452 349.416 66.0492 348.856 59.7689 334.868C60.1774 335.478 67.0624 345.599 75.8353 344.894Z" fill="#A77860"/>
<path opacity="0.95" d="M467.634 179.046H333.411C321.127 179.046 311.169 169.08 311.169 156.787V40.2338C311.169 27.9399 321.127 17.9742 333.411 17.9742H467.634C479.918 17.9742 489.877 27.9403 489.877 40.2338V156.787C489.877 169.08 479.918 179.046 467.634 179.046Z" fill="url(#paint3_linear)"/>
<path d="M406.931 148.582H392.758V151.209H406.931V148.582Z" fill="#4598E6"/>
<path d="M412.662 3.86711C412.662 3.86711 424.082 10.1426 420.456 25.5738C416.831 41.0049 415.452 43.0425 418.398 49.2778C421.344 55.5136 423.933 81.6432 420.791 86.4235C417.649 91.2037 385.795 63.1066 382.255 40.6288C378.716 18.151 386.684 8.60441 389.509 5.04163C392.334 1.47885 402.588 -1.86288 412.662 3.86711Z" fill="#344052"/>
<path d="M434.104 131.407H421.877C421.286 125.371 420.74 121.17 420.852 120.549C421.032 119.523 408.685 87.1134 407.533 84.4326C406.372 81.7591 401.846 74.5708 401.255 67.801C400.656 61.0317 409.478 58.2983 409.478 58.2983C421.383 60.4327 425.416 76.9143 425.416 76.9143C425.416 76.9143 430.415 110.335 432.944 119.74C433.595 122.151 433.946 126.412 434.104 131.407Z" fill="#EEA886"/>
<path d="M427.949 84.9633L409.743 92.6454C409.743 92.6454 393.007 51.0846 407.034 55.725C421.02 60.351 427.311 69.048 427.949 84.9633Z" fill="#EB4747"/>
<path d="M423.898 104.531C423.366 108.657 421.189 123.274 421.675 127.221C421.758 127.872 422.027 129.37 422.431 131.406H378.531C379.698 127.235 380.761 123.543 381.404 121.395C383.537 114.318 381.494 112.424 380.416 106.763C379.997 104.546 378.523 100.337 376.914 95.5819C376.375 93.9948 375.822 92.3399 375.29 90.6776C373.359 84.6868 372.462 78.5614 371.908 74.9967C369.259 58.0957 382.249 56.4703 382.249 56.4703C387.075 55.5791 395.508 52.973 395.508 52.973L408.715 55.7217C408.715 55.7217 409.972 56.1934 411.805 57.5488C411.805 57.5488 411.813 57.5488 411.813 57.5566C412.696 58.2078 413.714 59.0616 414.783 60.1623C416.227 61.6451 419.101 65.8904 421.967 70.5557C422.842 71.9864 423.725 73.4535 424.556 74.8989C427.241 79.549 429.15 83.3005 429.09 87.5315C429.037 91.6966 424.429 100.405 423.898 104.531Z" fill="#EB4747"/>
<path d="M408.716 55.7263C408.716 55.7263 416.989 69.8782 413.913 70.9351C410.836 71.9914 394.619 68.4185 388.284 55.0479C388.284 55.0484 398.929 50.2068 408.716 55.7263Z" fill="#EEA886"/>
<path d="M407.531 62.1892C407.531 62.1892 400.182 65.3015 393.527 55.0558C393.527 55.0558 395.315 43.4214 391.534 36.6913C387.754 29.9636 408.06 44.7583 408.06 44.7583C408.06 44.7583 407.731 46.1456 407.39 48.1937C407.217 49.2418 407.037 50.4611 406.9 51.7551C406.786 52.8332 406.698 53.9657 406.66 55.0936C406.575 57.7108 406.761 60.3081 407.531 62.1892Z" fill="#EEA886"/>
<path d="M389.281 78.0399C387.768 85.8277 376.913 95.5842 376.913 95.5842C376.377 93.9925 375.823 92.3413 375.292 90.6813C382.781 85.8987 389.281 78.0399 389.281 78.0399Z" fill="#393D63"/>
<path d="M386.559 84.2378C385.871 87.076 382.706 115.823 383.05 116.804C383.252 117.366 384.786 124.016 386.32 131.407H372.148C370.697 126.645 369.836 122.69 370.045 120.451C370.95 110.754 367.666 79.8425 367.666 79.8425C367.666 79.8425 364.725 61.1439 380.229 58.8078C380.229 58.8078 389.388 60.0137 389.942 66.783C390.495 73.5592 387.247 81.4074 386.559 84.2378Z" fill="#EEA886"/>
<path d="M366.522 88.209L385.762 92.7068C385.762 92.7068 401.026 63.0489 387.279 57.6342C372.789 51.9263 363.048 72.0311 366.522 88.209Z" fill="#EB4747"/>
<path d="M410.884 5.51329C410.884 5.51329 427.607 11.6549 417.007 40.5333C406.409 69.4117 384.772 35.6035 388.041 17.8575C391.309 0.112347 410.884 5.51329 410.884 5.51329Z" fill="#EEA987"/>
<path d="M419.571 23.0669C419.571 23.0669 410.746 30.9512 396.582 31.319C396.582 31.319 393.271 39.3939 392.736 41.8721C392.736 41.8721 378.743 17.828 394.831 5.68266C410.92 -6.46218 425.512 18.0296 419.571 23.0669Z" fill="#344052"/>
<path d="M398.495 33.051C398.486 30.9124 397.402 25.9951 394.17 27.2042C390.937 28.4134 393.832 38.4598 395.963 37.9507C395.963 37.9507 398.515 38.1113 398.495 33.051Z" fill="#EEA987"/>
<path d="M406.679 54.6003C398.821 52.4252 395.782 44.9295 395.689 44.679C402.079 52.9426 406.9 51.7556 406.9 51.7556C406.786 52.8337 406.777 53.507 406.679 54.6003Z" fill="#A77860"/>
<path d="M442.999 47.123V49.6918H458.112V63.887H460.679V47.123H442.999ZM340.366 63.887H342.932V49.6918H358.046V47.123H340.365V63.887H340.366ZM458.112 137.134V151.335H442.999V153.904H460.68V137.134H458.112ZM342.933 137.134H340.366V153.904H358.047V151.335H342.933V137.134H342.933Z" fill="#4598E6"/>
<path d="M175.123 268.924H156.191V272.433H175.123V268.924Z" fill="#4598E6"/>
<path d="M222.392 133.405V136.836H242.579V155.797H246.007V133.405H222.392ZM85.3049 155.797H88.7336V136.836H108.921V133.405H85.3049V155.797ZM242.579 253.632V272.6H222.393V276.032H246.008V253.633H242.579V253.632ZM88.7336 253.632H85.3049V276.031H108.921V272.6H88.7336V253.632Z" fill="#4598E6"/>
<path d="M588.552 397.024H572.538C572.246 396.382 572.009 395.824 571.813 395.378C567.061 384.15 542.574 358.403 542.574 358.403C542.574 358.403 542.574 358.417 542.574 358.459C542.574 358.459 542.561 358.473 542.561 358.487C542.561 358.487 542.561 358.501 542.561 358.516C542.547 358.557 542.532 358.585 542.519 358.626C542.505 358.682 542.49 358.752 542.463 358.836C542.449 358.878 542.435 358.934 542.435 358.975C542.421 359.017 542.407 359.045 542.393 359.087C541.389 362.839 536.456 381.529 533.989 397.024H425.629C425.379 395.588 425.086 394.22 424.752 392.952C423.762 389.102 423.093 385.294 422.661 381.738C422.648 381.556 422.619 381.389 422.606 381.208C422.522 380.552 422.452 379.897 422.396 379.255C421.463 369.52 422.159 362.058 422.215 361.305C421.909 361.961 419.721 369.994 416.85 379.91C415.274 385.35 413.49 391.361 411.721 397.024H386.132L418.243 304.315C418.954 303.757 427.288 299.726 433.365 296.825C439.567 293.868 447.051 289.53 453.81 285.82C457.266 283.923 460.528 282.207 463.357 280.91L463.789 280.715V280.702C468.458 278.567 471.566 277.158 471.566 277.158C471.566 277.158 471.566 277.158 471.579 277.158C471.691 277.145 472.43 277.074 473.601 276.963C480.123 276.335 500.359 274.439 507.133 274.049C507.69 274.006 508.164 273.993 508.526 273.978C508.833 273.965 509.07 273.965 509.209 273.978C510.059 274.034 514.24 275.485 519.717 277.577C519.926 277.647 520.135 277.73 520.344 277.814C520.609 277.912 520.859 278.01 521.124 278.107C521.598 278.289 522.086 278.47 522.574 278.665C523.55 279.056 524.567 279.446 525.584 279.851C525.933 279.99 526.295 280.129 526.657 280.269C537.625 284.621 550.197 290.018 553.179 292.166C555.158 293.575 561.304 305.166 568.426 319.503C576.092 344.078 585.472 379.533 588.552 397.024Z" fill="#DECBC4"/>
<path d="M509.034 270.826C508.745 285.404 480.543 293.378 480.543 293.378C480.543 293.378 468.746 278.577 471.564 277.16C472.67 276.603 473.12 274.393 473.258 271.916C473.385 269.559 473.235 266.957 473.097 265.305C473.013 264.274 472.934 263.611 472.934 263.611C472.934 263.611 476.963 259.356 482.089 254.287C491.048 245.423 503.363 234.067 503.382 238.585C503.383 238.824 503.35 239.11 503.278 239.441C501.114 249.608 509.034 270.826 509.034 270.826Z" fill="#EEA886"/>
<path d="M498.172 249.468C498.172 249.468 498.172 249.468 498.17 249.471C498.114 249.556 496.918 251.347 494.876 253.917C490.547 259.367 482.408 268.32 473.257 271.917C473.385 269.559 473.234 266.958 473.096 265.306C472.16 265.282 471.224 265.173 470.295 264.968C472.805 260.582 476.427 255.983 476.427 255.983L482.089 254.288L498.172 249.468Z" fill="#A77860"/>
<path d="M503.586 238.782C501.146 244.094 498.83 247.943 498.172 249.468C498.172 249.468 498.172 249.468 498.17 249.471C497.742 250.464 496.578 252.084 494.876 253.917C490.229 258.928 481.589 265.537 473.097 265.305C472.16 265.282 471.224 265.173 470.296 264.968C466.867 264.218 462.817 262.624 460.589 258.258C442.995 223.783 455.733 195.593 455.733 195.593C455.733 195.593 503.843 181.978 511.369 196.471C516.651 206.637 509.318 226.302 503.586 238.782Z" fill="#EEA886"/>
<path d="M455.733 195.593C455.733 195.593 451.266 195.345 450.16 186.868C449.069 178.492 451.276 176.171 451.276 176.171C451.276 176.171 471.137 167.851 478.27 166.768C485.402 165.686 502.94 164.647 507.051 169.352C507.051 169.352 517.038 167.03 519.76 183.623C524.077 209.948 505.05 235.51 505.05 235.51C505.05 235.51 505.212 218.312 501.423 216.033C497.632 213.755 494.361 219.174 494.361 219.174L486.609 220.564C486.609 220.564 498.383 195.12 484.259 194.177C470.135 193.234 463.819 197.068 455.733 195.593Z" fill="#E8734D"/>
<path d="M494.574 212.317C495.312 204.741 509.003 201.848 508.086 209.789C507.169 217.731 500.427 225.36 497.312 225.092C494.197 224.824 494.012 218.093 494.574 212.317Z" fill="#EEA886"/>
<path d="M574.712 320.214C570.252 305.918 566.392 294.607 564.678 293.379C561.681 291.232 537.933 284.69 526.658 280.269C526.296 280.129 525.934 279.99 525.585 279.851C524.568 279.446 523.551 279.055 522.575 278.665C522.087 278.47 521.599 278.289 521.125 278.107C520.86 278.01 520.61 277.912 520.345 277.814C520.136 277.73 519.927 277.647 519.718 277.577C519.704 277.591 519.69 277.619 519.662 277.633C518.659 278.762 513.446 284.69 507.217 293.561C495.565 310.131 480.388 336.98 482.716 361.765C483.468 369.715 484.388 381.138 485.935 393.956C486.046 394.974 486.172 395.992 486.311 397.024H538.881C539.522 383.606 540.665 365.935 542.393 359.086C542.407 359.044 542.421 359.017 542.435 358.975C542.435 358.933 542.448 358.877 542.463 358.836C542.477 358.766 542.505 358.696 542.518 358.626C542.532 358.584 542.547 358.557 542.56 358.515C542.56 358.501 542.56 358.487 542.56 358.487C542.56 358.473 542.574 358.459 542.574 358.459C542.574 358.459 555.299 378.362 555.954 397.023H589.04C587.423 379.687 582.364 344.748 574.712 320.214Z" fill="#3C4145"/>
<path d="M463.58 281.078C463.58 281.078 459.608 294.3 454.479 327.314C454.479 327.314 454.479 327.314 454.479 327.327C454.298 328.43 454.131 329.559 453.95 330.717C453.936 330.843 453.908 330.982 453.894 331.121C453.769 331.875 453.657 332.656 453.546 333.437C453.532 333.535 453.517 333.619 453.504 333.716C453.42 334.232 453.337 334.762 453.267 335.305C453.071 336.603 452.876 337.942 452.681 339.295C450.757 352.768 448.193 374.178 445.587 397.024H424.807C423.678 390.678 422.619 384.903 422.703 380.942C422.66 381.026 422.633 381.124 422.605 381.207C420.946 385.81 419.121 390.817 417.267 395.684C417.1 396.131 416.933 396.577 416.765 397.023H380.948L416.626 303.617C417.336 303.059 426.521 298.108 432.597 295.221C438.939 292.194 446.953 288.47 454.061 285.192C457.461 283.616 460.653 282.152 463.356 280.911L463.58 281.078Z" fill="#3C4145"/>
<path d="M511.899 313.743L498.171 321.498L504.039 327.482L491.161 397.024H486.311C484.526 382.964 483.509 370.342 482.715 361.765C479.133 323.437 517.348 280.213 519.717 277.577C521.557 278.275 523.535 279.042 525.585 279.851L511.899 313.743Z" fill="#51565C"/>
<path d="M463.789 280.715C463.789 280.715 458.66 297.466 452.695 339.295C450.772 352.754 448.193 374.178 445.588 397.024H443.566L440.905 331.317L447.441 324.231L441.629 316.965L454.061 285.192C457.461 283.616 460.653 282.152 463.357 280.91L463.789 280.715Z" fill="#51565C"/>
<path d="M520.41 277.741L509.034 270.827C509.034 270.827 508.715 277.07 480.543 293.379L488.544 315.93L520.41 277.741Z" fill="#F5E2D9"/>
<path d="M473.049 273.972C473.049 273.972 473.492 280.711 480.543 293.379L464.928 313.75L463.79 280.711L473.049 273.972Z" fill="#F5E2D9"/>
<path d="M480.586 293.379C480.586 293.379 483.612 305.492 482.522 308.884C482.522 308.884 475.867 311.306 471.085 308.278C471.085 308.278 474.473 299.798 480.586 293.379Z" fill="#D44040"/>
<path d="M476.917 334.566C473.726 356.324 473.726 378.334 474.91 397.024H461.573C461.392 394.388 461.224 391.64 461.057 388.766C458.576 345.683 473.795 307.187 473.795 307.187L480.583 305.486C480.583 305.486 478.395 324.524 476.917 334.566Z" fill="#D44040"/>
<path d="M423.134 361.414C422.626 371.751 422.701 380.932 422.701 380.932C422.701 380.932 422.701 380.935 422.701 380.939C422.697 380.989 422.687 381.269 422.665 381.73C422.644 381.555 422.622 381.383 422.601 381.211C420.948 385.813 419.116 390.815 417.269 395.684C416.84 390.041 416.729 384.781 416.855 379.911C417.595 350.926 426.704 335.726 426.704 335.726C424.615 340.779 423.613 351.618 423.134 361.414Z" fill="#2D3133"/>
<path d="M298.468 397.147L255.854 420.59L213.059 353.194L264.818 335.201L298.468 397.147Z" fill="#292C47"/>
<path d="M295.766 395.123L255.914 417.045L215.893 354.018L264.297 337.191L295.766 395.123Z" fill="white"/>
<path d="M310.361 383.336C310.361 383.336 302.944 379.786 299.688 377.93C296.432 376.074 288.057 373.527 287.381 372.922C286.704 372.317 262.555 370.826 261.09 369.562C259.626 368.297 258.201 372.525 264.461 373.898C270.719 375.27 279.43 378.624 279.906 381.072C280.382 383.521 273.477 384.101 272.778 386.117C272.078 388.134 272.974 387.681 273.964 388.114C274.953 388.547 282.177 384.543 285.353 385.679C288.529 386.815 293.385 385.242 295.82 386.076C298.254 386.91 310.092 390.896 310.092 390.896L310.361 383.336Z" fill="#EEA886"/>
<path d="M253.777 412.134C253.777 412.134 247.545 406.521 244.53 404.173C241.516 401.825 235.855 394.919 235.023 394.516C234.189 394.114 223.382 371.92 221.621 371.031C219.86 370.142 223.287 367.153 227.016 372.521C230.745 377.89 237.296 384.798 239.786 384.294C242.277 383.789 240.134 377.052 241.76 375.607C243.387 374.162 243.31 375.183 244.103 375.948C244.895 376.713 243.938 385.084 246.245 387.637C248.552 390.191 248.961 395.382 250.694 397.354C252.427 399.326 260.791 408.937 260.791 408.937L253.777 412.134Z" fill="#EEA886"/>
<path d="M387.972 712.12C387.972 712.12 389.32 721.483 389.489 722.889C389.657 724.296 404.483 722.06 404.483 722.06L405.684 710.914C405.683 710.914 389.825 710.799 387.972 712.12Z" fill="#424773"/>
<path d="M389.331 721.699C389.331 721.699 384.633 727.341 380.09 729.8C375.546 732.259 368.407 733.233 365.721 735.778C363.782 737.616 358.658 745.527 377.527 745.367C396.397 745.207 405.494 746.484 407.515 743.451C409.537 740.419 404.59 721.064 404.59 721.064C404.59 721.064 400.121 722.674 389.331 721.699Z" fill="#292C47"/>
<path d="M281.742 712.12C281.742 712.12 283.09 721.483 283.259 722.889C283.427 724.296 298.253 722.06 298.253 722.06L299.454 710.914C299.454 710.914 283.596 710.799 281.742 712.12Z" fill="#424773"/>
<path d="M283.101 721.699C283.101 721.699 278.404 727.341 273.86 729.8C269.317 732.259 252.598 734.279 249.912 736.824C247.973 738.662 244.747 746.059 271.297 745.368C290.16 744.876 299.264 746.485 301.285 743.452C303.307 740.419 298.36 721.065 298.36 721.065C298.36 721.065 294.15 722.784 283.101 721.699Z" fill="#292C47"/>
<path d="M375.695 471.532C375.695 471.532 389.626 493.682 388.587 513.704C387.547 533.727 393.637 555.586 395.731 576.502C398.064 599.82 407.611 655.021 407.958 667.494C408.304 679.966 406.475 719.795 406.475 719.795L387.364 720.232C387.364 720.232 371.311 623.727 367.155 613.88C362.998 604.033 342.382 533.832 341.689 525.954C340.996 518.076 375.695 471.532 375.695 471.532Z" fill="#292C47"/>
<path d="M302.361 474.533C302.361 474.533 291.862 529.41 290.476 541.665C289.091 553.92 288.167 600.969 287.474 608.628C286.781 616.287 282.855 708.854 279.159 720.233H303.592C303.592 720.233 322.348 652.94 322.348 621.101C322.348 589.263 336.838 551.885 346.192 530.878C355.545 509.871 376.956 509.374 382.706 470.398C382.706 470.398 310.145 462.172 302.361 474.533Z" fill="#292C47"/>
<path d="M352.448 285.307C352.448 285.307 333.75 278.317 325.128 292.562C316.507 306.806 317.337 335.323 326.763 338.83C336.188 342.337 350.346 340.503 355.171 331.59C359.997 322.677 364.353 309.792 364.144 301.18C363.935 292.569 357.358 287.793 352.448 285.307Z" fill="#EEA886"/>
<path d="M328.793 339.482C328.793 339.482 329.571 344.534 328.285 347.024C326.998 349.513 352.509 349.577 352.509 349.577C352.509 349.577 354.58 336.04 358.506 324.602C362.433 313.164 328.793 339.482 328.793 339.482Z" fill="#EEA886"/>
<path d="M358.506 324.602C358.506 324.602 356.747 327.509 349.559 326.381C342.372 325.253 333.603 315.683 330.603 314.633C327.602 313.583 327.573 311.818 327.573 311.818L325.695 314.565L322.508 314.766C322.508 314.766 325.415 306.206 321.029 302.715C316.643 299.224 325.581 275.008 348.63 283.07C348.63 283.07 366.334 287.954 365.69 298.03C365.046 308.106 362.468 319.584 358.506 324.602Z" fill="#3A3F47"/>
<path d="M326.77 346.724C326.77 346.724 326.851 341.968 329.005 341.512C331.159 341.057 352.778 338.977 355.422 340.017V345.556C355.422 345.556 350.328 348.693 326.77 346.724Z" fill="#E2D2CA"/>
<path d="M328.049 308.153C328.452 306.463 332.747 301.634 334.391 306.805C336.035 311.976 331.906 318.932 329.603 318.336C327.301 317.741 327.027 312.438 328.049 308.153Z" fill="#EEA886"/>
<path d="M240.968 402.908C240.978 402.904 240.989 402.903 241.003 402.905C240.855 402.97 240.833 402.976 240.968 402.908Z" fill="#323657"/>
<path d="M391.411 524.3C391.411 524.3 379.944 527.678 360.389 529.835C340.834 531.993 291.976 529.056 291.669 526.745C291.359 524.432 302.179 440.657 301.563 436.341C300.948 432.027 300.617 416.654 300.617 416.654C300.376 420.866 296.088 438.071 290.912 447.45C289.041 450.839 282.768 461.46 279.744 459.045C265.107 447.349 242.441 403.276 241.005 402.905C242.212 402.379 251.746 397.986 253.083 397.54C254.255 397.149 264.815 408.337 271.213 415.274C274.066 418.365 276.091 420.611 276.091 420.611C277.938 416.451 284.668 390.244 286.759 381.174C291.476 360.719 290.75 359.868 290.75 359.868C305.056 355.538 326.77 346.723 326.77 346.723L355.422 345.555C355.422 345.555 381.717 351.348 392.073 356.029C393.056 356.473 393.06 379.506 395.756 385.546L387.169 403.673C387.169 403.673 382.21 439.583 381.181 455.553C380.709 462.884 391.411 524.3 391.411 524.3Z" fill="#FFDF69"/>
<path d="M396.947 415.449C396.198 417.866 392.802 419.908 390.595 420.801C389.183 421.373 387.601 421.558 386.008 421.263L384.886 421.055V421.054L365.251 417.41C365.251 417.41 360.955 367.894 392.075 356.03C392.897 356.299 403.819 393.279 396.947 415.449Z" fill="#FFDF69"/>
<path d="M390.595 420.8V420.801C389.182 421.373 387.6 421.558 386.008 421.263L384.885 421.055V421.054L386.822 395.751L390.595 420.8Z" fill="#AB9546"/>
<path d="M276.091 420.612L273.692 430.782C273.692 430.782 271.088 420.577 271.213 415.274C274.066 418.366 276.091 420.612 276.091 420.612Z" fill="#AB9546"/>
<path d="M357.774 286.988C357.774 286.988 382.28 283.916 358.19 324.881L357.774 286.988Z" fill="#3A3F47"/>
<path d="M232.759 349.577L230.268 345.294L249.888 338.52L252.378 342.779L232.759 349.577Z" fill="#292C47"/>
<g opacity="0.95">
<path opacity="0.95" d="M606.982 166.042H620.881L616.627 157.211H602.727L606.982 166.042Z" fill="url(#paint4_linear)"/>
<path opacity="0.95" d="M600.477 166.042H603.789L599.535 157.211H596.222L600.477 166.042Z" fill="url(#paint5_linear)"/>
<path opacity="0.95" d="M552.453 155.524H608.738L606.869 151.109H550.585L552.453 155.524Z" fill="url(#paint6_linear)"/>
</g>
<path d="M250.181 14.7239H228.928C228.21 14.7239 227.629 14.142 227.629 13.4239V8.83059C227.629 8.1125 228.211 7.53101 228.928 7.53101H250.181C250.899 7.53101 251.48 8.11296 251.48 8.83059V13.4239C251.48 14.142 250.899 14.7239 250.181 14.7239Z" fill="url(#paint7_linear)"/>
<path d="M250.181 31.973H228.928C228.21 31.973 227.629 31.3906 227.629 30.6729V26.0801C227.629 25.3615 228.211 24.78 228.928 24.78H250.181C250.899 24.78 251.48 25.362 251.48 26.0801V30.6729C251.48 31.3906 250.899 31.973 250.181 31.973Z" fill="url(#paint8_linear)"/>
<path d="M250.181 49.2225H228.928C228.21 49.2225 227.629 48.64 227.629 47.922V43.3291C227.629 42.611 228.211 42.0291 228.928 42.0291H250.181C250.899 42.0291 251.48 42.6115 251.48 43.3291V47.922C251.48 48.64 250.899 49.2225 250.181 49.2225Z" fill="url(#paint9_linear)"/>
<path d="M266.815 14.7239H262.627C261.909 14.7239 261.328 14.142 261.328 13.4239V8.83059C261.328 8.1125 261.91 7.53101 262.627 7.53101H266.815C267.533 7.53101 268.114 8.11296 268.114 8.83059V13.4239C268.114 14.142 267.533 14.7239 266.815 14.7239Z" fill="url(#paint10_linear)"/>
<path d="M266.815 31.973H262.627C261.909 31.973 261.328 31.3906 261.328 30.6729V26.0801C261.328 25.3615 261.91 24.78 262.627 24.78H266.815C267.533 24.78 268.114 25.362 268.114 26.0801V30.6729C268.114 31.3906 267.533 31.973 266.815 31.973Z" fill="url(#paint11_linear)"/>
<path d="M266.815 49.2225H262.627C261.909 49.2225 261.328 48.64 261.328 47.922V43.3291C261.328 42.611 261.91 42.0291 262.627 42.0291H266.815C267.533 42.0291 268.114 42.6115 268.114 43.3291V47.922C268.114 48.64 267.533 49.2225 266.815 49.2225Z" fill="url(#paint12_linear)"/>
<path d="M174.473 403.194H199.424L191.787 387.342H166.836L174.473 403.194Z" fill="url(#paint13_linear)"/>
<path d="M162.798 403.194H168.743L161.107 387.342H155.161L162.798 403.194Z" fill="url(#paint14_linear)"/>
<defs>
<linearGradient id="paint0_linear" x1="183.029" y1="544.953" x2="164.006" y2="200.416" gradientUnits="userSpaceOnUse">
<stop stop-color="#D1D7E0"/>
<stop offset="1" stop-color="#EBEBFF"/>
</linearGradient>
<linearGradient id="paint1_linear" x1="493.741" y1="641.005" x2="493.741" y2="286.299" gradientUnits="userSpaceOnUse">
<stop stop-color="#D1D7E0"/>
<stop offset="1" stop-color="#EBEBFF"/>
</linearGradient>
<linearGradient id="paint2_linear" x1="165.656" y1="421.966" x2="165.656" y2="162.603" gradientUnits="userSpaceOnUse">
<stop stop-color="#D1D7E0"/>
<stop offset="1" stop-color="#EBEBFF"/>
</linearGradient>
<linearGradient id="paint3_linear" x1="400.523" y1="202.695" x2="400.523" y2="56.5916" gradientUnits="userSpaceOnUse">
<stop stop-color="#D1D7E0"/>
<stop offset="1" stop-color="#EBEBFF"/>
</linearGradient>
<linearGradient id="paint4_linear" x1="602.727" y1="161.626" x2="620.881" y2="161.626" gradientUnits="userSpaceOnUse">
<stop stop-color="#D1D7E0"/>
<stop offset="1" stop-color="#EBEBFF"/>
</linearGradient>
<linearGradient id="paint5_linear" x1="596.223" y1="161.626" x2="603.789" y2="161.626" gradientUnits="userSpaceOnUse">
<stop stop-color="#D1D7E0"/>
<stop offset="1" stop-color="#EBEBFF"/>
</linearGradient>
<linearGradient id="paint6_linear" x1="550.585" y1="153.316" x2="608.738" y2="153.316" gradientUnits="userSpaceOnUse">
<stop stop-color="#D1D7E0"/>
<stop offset="1" stop-color="#EBEBFF"/>
</linearGradient>
<linearGradient id="paint7_linear" x1="227.629" y1="11.1271" x2="251.48" y2="11.1271" gradientUnits="userSpaceOnUse">
<stop stop-color="#D1D7E0"/>
<stop offset="1" stop-color="#EBEBFF"/>
</linearGradient>
<linearGradient id="paint8_linear" x1="227.629" y1="28.3762" x2="251.48" y2="28.3762" gradientUnits="userSpaceOnUse">
<stop stop-color="#D1D7E0"/>
<stop offset="1" stop-color="#EBEBFF"/>
</linearGradient>
<linearGradient id="paint9_linear" x1="227.629" y1="45.6254" x2="251.48" y2="45.6254" gradientUnits="userSpaceOnUse">
<stop stop-color="#D1D7E0"/>
<stop offset="1" stop-color="#EBEBFF"/>
</linearGradient>
<linearGradient id="paint10_linear" x1="261.328" y1="11.1271" x2="268.114" y2="11.1271" gradientUnits="userSpaceOnUse">
<stop stop-color="#D1D7E0"/>
<stop offset="1" stop-color="#EBEBFF"/>
</linearGradient>
<linearGradient id="paint11_linear" x1="261.328" y1="28.3762" x2="268.114" y2="28.3762" gradientUnits="userSpaceOnUse">
<stop stop-color="#D1D7E0"/>
<stop offset="1" stop-color="#EBEBFF"/>
</linearGradient>
<linearGradient id="paint12_linear" x1="261.328" y1="45.6254" x2="268.114" y2="45.6254" gradientUnits="userSpaceOnUse">
<stop stop-color="#D1D7E0"/>
<stop offset="1" stop-color="#EBEBFF"/>
</linearGradient>
<linearGradient id="paint13_linear" x1="166.836" y1="395.268" x2="199.424" y2="395.268" gradientUnits="userSpaceOnUse">
<stop stop-color="#D1D7E0"/>
<stop offset="1" stop-color="#EBEBFF"/>
</linearGradient>
<linearGradient id="paint14_linear" x1="155.161" y1="395.268" x2="168.743" y2="395.268" gradientUnits="userSpaceOnUse">
<stop stop-color="#D1D7E0"/>
<stop offset="1" stop-color="#EBEBFF"/>
</linearGradient>
</defs>
</svg>
